<svg width="19" height="26" viewBox="0 0 19 26" fill="none" xmlns="http://www.w3.org/2000/svg">
<path fill-rule="evenodd" clip-rule="evenodd" d="M18.7558 10.1358C19.147 7.48651 17.1556 6.06242 14.4326 5.11241L15.316 1.52373L13.1592 0.979395L12.2993 4.47359C11.7323 4.33036 11.15 4.19539 10.5713 4.06159L11.4374 0.544335L9.282 0L8.39816 3.58751C7.92895 3.47931 7.4681 3.37237 7.02099 3.25969L7.02349 3.2484L4.04926 2.49612L3.47553 4.82935C3.47553 4.82935 5.07567 5.20086 5.04195 5.22373C5.91532 5.44452 6.07326 6.03012 6.04703 6.49427L5.0408 10.5826C5.10094 10.5981 5.17894 10.6205 5.26502 10.6555L5.2025 10.6397C5.14924 10.6262 5.09388 10.6122 5.03705 10.5984L3.62664 16.3256C3.51991 16.5943 3.24899 16.9977 2.63837 16.8445C2.65999 16.8762 1.0708 16.4483 1.0708 16.4483L0 18.9489L2.80669 19.6576C3.11405 19.7356 3.41779 19.8158 3.71845 19.8952C3.92854 19.9507 4.13712 20.0058 4.34438 20.0594L3.45189 23.6893L5.60617 24.2336L6.49001 20.6423C7.07854 20.8041 7.64967 20.9534 8.2088 21.0941L7.32794 24.6685L9.4848 25.2128L10.3772 21.5898C14.055 22.2948 16.8203 22.0106 17.9843 18.6412C18.9222 15.9285 17.9376 14.3638 16.0028 13.3434C17.412 13.0142 18.4735 12.0754 18.7565 10.1361L18.7559 10.1356L18.7558 10.1358ZM13.828 17.1347C13.2165 19.6235 9.3703 18.5946 7.61053 18.1238L7.6105 18.1238C7.45221 18.0815 7.3108 18.0436 7.19015 18.0133L8.3745 13.2044C8.52155 13.2415 8.70125 13.2824 8.90483 13.3287C10.7251 13.7424 14.4546 14.5902 13.8281 17.1347H13.828ZM9.26994 11.0968C10.7371 11.4934 13.9376 12.3585 14.495 10.0965H14.4952C15.0644 7.78297 11.954 7.08547 10.4349 6.7448C10.264 6.70648 10.1132 6.67267 9.9901 6.64159L8.91632 11.003C9.01771 11.0286 9.13667 11.0607 9.26994 11.0968Z" fill="url(#paint0_linear_1073_209)"/>
<defs>
<linearGradient id="paint0_linear_1073_209" x1="9.40244" y1="0" x2="9.40244" y2="25.2128" gradientUnits="userSpaceOnUse">
<stop stop-color="#FE983F"/>
<stop offset="1" stop-color="#FF551F"/>
</linearGradient>
</defs>
</svg>
