<svg width="23" height="16" viewBox="0 0 23 16" fill="none" xmlns="http://www.w3.org/2000/svg">
<path d="M21.5 5V13C21.5 13.5304 21.2893 14.0391 20.9142 14.4142C20.5391 14.7893 20.0304 15 19.5 15H3.5C2.96957 15 2.46086 14.7893 2.08579 14.4142C1.71071 14.0391 1.5 13.5304 1.5 13V3C1.5 2.46957 1.71071 1.96086 2.08579 1.58579C2.46086 1.21071 2.96957 1 3.5 1H19.5C20.0304 1 20.5391 1.21071 20.9142 1.58579C21.2893 1.96086 21.5 2.46957 21.5 3V5ZM21.5 5H5.5" stroke="black" stroke-width="1.5" stroke-linecap="round" stroke-linejoin="round"/>
</svg>
