<svg width="17" height="18" viewBox="0 0 17 18" fill="none" xmlns="http://www.w3.org/2000/svg">
<g opacity="0.6">
<path d="M13.7417 14.6664H6.8C6.68728 14.6664 6.57918 14.6216 6.49948 14.5419C6.41978 14.4622 6.375 14.3541 6.375 14.2414V7.29976C6.375 7.18704 6.41978 7.07894 6.49948 6.99924C6.57918 6.91953 6.68728 6.87476 6.8 6.87476H13.7417C13.8544 6.87476 13.9625 6.91953 14.0422 6.99924C14.1219 7.07894 14.1667 7.18704 14.1667 7.29976V14.2414C14.1667 14.3541 14.1219 14.4622 14.0422 14.5419C13.9625 14.6216 13.8544 14.6664 13.7417 14.6664Z" stroke="#0055FF" stroke-width="0.5" stroke-linecap="round" stroke-linejoin="round"/>
<path d="M10.6249 6.87492V3.75825C10.6249 3.64553 10.5801 3.53743 10.5004 3.45773C10.4207 3.37803 10.3126 3.33325 10.1999 3.33325H3.25825C3.14553 3.33325 3.03743 3.37803 2.95773 3.45773C2.87803 3.53743 2.83325 3.64553 2.83325 3.75825V10.6999C2.83325 10.8126 2.87803 10.9207 2.95773 11.0004C3.03743 11.0801 3.14553 11.1249 3.25825 11.1249H6.37492" stroke="#0055FF" stroke-width="0.5" stroke-linecap="round" stroke-linejoin="round"/>
</g>
</svg>
