<svg width="24" height="24" viewBox="0 0 24 24" fill="none" xmlns="http://www.w3.org/2000/svg">
<path d="M7 3.51593C8.1771 2.7301 9.52286 2.23282 10.9281 2.06444C12.3334 1.89606 13.7585 2.06131 15.0879 2.5468C16.4174 3.03228 17.6136 3.82432 18.5797 4.85865C19.5457 5.89299 20.2543 7.14048 20.648 8.49993M21 21.9999V13.9999M3 21.9999V10.9999C3 9.94793 3.18 8.93793 3.512 7.99993" stroke="#0055FF" stroke-width="1.5" stroke-linecap="round" stroke-linejoin="round"/>
<path d="M18 22V11.3C18 7.82 15.314 5 12 5C8.686 5 6 7.82 6 11.3V14M6 22V18" stroke="#0055FF" stroke-width="1.5" stroke-linecap="round" stroke-linejoin="round"/>
<path d="M9 22V11.15C9 9.41 10.343 8 12 8C12.865 8 13.645 8.385 14.193 9M15 22V14M12 22V18.5M12 11V14" stroke="#0055FF" stroke-width="1.5" stroke-linecap="round" stroke-linejoin="round"/>
</svg>
