<svg width="18" height="18" viewBox="0 0 18 18" fill="none" xmlns="http://www.w3.org/2000/svg">
<path d="M12.75 7.5H15H12.75ZM17.25 7.5H15H17.25ZM15 7.5V5.25V7.5ZM15 7.5V9.75V7.5ZM0.75 15V14.25C0.75 12.8576 1.30312 11.5223 2.28769 10.5377C3.27226 9.55312 4.60761 9 6 9V9C7.39239 9 8.72775 9.55312 9.71231 10.5377C10.6969 11.5223 11.25 12.8576 11.25 14.25V15H0.75ZM6 9C6.79565 9 7.55871 8.68393 8.12132 8.12132C8.68393 7.55871 9 6.79565 9 6C9 5.20435 8.68393 4.44129 8.12132 3.87868C7.55871 3.31607 6.79565 3 6 3C5.20435 3 4.44129 3.31607 3.87868 3.87868C3.31607 4.44129 3 5.20435 3 6C3 6.79565 3.31607 7.55871 3.87868 8.12132C4.44129 8.68393 5.20435 9 6 9V9Z" stroke="black" stroke-linecap="round" stroke-linejoin="round"/>
</svg>
