<svg width="18" height="18" viewBox="0 0 18 18" fill="none" xmlns="http://www.w3.org/2000/svg">
<path d="M6.375 3H4.5C4.10218 3 3.72064 3.15804 3.43934 3.43934C3.15804 3.72064 3 4.10218 3 4.5V15C3 15.3978 3.15804 15.7794 3.43934 16.0607C3.72064 16.342 4.10218 16.5 4.5 16.5H13.5C13.8978 16.5 14.2794 16.342 14.5607 16.0607C14.842 15.7794 15 15.3978 15 15V4.5C15 4.10218 14.842 3.72064 14.5607 3.43934C14.2794 3.15804 13.8978 3 13.5 3H11.625" stroke="url(#paint0_linear_59_192)" stroke-linecap="round"/>
<path d="M6 4.8V3.375C6 3.27554 6.03951 3.18016 6.10983 3.10984C6.18016 3.03951 6.27554 3 6.375 3C6.582 3 6.753 2.832 6.789 2.628C6.9 1.989 7.3305 0.75 9 0.75C10.6695 0.75 11.1 1.989 11.211 2.628C11.247 2.832 11.418 3 11.625 3C11.7245 3 11.8198 3.03951 11.8902 3.10984C11.9605 3.18016 12 3.27554 12 3.375V4.8C12 4.91935 11.9526 5.03381 11.8682 5.1182C11.7838 5.20259 11.6693 5.25 11.55 5.25H6.45C6.33065 5.25 6.21619 5.20259 6.1318 5.1182C6.04741 5.03381 6 4.91935 6 4.8V4.8Z" stroke="url(#paint1_linear_59_192)" stroke-linecap="round"/>
<defs>
<linearGradient id="paint0_linear_59_192" x1="9" y1="3" x2="9" y2="16.5" gradientUnits="userSpaceOnUse">
<stop stop-color="#FE983F"/>
<stop offset="1" stop-color="#FF551F"/>
</linearGradient>
<linearGradient id="paint1_linear_59_192" x1="9" y1="0.75" x2="9" y2="5.25" gradientUnits="userSpaceOnUse">
<stop stop-color="#FE983F"/>
<stop offset="1" stop-color="#FF551F"/>
</linearGradient>
</defs>
</svg>
