<svg width="18" height="18" viewBox="0 0 18 18" fill="none" xmlns="http://www.w3.org/2000/svg">
<path d="M4.5 15.75H2.25V13.5M6.75 4.95V6.3C6.75 6.41935 6.70259 6.53381 6.6182 6.6182C6.53381 6.70259 6.41935 6.75 6.3 6.75H4.95C4.83065 6.75 4.71619 6.70259 4.6318 6.6182C4.54741 6.53381 4.5 6.41935 4.5 6.3V4.95C4.5 4.83065 4.54741 4.71619 4.6318 4.6318C4.71619 4.54741 4.83065 4.5 4.95 4.5H6.3C6.41935 4.5 6.53381 4.54741 6.6182 4.6318C6.70259 4.71619 6.75 4.83065 6.75 4.95V4.95ZM4.5 9H6.75H4.5ZM11.25 9V11.25V9ZM9 13.5H11.25H9ZM9 9.00825L9.0075 9L9 9.00825ZM13.5 9.00825L13.5075 9L13.5 9.00825ZM9 11.2582L9.0075 11.25L9 11.2582ZM13.5 11.2582L13.5075 11.25L13.5 11.2582ZM13.5 13.5082L13.5075 13.5L13.5 13.5082ZM9 6.75825L9.0075 6.75L9 6.75825ZM9 4.50825L9.0075 4.5L9 4.50825ZM6.75 11.7V13.05C6.75 13.1693 6.70259 13.2838 6.6182 13.3682C6.53381 13.4526 6.41935 13.5 6.3 13.5H4.95C4.83065 13.5 4.71619 13.4526 4.6318 13.3682C4.54741 13.2838 4.5 13.1693 4.5 13.05V11.7C4.5 11.5807 4.54741 11.4662 4.6318 11.3818C4.71619 11.2974 4.83065 11.25 4.95 11.25H6.3C6.41935 11.25 6.53381 11.2974 6.6182 11.3818C6.70259 11.4662 6.75 11.5807 6.75 11.7V11.7ZM13.5 4.95V6.3C13.5 6.41935 13.4526 6.53381 13.3682 6.6182C13.2838 6.70259 13.1693 6.75 13.05 6.75H11.7C11.5807 6.75 11.4662 6.70259 11.3818 6.6182C11.2974 6.53381 11.25 6.41935 11.25 6.3V4.95C11.25 4.83065 11.2974 4.71619 11.3818 4.6318C11.4662 4.54741 11.5807 4.5 11.7 4.5H13.05C13.1693 4.5 13.2838 4.54741 13.3682 4.6318C13.4526 4.71619 13.5 4.83065 13.5 4.95V4.95ZM13.5 2.25H15.75V4.5L13.5 2.25ZM13.5 15.75H15.75V13.5L13.5 15.75ZM4.5 2.25H2.25V4.5L4.5 2.25Z" stroke="black" stroke-linecap="round" stroke-linejoin="round"/>
</svg>
