<svg width="101" height="73" viewBox="0 0 101 73" fill="none" xmlns="http://www.w3.org/2000/svg">
<path d="M17.572 41.4631C17.474 41.7179 16.9447 42.6981 16.3762 43.6783C15.1412 45.8151 10.7891 53.3233 9.90698 54.8523C6.55476 60.7138 5.65299 62.2429 5.20211 62.9879C4.88845 63.478 4.43757 64.2621 4.16311 64.7522C3.90827 65.2423 3.51619 65.948 3.30055 66.3205C0.810889 70.5745 -0.0908789 72.2408 0.00713941 72.3976C0.144365 72.6329 46.5658 72.6721 46.5658 72.4368C46.5658 72.3584 46.1345 72.0055 45.6248 71.6527C40.8612 68.3005 31.471 59.1455 27.0602 53.5193C26.7465 53.1076 26.2172 52.4411 25.884 52.0294C23.5511 49.0889 21.7672 46.5992 19.4736 43.1294C18.709 41.9727 18.0033 41.0318 17.9053 41.0318C17.8073 41.0318 17.67 41.2278 17.572 41.4631Z" fill="url(#paint0_linear_1073_120)"/>
<path d="M17.7434 0.171062C17.6846 0.347495 18.5276 1.89618 21.625 7.24798C21.8406 7.60085 22.1739 8.20856 22.3895 8.58103C23.3697 10.2865 23.5461 10.6002 24.1342 11.5804C24.4675 12.1489 24.7419 12.6586 24.7419 12.7174C24.7419 12.7762 24.9184 13.0899 25.134 13.3839C25.3496 13.6976 25.7809 14.4033 26.0946 14.9914C26.8591 16.4225 27.5061 17.5595 27.6825 17.7947C27.9373 18.1084 29.8781 21.4606 30.2898 22.3036C30.5054 22.7349 30.8387 23.3034 31.0151 23.5778C31.2111 23.8523 31.662 24.6168 32.0149 25.2441C32.3678 25.8911 32.701 26.4596 32.7598 26.5184C32.8186 26.5772 33.0147 26.8712 33.1715 27.2045C33.3283 27.5182 34.0537 28.7532 34.7986 29.949C35.5436 31.1252 36.2493 32.2818 36.3669 32.4975C36.5041 32.6935 36.9354 33.3404 37.3471 33.9089C37.7392 34.4775 38.0724 34.9871 38.0724 35.0264C38.0724 35.0852 38.3665 35.5164 38.7193 35.9869C39.0526 36.4574 39.5231 37.0847 39.7387 37.3788C40.8953 39.0255 43.1694 41.8876 44.5024 43.4363C45.3258 44.3969 46.1883 45.3967 46.404 45.6711C47.4822 46.9846 51.7754 51.317 53.9514 53.2577C57.7349 56.6296 59.5188 58.041 63.2631 60.5503C65.792 62.2558 67.2819 63.1576 69.2814 64.2358C72.4376 65.9217 73.261 66.3138 73.5942 66.3138C73.7903 66.3138 73.9471 66.3922 73.9471 66.5098C73.9471 66.6078 74.1039 66.7058 74.2804 66.7058C74.4568 66.7058 74.7509 66.8235 74.9077 66.9803C75.0841 67.1175 75.7114 67.392 76.2996 67.6076C76.8877 67.8037 77.4562 68.0389 77.5542 68.1173C77.6718 68.1957 77.9463 68.2741 78.1815 68.2741C78.4167 68.2741 78.7108 68.4114 78.848 68.5682C78.9853 68.725 79.2009 68.8623 79.3381 68.8623C79.6714 68.8623 81.5925 69.4308 82.0238 69.666C82.2199 69.764 82.5923 69.8424 82.8472 69.8424C83.1216 69.8424 83.3961 69.9209 83.4549 70.0385C83.5137 70.1365 83.8666 70.2345 84.239 70.2345C84.6115 70.2345 84.9448 70.3129 85.0036 70.4109C85.1212 70.5678 85.7093 70.705 87.3756 70.9402C87.8069 71.0187 88.2382 71.1363 88.3558 71.2343C88.4538 71.3323 88.8655 71.4107 89.2576 71.4107C89.6496 71.4107 90.2966 71.548 90.669 71.7048C91.0611 71.8616 91.708 71.9988 92.1197 71.9792C92.5314 71.9792 94.3741 72.1165 96.1973 72.2733C100.824 72.6654 101 72.6654 101 72.2145C101 71.9988 100.941 71.8028 100.863 71.7636C100.765 71.7244 100.51 71.3127 100.255 70.8226C100.02 70.3325 99.6083 69.5876 99.3338 69.1563C99.0594 68.725 98.7457 68.1565 98.6281 67.8821C98.5301 67.6076 98.3341 67.294 98.1968 67.1959C98.0596 67.0783 97.6675 66.4118 97.2951 65.7257C96.9226 65.0199 96.5697 64.4122 96.5109 64.3534C96.4521 64.2946 96.1777 63.7849 95.9228 63.236C95.668 62.6675 95.3151 62.0402 95.1387 61.8441C94.9622 61.6481 94.531 60.9228 94.1585 60.217C93.786 59.5309 93.4331 58.9232 93.3743 58.8644C93.3155 58.8056 93.0019 58.2567 92.6882 57.6098C92.3745 56.9824 92.0217 56.3747 91.9041 56.2375C91.7864 56.1199 91.4924 55.6298 91.2375 55.1397C90.5122 53.7478 89.0811 51.1994 88.8067 50.8465C88.6695 50.6701 88.3754 50.18 88.1598 49.7487C87.9441 49.3174 87.7089 48.9253 87.6501 48.8665C87.5913 48.8077 87.3756 48.4549 87.1796 48.0824C86.9835 47.7099 86.5523 46.9062 86.1994 46.3181C85.8465 45.7299 85.0428 44.3577 84.4155 43.2795C83.7881 42.2013 83.1804 41.2603 83.0824 41.1819C82.9648 41.1035 82.9256 41.0251 83.004 41.0251C83.0824 41.0251 82.8864 40.5742 82.5727 40.0449C82.2395 39.496 81.9846 38.9667 81.9846 38.8687C81.9846 38.751 81.9062 38.6726 81.7886 38.6726C81.6906 38.6726 81.5925 38.5746 81.5925 38.4766C81.5925 38.359 81.2201 37.6728 80.7888 36.9475C80.3379 36.2222 79.7302 35.1832 79.4361 34.6539C79.1421 34.105 78.7108 33.36 78.4952 32.9876C78.2599 32.6151 77.9659 32.0858 77.8286 31.8114C77.6914 31.5369 77.3385 30.9488 77.0445 30.4979C76.7504 30.047 76.4956 29.6354 76.4956 29.5765C76.4956 29.5373 76.2407 29.0668 75.9467 28.5375C74.7509 26.538 73.9863 25.2049 73.5158 24.362C73.1042 23.6562 70.2028 18.5985 68.2425 15.1875C68.0268 14.8542 67.7132 14.2661 67.4975 13.9132C67.3015 13.58 66.6742 12.4822 66.1057 11.5216C65.5371 10.5414 64.851 9.36517 64.5766 8.87508C64.3021 8.38499 63.6748 7.30679 63.1847 6.46383C62.6946 5.60127 62.1261 4.64069 61.9301 4.30743C61.7144 3.95457 61.3616 3.32725 61.1459 2.89597C60.9107 2.46469 60.6754 2.07262 60.6166 2.01381C60.5578 1.95499 60.2834 1.50411 60.0285 0.994415L59.5384 0.0534401L38.6801 0.0142328C23.9186 -0.0249745 17.8022 0.0142328 17.7434 0.171062Z" fill="#0055FF"/>
<defs>
<linearGradient id="paint0_linear_1073_120" x1="23.2829" y1="41.0318" x2="23.2829" y2="72.5949" gradientUnits="userSpaceOnUse">
<stop stop-color="#FE983F"/>
<stop offset="1" stop-color="#FF551F"/>
</linearGradient>
</defs>
</svg>
