<svg width="24" height="24" viewBox="0 0 24 24" fill="none" xmlns="http://www.w3.org/2000/svg">
<path d="M2 19C1.71667 19 1.47933 18.904 1.288 18.712C1.096 18.5207 1 18.2833 1 18V5C1 4.71667 1.096 4.479 1.288 4.287C1.47933 4.09567 1.71667 4 2 4C2.28333 4 2.521 4.09567 2.713 4.287C2.90433 4.479 3 4.71667 3 5V14H11V8C11 7.45 11.196 6.97933 11.588 6.588C11.9793 6.196 12.45 6 13 6H19C20.1 6 21.0417 6.39167 21.825 7.175C22.6083 7.95833 23 8.9 23 10V18C23 18.2833 22.904 18.5207 22.712 18.712C22.5207 18.904 22.2833 19 22 19C21.7167 19 21.4793 18.904 21.288 18.712C21.096 18.5207 21 18.2833 21 18V16H3V18C3 18.2833 2.90433 18.5207 2.713 18.712C2.521 18.904 2.28333 19 2 19ZM7 13C6.16667 13 5.45833 12.7083 4.875 12.125C4.29167 11.5417 4 10.8333 4 10C4 9.16667 4.29167 8.45833 4.875 7.875C5.45833 7.29167 6.16667 7 7 7C7.83333 7 8.54167 7.29167 9.125 7.875C9.70833 8.45833 10 9.16667 10 10C10 10.8333 9.70833 11.5417 9.125 12.125C8.54167 12.7083 7.83333 13 7 13ZM13 14H21V10C21 9.45 20.8043 8.979 20.413 8.587C20.021 8.19567 19.55 8 19 8H13V14ZM7 11C7.28333 11 7.521 10.904 7.713 10.712C7.90433 10.5207 8 10.2833 8 10C8 9.71667 7.90433 9.479 7.713 9.287C7.521 9.09567 7.28333 9 7 9C6.71667 9 6.479 9.09567 6.287 9.287C6.09567 9.479 6 9.71667 6 10C6 10.2833 6.09567 10.5207 6.287 10.712C6.479 10.904 6.71667 11 7 11Z" fill="#0055FF"/>
</svg>
