<svg width="24" height="24" viewBox="0 0 24 24" fill="none" xmlns="http://www.w3.org/2000/svg">
<path d="M12 15C13.6569 15 15 13.6569 15 12C15 10.3431 13.6569 9 12 9C10.3431 9 9 10.3431 9 12C9 13.6569 10.3431 15 12 15Z" stroke="url(#paint0_linear_1124_244)" stroke-width="2" stroke-linecap="round" stroke-linejoin="round"/>
<path d="M19 6H5C3.89543 6 3 6.89543 3 8V16C3 17.1046 3.89543 18 5 18H19C20.1046 18 21 17.1046 21 16V8C21 6.89543 20.1046 6 19 6Z" stroke="url(#paint1_linear_1124_244)" stroke-width="2" stroke-linecap="round" stroke-linejoin="round"/>
<path d="M18 12H18.01M6 12H6.01" stroke="url(#paint2_linear_1124_244)" stroke-width="2" stroke-linecap="round" stroke-linejoin="round"/>
<defs>
<linearGradient id="paint0_linear_1124_244" x1="12" y1="9" x2="12" y2="15" gradientUnits="userSpaceOnUse">
<stop stop-color="#FE983F"/>
<stop offset="1" stop-color="#FF551F"/>
</linearGradient>
<linearGradient id="paint1_linear_1124_244" x1="12" y1="6" x2="12" y2="18" gradientUnits="userSpaceOnUse">
<stop stop-color="#FE983F"/>
<stop offset="1" stop-color="#FF551F"/>
</linearGradient>
<linearGradient id="paint2_linear_1124_244" x1="12.005" y1="12" x2="12.005" y2="13" gradientUnits="userSpaceOnUse">
<stop stop-color="#FE983F"/>
<stop offset="1" stop-color="#FF551F"/>
</linearGradient>
</defs>
</svg>
