<svg width="8" height="6" viewBox="0 0 8 6" fill="none" xmlns="http://www.w3.org/2000/svg">
<path d="M1 4.8V3.375C1 3.27554 1.03951 3.18016 1.10983 3.10984C1.18016 3.03951 1.27554 3 1.375 3C1.582 3 1.753 2.832 1.789 2.628C1.9 1.989 2.3305 0.75 4 0.75C5.6695 0.75 6.1 1.989 6.211 2.628C6.247 2.832 6.418 3 6.625 3C6.72446 3 6.81984 3.03951 6.89016 3.10984C6.96049 3.18016 7 3.27554 7 3.375V4.8C7 4.91935 6.95259 5.03381 6.8682 5.1182C6.78381 5.20259 6.66935 5.25 6.55 5.25H1.45C1.33065 5.25 1.21619 5.20259 1.1318 5.1182C1.04741 5.03381 1 4.91935 1 4.8V4.8Z" stroke="url(#paint0_linear_59_195)" stroke-linecap="round"/>
<defs>
<linearGradient id="paint0_linear_59_195" x1="4" y1="0.75" x2="4" y2="5.25" gradientUnits="userSpaceOnUse">
<stop stop-color="#FE983F"/>
<stop offset="1" stop-color="#FF551F"/>
</linearGradient>
</defs>
</svg>
