<svg width="28" height="28" viewBox="0 0 28 28" fill="none" xmlns="http://www.w3.org/2000/svg">
<path fill-rule="evenodd" clip-rule="evenodd" d="M24.2744 8.89416L23.5482 7.63405C22.9339 6.56781 21.5724 6.19998 20.5047 6.81178C19.9965 7.11118 19.3901 7.19612 18.8191 7.04788C18.2482 6.89963 17.7597 6.53038 17.4613 6.02154C17.2693 5.69812 17.1662 5.32974 17.1623 4.95366C17.1796 4.3507 16.9521 3.76641 16.5317 3.33389C16.1112 2.90137 15.5336 2.65745 14.9304 2.6577H13.4674C12.8764 2.6577 12.3098 2.89318 11.893 3.31205C11.4761 3.73092 11.2433 4.29864 11.2462 4.88958C11.2287 6.10969 10.2345 7.08956 9.01429 7.08943C8.63821 7.08553 8.26983 6.98238 7.9464 6.79042C6.8787 6.17863 5.51726 6.54645 4.90292 7.6127L4.12336 8.89416C3.50977 9.95907 3.87259 11.3197 4.93496 11.9376C5.62551 12.3363 6.05091 13.0731 6.05091 13.8705C6.05091 14.6679 5.62551 15.4047 4.93496 15.8034C3.87394 16.4172 3.51072 17.7745 4.12336 18.8362L4.86021 20.107C5.14805 20.6264 5.631 21.0096 6.20218 21.172C6.77337 21.3343 7.38571 21.2623 7.90368 20.972C8.41289 20.6748 9.01968 20.5934 9.58919 20.7458C10.1587 20.8982 10.6437 21.2718 10.9365 21.7836C11.1284 22.107 11.2316 22.4754 11.2355 22.8514C11.2355 24.0841 12.2347 25.0833 13.4674 25.0833H14.9304C16.1589 25.0833 17.1564 24.0906 17.1623 22.8621C17.1594 22.2693 17.3936 21.7 17.8128 21.2808C18.232 20.8616 18.8013 20.6274 19.3941 20.6302C19.7693 20.6403 20.1362 20.743 20.462 20.9292C21.5269 21.5428 22.8875 21.18 23.5055 20.1177L24.2744 18.8362C24.572 18.3254 24.6537 17.717 24.5014 17.1457C24.349 16.5745 23.9752 16.0875 23.4628 15.7927C22.9503 15.4979 22.5766 15.0109 22.4242 14.4397C22.2719 13.8685 22.3536 13.2601 22.6512 12.7492C22.8447 12.4113 23.1249 12.1312 23.4628 11.9376C24.5188 11.32 24.8808 9.96735 24.2744 8.90484V8.89416Z" stroke="#0055FF" stroke-width="1.5" stroke-linecap="round" stroke-linejoin="round"/>
<path opacity="0.4" d="M14.2042 16.946C15.9027 16.946 17.2797 15.5691 17.2797 13.8705C17.2797 12.172 15.9027 10.795 14.2042 10.795C12.5056 10.795 11.1287 12.172 11.1287 13.8705C11.1287 15.5691 12.5056 16.946 14.2042 16.946Z" stroke="#0055FF" stroke-width="1.5" stroke-linecap="round" stroke-linejoin="round"/>
</svg>
