<svg width="28" height="28" viewBox="0 0 28 28" fill="none" xmlns="http://www.w3.org/2000/svg">
<g clip-path="url(#clip0_1267_1003)">
<path opacity="0.5" d="M8.56959 0.18128C8.24517 0.505697 8.39386 1.03287 8.94807 1.57357C9.24546 1.85743 9.48877 2.1413 9.48877 2.19537C9.48877 2.23592 8.98863 2.31702 8.38035 2.34406C6.50143 2.4522 5.01452 3.2362 3.91962 4.68256C2.98692 5.89912 2.81119 6.54796 2.75712 9.04867C2.71657 10.6437 2.75712 11.3061 2.86526 11.4412C3.06802 11.6846 3.73037 11.7116 3.91962 11.4683C3.9872 11.3872 4.08183 10.3869 4.09534 9.27846C4.14941 7.30493 4.16293 7.22382 4.59548 6.34519C5.36597 4.77718 6.74474 3.858 8.54255 3.70931C9.09677 3.66876 9.48877 3.68228 9.48877 3.76338C9.48877 3.83097 9.24546 4.12835 8.94807 4.41221C8.36683 4.97994 8.27221 5.39898 8.62366 5.75043C9.0427 6.18299 9.39415 6.00726 10.7459 4.64201C11.7056 3.68228 12.0571 3.2362 12.0571 2.99289C12.0571 2.73606 11.7056 2.3035 10.7324 1.33026C9.39415 0.00555445 8.97511 -0.224241 8.56959 0.18128Z" fill="#556076"/>
<path opacity="0.5" d="M17.3965 1.58707C14.8012 1.99259 12.3951 3.70929 11.2461 5.96669C10.8541 6.73718 10.4351 7.95374 10.4351 8.33223C10.4351 8.80534 10.9082 9.15679 11.3407 8.99458C11.6246 8.89996 11.7462 8.71071 11.922 8.11595C12.6384 5.70986 14.5579 3.7904 16.8423 3.18211C17.775 2.92528 19.5458 2.9388 20.4514 3.20915C21.6409 3.5606 22.6683 4.1824 23.5199 5.07454C24.831 6.4398 25.4393 7.94022 25.4393 9.80562C25.4393 11.7521 24.7905 13.3201 23.4388 14.6719C22.6277 15.4829 20.8299 16.5102 20.2216 16.5102C19.8431 16.5102 19.3565 16.9563 19.3565 17.2942C19.3565 17.4429 19.4782 17.6592 19.6269 17.7944C19.8702 18.0107 19.9783 18.0242 20.6136 17.8755C23.3712 17.2672 25.7367 14.9828 26.6018 12.1171C26.8992 11.1438 26.9398 8.65664 26.6694 7.72395C26.3044 6.4398 25.5745 5.15565 24.6283 4.16888C23.0332 2.49273 21.276 1.68169 19.0591 1.58707C18.3697 1.54651 17.6263 1.56003 17.3965 1.58707Z" fill="#556076"/>
<path d="M8.42106 10.0896C6.60973 10.4951 4.77137 11.6711 3.71702 13.0634C2.40583 14.8071 1.9868 16.0642 2.00031 18.2676C2.00031 19.5923 2.05438 19.9708 2.35177 20.8088C2.86543 22.2281 3.47371 23.1608 4.58213 24.2152C5.5689 25.1614 6.85305 25.8914 8.1372 26.2563C9.16452 26.5537 11.5571 26.4861 12.6655 26.1482C15.2744 25.3236 17.3425 23.2555 18.1806 20.6331C18.5726 19.376 18.5996 16.9564 18.2211 15.8344C17.2749 13.0363 15.4906 11.225 12.7331 10.2653C11.7328 9.91383 9.57003 9.81921 8.42106 10.0896ZM12.4898 11.7116C15.761 12.8336 17.7345 16.4022 16.937 19.7545C16.5315 21.4577 15.1933 23.2555 13.7199 24.1206C12.1924 24.9992 10.0026 25.2831 8.39403 24.81C6.06904 24.1206 4.29827 22.3498 3.6224 20.0383C3.35205 19.1327 3.33853 17.3619 3.59536 16.4292C4.08199 14.5638 5.46076 12.9282 7.25857 12.0361C8.98879 11.1845 10.6514 11.0763 12.4898 11.7116Z" fill="#556076"/>
<path d="M8.21808 12.401C8.09643 12.5227 8.0018 12.8336 8.0018 13.1445L8.0018 13.6717L7.28538 13.6717C6.50138 13.6717 6.10937 13.9285 6.10937 14.4421C6.10937 14.7801 6.32565 14.9693 6.82579 15.091L7.19076 15.1856L7.19076 18.2135C7.19076 21.0251 7.17725 21.2414 6.94745 21.2414C6.56896 21.2414 6.10937 21.6334 6.10937 21.9713C6.10937 22.4715 6.5149 22.7283 7.2989 22.7283L8.00181 22.7283L8.00181 23.2419C8.00181 23.8232 8.3127 24.2152 8.78581 24.2152C9.15078 24.2152 9.48871 23.7286 9.48871 23.1744C9.48871 22.7688 9.52927 22.7283 9.89424 22.7283C10.2727 22.7283 10.2998 22.7553 10.2998 23.2555C10.2998 23.8502 10.5701 24.2152 11.0297 24.2152C11.4758 24.2152 11.6515 23.9584 11.6515 23.323C11.6515 22.7688 11.665 22.7553 12.2598 22.6066C13.0032 22.4174 13.7737 21.7686 14.0981 21.0386C14.5712 19.9978 14.3144 18.619 13.5034 17.8756C13.1654 17.5782 13.1654 17.5376 13.3412 17.1727C13.6385 16.6049 13.598 15.4559 13.2601 14.8882C12.9221 14.334 12.6923 14.1312 12.0976 13.8609C11.692 13.6852 11.6515 13.6176 11.6515 13.0904C11.6515 12.4416 11.4758 12.1847 11.0297 12.1847C10.5701 12.1847 10.2998 12.5497 10.2998 13.1445C10.2998 13.6446 10.2727 13.6717 9.89423 13.6717C9.52927 13.6717 9.48871 13.6311 9.48871 13.2256C9.48871 12.3605 8.74526 11.8738 8.21808 12.401ZM11.8813 15.4559C12.2733 15.8209 12.2733 16.3346 11.8948 16.7401C11.6245 17.024 11.4893 17.051 10.1375 17.051L8.67767 17.051L8.67767 16.1048L8.67767 15.1586L10.124 15.1586C11.4217 15.1586 11.5974 15.1856 11.8813 15.4559ZM12.3138 18.7542C12.7194 19.038 13.0032 19.7139 12.9086 20.2005C12.8681 20.4033 12.6518 20.7142 12.4355 20.9034C12.057 21.2279 11.9489 21.2414 10.3538 21.2414L8.67767 21.2414L8.67767 19.8896L8.67767 18.5379L10.3403 18.5379C11.6515 18.5379 12.057 18.5785 12.3138 18.7542Z" fill="#556076"/>
<path d="M24.9253 16.5373C24.8577 16.6319 24.7631 17.6322 24.7496 18.7406C24.6955 20.7142 24.682 20.7953 24.2494 21.6739C23.4789 23.2419 22.1002 24.1611 20.3024 24.3098C19.7481 24.3503 19.3561 24.3368 19.3561 24.2557C19.3561 24.1881 19.5995 23.8907 19.8968 23.6069C20.4781 23.0391 20.5727 22.6201 20.2213 22.2687C19.8022 21.8361 19.4508 22.0118 18.099 23.3771C17.1393 24.3368 16.7878 24.7829 16.7878 25.0262C16.7878 25.283 17.1393 25.7156 18.1125 26.6888C18.829 27.4053 19.5319 28 19.667 28C20.5862 28 20.6944 27.2295 19.8968 26.4455C19.5995 26.1617 19.3561 25.8778 19.3561 25.8237C19.3561 25.7832 19.8563 25.7021 20.4781 25.675C22.3435 25.5669 23.8304 24.7829 24.9253 23.3365C25.858 22.12 26.0337 21.4711 26.0878 18.9704C26.1283 17.3754 26.0878 16.713 25.9796 16.5778C25.7769 16.3345 25.1145 16.3075 24.9253 16.5373Z" fill="#556076"/>
</g>
<defs>
<clipPath id="clip0_1267_1003">
<rect width="28" height="28" fill="white"/>
</clipPath>
</defs>
</svg>
