<svg width="28" height="28" viewBox="0 0 28 28" fill="none" xmlns="http://www.w3.org/2000/svg">
<path d="M8.16663 15.1667H6.99996C5.71129 15.1667 4.66663 16.2114 4.66663 17.5V21C4.66663 22.2887 5.71129 23.3334 6.99996 23.3334H8.16663C9.45529 23.3334 10.5 22.2887 10.5 21V17.5C10.5 16.2114 9.45529 15.1667 8.16663 15.1667Z" stroke="black" stroke-width="2" stroke-linecap="round" stroke-linejoin="round"/>
<path d="M21 15.1667H19.8333C18.5447 15.1667 17.5 16.2114 17.5 17.5V21C17.5 22.2887 18.5447 23.3334 19.8333 23.3334H21C22.2887 23.3334 23.3333 22.2887 23.3333 21V17.5C23.3333 16.2114 22.2887 15.1667 21 15.1667Z" stroke="black" stroke-width="2" stroke-linecap="round" stroke-linejoin="round"/>
<path d="M4.66663 17.5V14C4.66663 11.5247 5.64996 9.1507 7.4003 7.40036C9.15064 5.65002 11.5246 4.66669 14 4.66669C16.4753 4.66669 18.8493 5.65002 20.5996 7.40036C22.35 9.1507 23.3333 11.5247 23.3333 14V17.5" stroke="black" stroke-width="2" stroke-linecap="round" stroke-linejoin="round"/>
</svg>
