<svg width="73" height="73" viewBox="0 0 73 73" fill="none" xmlns="http://www.w3.org/2000/svg">
<g opacity="0.1">
<path d="M33.4583 16.7292C33.4583 12.5295 30.0538 9.12501 25.8542 9.12501C21.6545 9.12501 18.25 12.5295 18.25 16.7292C18.25 20.9288 21.6545 24.3333 25.8542 24.3333C30.0538 24.3333 33.4583 20.9288 33.4583 16.7292Z" stroke="black" stroke-width="6" stroke-linecap="round" stroke-linejoin="round"/>
<path d="M21.2917 33.4583L21.2917 57.7917C21.2917 59.4051 21.9327 60.9524 23.0735 62.0932C24.2144 63.2341 25.7617 63.875 27.3751 63.875L48.6667 63.875C50.2801 63.875 51.8275 63.2341 52.9683 62.0932C54.1092 60.9524 54.7501 59.4051 54.7501 57.7917L54.7501 18.25C54.7501 16.6366 54.1092 15.0893 52.9683 13.9484C51.8275 12.8076 50.2801 12.1667 48.6667 12.1667L42.5834 12.1667M45.6251 21.2917L42.5834 21.2917" stroke="black" stroke-width="6" stroke-linecap="round" stroke-linejoin="round"/>
</g>
</svg>
