<svg width="24" height="24" viewBox="0 0 24 24" fill="none" xmlns="http://www.w3.org/2000/svg">
<path d="M18 5H6C4.34315 5 3 6.34315 3 8V16C3 17.6569 4.34315 19 6 19H18C19.6569 19 21 17.6569 21 16V8C21 6.34315 19.6569 5 18 5Z" stroke="#0055FF" stroke-width="2" stroke-linecap="round" stroke-linejoin="round"/>
<path d="M7 16L10 13M10 13L13 16M10 13C9.577 11.17 8.628 9.98 7.5 10C6.711 10 6 10.672 6 11.5C6 12.328 7.211 13 8 13H12C12.789 13 14 12.328 14 11.5C14 10.672 13.289 10 12.5 10C11.372 9.98 10.423 11.17 10 13Z" stroke="#0055FF" stroke-width="2" stroke-linecap="round" stroke-linejoin="round"/>
</svg>
