<svg width="28" height="28" viewBox="0 0 28 28" fill="none" xmlns="http://www.w3.org/2000/svg">
<path d="M14 18.6667V18.6784M14 15.1667C14.523 15.165 15.0303 14.988 15.4408 14.6638C15.8513 14.3397 16.1411 13.8872 16.264 13.3788C16.3868 12.8704 16.3356 12.3355 16.1185 11.8597C15.9013 11.3839 15.5309 10.9947 15.0663 10.7544C14.6022 10.5166 14.0713 10.4429 13.5599 10.5452C13.0486 10.6475 12.5869 10.9198 12.25 11.3179" stroke="black" stroke-width="2" stroke-linecap="round" stroke-linejoin="round"/>
<path d="M14 24.5C19.799 24.5 24.5 19.799 24.5 14C24.5 8.20101 19.799 3.5 14 3.5C8.20101 3.5 3.5 8.20101 3.5 14C3.5 19.799 8.20101 24.5 14 24.5Z" stroke="black" stroke-width="2" stroke-linecap="round" stroke-linejoin="round"/>
</svg>
