<svg width="20" height="20" viewBox="0 0 20 20" fill="none" xmlns="http://www.w3.org/2000/svg">
<path d="M3 14V12M10 19V17M17 11V9M3 6V4M10 11V9M17 3V1M5 6.6V11.4C5 11.5591 4.93679 11.7117 4.82426 11.8243C4.71174 11.9368 4.55913 12 4.4 12H1.6C1.44087 12 1.28826 11.9368 1.17574 11.8243C1.06321 11.7117 1 11.5591 1 11.4V6.6C1 6.44087 1.06321 6.28826 1.17574 6.17574C1.28826 6.06321 1.44087 6 1.6 6H4.4C4.55913 6 4.71174 6.06321 4.82426 6.17574C4.93679 6.28826 5 6.44087 5 6.6ZM12 11.6V16.4C12 16.5591 11.9368 16.7117 11.8243 16.8243C11.7117 16.9368 11.5591 17 11.4 17H8.6C8.44087 17 8.28826 16.9368 8.17574 16.8243C8.06321 16.7117 8 16.5591 8 16.4V11.6C8 11.4409 8.06321 11.2883 8.17574 11.1757C8.28826 11.0632 8.44087 11 8.6 11H11.4C11.5591 11 11.7117 11.0632 11.8243 11.1757C11.9368 11.2883 12 11.4409 12 11.6ZM19 3.6V8.4C19 8.55913 18.9368 8.71174 18.8243 8.82426C18.7117 8.93679 18.5591 9 18.4 9H15.6C15.5212 9 15.4432 8.98448 15.3704 8.95433C15.2976 8.92417 15.2315 8.87998 15.1757 8.82426C15.12 8.76855 15.0758 8.70241 15.0457 8.62961C15.0155 8.55681 15 8.47879 15 8.4V3.6C15 3.52121 15.0155 3.44319 15.0457 3.37039C15.0758 3.29759 15.12 3.23145 15.1757 3.17574C15.2315 3.12002 15.2976 3.07583 15.3704 3.04567C15.4432 3.01552 15.5212 3 15.6 3H18.4C18.5591 3 18.7117 3.06321 18.8243 3.17574C18.9368 3.28826 19 3.44087 19 3.6Z" stroke="black" stroke-width="1.5" stroke-linecap="round" stroke-linejoin="round"/>
</svg>
