<svg width="239" height="211" viewBox="0 0 239 211" fill="none" xmlns="http://www.w3.org/2000/svg">
<g clip-path="url(#clip0_12_67)">
<g opacity="0.8">
<g opacity="0.8">
<g opacity="0.8">
<g opacity="0.3">
<g opacity="0.3">
<path opacity="0.3" d="M69.766 16.5319H66.225C65.7847 16.5319 65.3625 16.357 65.0511 16.0457C64.7398 15.7344 64.5651 15.3122 64.5651 14.8719C64.5651 14.4317 64.7398 14.0094 65.0511 13.6981C65.3625 13.3868 65.7847 13.2119 66.225 13.2119H69.766C70.2063 13.2119 70.6285 13.3868 70.9398 13.6981C71.2511 14.0094 71.4261 14.4317 71.4261 14.8719C71.4261 15.3122 71.2511 15.7344 70.9398 16.0457C70.6285 16.357 70.2063 16.5319 69.766 16.5319Z" fill="#0055FF"/>
<path opacity="0.3" d="M83.4881 16.5319H79.5049C79.0647 16.5319 78.6424 16.357 78.3311 16.0457C78.0198 15.7344 77.845 15.3122 77.845 14.8719C77.845 14.4317 78.0198 14.0094 78.3311 13.6981C78.6424 13.3868 79.0647 13.2119 79.5049 13.2119H83.4881C83.9284 13.2119 84.3506 13.3868 84.6619 13.6981C84.9732 14.0094 85.148 14.4317 85.148 14.8719C85.148 15.3122 84.9732 15.7344 84.6619 16.0457C84.3506 16.357 83.9284 16.5319 83.4881 16.5319Z" fill="#0055FF"/>
</g>
<g opacity="0.3">
<path opacity="0.3" d="M74.745 25.2729C74.3049 25.2727 73.883 25.0977 73.5719 24.7864C73.2608 24.4751 73.086 24.053 73.086 23.6129V20.072C73.086 19.6317 73.2608 19.2094 73.5721 18.8981C73.8834 18.5868 74.3057 18.4119 74.7459 18.4119C75.1862 18.4119 75.6085 18.5868 75.9198 18.8981C76.2311 19.2094 76.4061 19.6317 76.4061 20.072V23.6129C76.4061 23.831 76.3631 24.0469 76.2796 24.2484C76.1961 24.4499 76.0738 24.633 75.9195 24.7871C75.7653 24.9413 75.5822 25.0635 75.3807 25.1469C75.1792 25.2302 74.963 25.2731 74.745 25.2729Z" fill="#0055FF"/>
<path opacity="0.3" d="M74.745 11.995C74.3049 11.9947 73.883 11.8197 73.5719 11.5084C73.2608 11.1971 73.086 10.775 73.086 10.335V6.35199C73.086 5.91173 73.2608 5.48947 73.5721 5.17816C73.8834 4.86685 74.3057 4.69196 74.7459 4.69196C75.1862 4.69196 75.6085 4.86685 75.9198 5.17816C76.2311 5.48947 76.4061 5.91173 76.4061 6.35199V10.335C76.4061 10.553 76.3631 10.769 76.2796 10.9705C76.1961 11.1719 76.0738 11.355 75.9195 11.5092C75.7653 11.6633 75.5822 11.7855 75.3807 11.8689C75.1792 11.9523 74.963 11.9951 74.745 11.995Z" fill="#0055FF"/>
</g>
</g>
<g opacity="0.3">
<g opacity="0.3">
<path opacity="0.3" d="M62.906 201.541H59.365C58.9247 201.541 58.5024 201.366 58.1911 201.055C57.8798 200.743 57.705 200.321 57.705 199.881C57.705 199.441 57.8798 199.019 58.1911 198.707C58.5024 198.396 58.9247 198.221 59.365 198.221H62.906C63.3462 198.221 63.7685 198.396 64.0798 198.707C64.3911 199.019 64.5661 199.441 64.5661 199.881C64.5661 200.321 64.3911 200.743 64.0798 201.055C63.7685 201.366 63.3462 201.541 62.906 201.541Z" fill="#0055FF"/>
<path opacity="0.3" d="M76.6271 201.541H72.6439C72.2037 201.541 71.7814 201.366 71.4701 201.055C71.1588 200.743 70.984 200.321 70.984 199.881C70.984 199.441 71.1588 199.019 71.4701 198.707C71.7814 198.396 72.2037 198.221 72.6439 198.221H76.6271C77.0673 198.221 77.4896 198.396 77.8009 198.707C78.1122 199.019 78.287 199.441 78.287 199.881C78.287 200.321 78.1122 200.743 77.8009 201.055C77.4896 201.366 77.0673 201.541 76.6271 201.541Z" fill="#0055FF"/>
</g>
<g opacity="0.3">
<path opacity="0.3" d="M67.8859 210.282C67.6679 210.282 67.4521 210.239 67.2507 210.156C67.0493 210.072 66.8662 209.95 66.7121 209.796C66.558 209.642 66.4359 209.459 66.3525 209.257C66.2691 209.056 66.226 208.84 66.226 208.622V205.081C66.226 204.641 66.4008 204.219 66.7121 203.907C67.0234 203.596 67.4457 203.421 67.8859 203.421C68.3262 203.421 68.7484 203.596 69.0598 203.907C69.3711 204.219 69.5461 204.641 69.5461 205.081V208.622C69.5461 208.84 69.503 209.056 69.4196 209.257C69.3362 209.459 69.2139 209.642 69.0598 209.796C68.9056 209.95 68.7226 210.072 68.5212 210.156C68.3198 210.239 68.1039 210.282 67.8859 210.282Z" fill="#0055FF"/>
<path opacity="0.3" d="M67.8859 197.004C67.4457 197.004 67.0234 196.829 66.7121 196.518C66.4008 196.207 66.226 195.784 66.226 195.344V191.36C66.226 190.92 66.4008 190.498 66.7121 190.186C67.0234 189.875 67.4457 189.7 67.8859 189.7C68.3262 189.7 68.7484 189.875 69.0598 190.186C69.3711 190.498 69.5461 190.92 69.5461 191.36V195.344C69.5461 195.784 69.3711 196.207 69.0598 196.518C68.7484 196.829 68.3262 197.004 67.8859 197.004Z" fill="#0055FF"/>
</g>
</g>
<g opacity="0.3">
<g opacity="0.3">
<path opacity="0.3" d="M223.13 113.24H219.589C219.368 113.245 219.147 113.207 218.941 113.126C218.735 113.045 218.548 112.923 218.389 112.769C218.231 112.614 218.105 112.429 218.019 112.225C217.933 112.021 217.888 111.802 217.888 111.581C217.888 111.359 217.933 111.14 218.019 110.936C218.105 110.732 218.231 110.547 218.389 110.392C218.548 110.238 218.735 110.116 218.941 110.035C219.147 109.954 219.368 109.916 219.589 109.921H223.13C223.563 109.932 223.975 110.111 224.277 110.421C224.58 110.731 224.749 111.147 224.749 111.581C224.749 112.014 224.58 112.43 224.277 112.74C223.975 113.05 223.563 113.229 223.13 113.24Z" fill="#0055FF"/>
<path opacity="0.3" d="M236.852 113.24H232.868C232.435 113.229 232.023 113.05 231.721 112.74C231.418 112.43 231.249 112.014 231.249 111.581C231.249 111.147 231.418 110.731 231.721 110.421C232.023 110.111 232.435 109.932 232.868 109.921H236.852C237.285 109.932 237.697 110.111 237.999 110.421C238.302 110.731 238.471 111.147 238.471 111.581C238.471 112.014 238.302 112.43 237.999 112.74C237.697 113.05 237.285 113.229 236.852 113.24Z" fill="#0055FF"/>
</g>
<g opacity="0.3">
<path opacity="0.3" d="M228.11 121.982C227.67 121.982 227.247 121.807 226.936 121.496C226.625 121.184 226.45 120.762 226.45 120.322V116.781C226.45 116.341 226.625 115.919 226.936 115.607C227.247 115.296 227.67 115.121 228.11 115.121C228.55 115.121 228.973 115.296 229.284 115.607C229.595 115.919 229.77 116.341 229.77 116.781V120.322C229.77 120.762 229.595 121.184 229.284 121.496C228.973 121.807 228.55 121.982 228.11 121.982Z" fill="#0055FF"/>
<path opacity="0.3" d="M228.11 108.704C227.67 108.704 227.247 108.529 226.936 108.218C226.625 107.907 226.45 107.484 226.45 107.044V103.061C226.45 102.621 226.625 102.199 226.936 101.887C227.247 101.576 227.67 101.401 228.11 101.401C228.55 101.401 228.973 101.576 229.284 101.887C229.595 102.199 229.77 102.621 229.77 103.061V107.044C229.77 107.484 229.595 107.907 229.284 108.218C228.973 108.529 228.55 108.704 228.11 108.704Z" fill="#0055FF"/>
</g>
</g>
<path opacity="0.3" d="M5.38 148.646C4.31589 148.646 3.27561 148.331 2.39074 147.74C1.50587 147.149 0.816162 146.309 0.408809 145.326C0.00145608 144.342 -0.105185 143.261 0.10229 142.217C0.309766 141.173 0.822092 140.215 1.57446 139.462C2.32683 138.71 3.28545 138.197 4.3291 137.989C5.37274 137.782 6.45449 137.888 7.43762 138.295C8.42074 138.703 9.26108 139.392 9.85229 140.277C10.4435 141.162 10.759 142.202 10.759 143.266C10.7577 144.692 10.1906 146.06 9.18212 147.068C8.17368 148.077 6.80629 148.644 5.38 148.646ZM5.38 141.206C4.97257 141.206 4.57436 141.327 4.23559 141.553C3.89683 141.78 3.63272 142.101 3.4768 142.478C3.32089 142.854 3.28013 143.268 3.35961 143.668C3.4391 144.067 3.63524 144.435 3.92334 144.723C4.21143 145.011 4.57854 145.207 4.97814 145.286C5.37775 145.366 5.79191 145.325 6.16833 145.169C6.54475 145.013 6.86654 144.749 7.09289 144.41C7.31925 144.072 7.44006 143.673 7.44006 143.266C7.439 142.72 7.22157 142.197 6.83544 141.811C6.44932 141.425 5.92593 141.208 5.38 141.207V141.206Z" fill="#0055FF"/>
<path opacity="0.3" d="M161.842 205.964C160.778 205.964 159.738 205.649 158.853 205.058C157.968 204.467 157.278 203.627 156.871 202.644C156.463 201.66 156.357 200.579 156.564 199.535C156.772 198.491 157.284 197.533 158.036 196.78C158.789 196.028 159.747 195.515 160.791 195.307C161.835 195.1 162.916 195.206 163.9 195.613C164.883 196.021 165.723 196.71 166.314 197.595C166.905 198.48 167.221 199.52 167.221 200.584C167.219 202.01 166.652 203.377 165.644 204.386C164.635 205.395 163.268 205.962 161.842 205.964ZM161.842 198.524C161.435 198.524 161.036 198.645 160.697 198.871C160.359 199.098 160.095 199.419 159.939 199.796C159.783 200.172 159.742 200.586 159.821 200.986C159.901 201.385 160.097 201.753 160.385 202.041C160.674 202.329 161.041 202.525 161.44 202.604C161.84 202.684 162.254 202.643 162.63 202.487C163.007 202.331 163.329 202.067 163.555 201.728C163.781 201.39 163.902 200.991 163.902 200.584C163.901 200.038 163.684 199.514 163.298 199.128C162.912 198.742 162.388 198.525 161.842 198.524Z" fill="#0055FF"/>
<g opacity="0.3">
<path opacity="0.3" d="M94.182 7.96199C93.785 7.96191 93.4012 7.81955 93.1002 7.56074C92.7991 7.30194 92.6007 6.94384 92.5411 6.55134C92.4815 6.15885 92.5646 5.758 92.7752 5.42146C92.9858 5.08492 93.31 4.83498 93.689 4.71699C111.796 -0.883305 131.075 -1.50951 149.507 2.90401C149.933 3.00859 150.301 3.27773 150.529 3.65257C150.757 4.02741 150.828 4.47743 150.725 4.90419C150.623 5.33095 150.356 5.69973 149.982 5.92982C149.608 6.15992 149.158 6.23257 148.731 6.13197C130.881 1.85833 112.21 2.46451 94.6742 7.88698C94.5149 7.93672 94.3488 7.96202 94.182 7.96199Z" fill="#0055FF"/>
<path opacity="0.3" d="M51.798 33.698C51.4656 33.6981 51.1408 33.5983 50.8657 33.4117C50.5906 33.2251 50.3779 32.9602 50.2551 32.6513C50.1322 32.3424 50.1049 32.0038 50.1767 31.6792C50.2485 31.3547 50.4162 31.0592 50.6579 30.831C52.2989 29.281 54.0129 27.765 55.7499 26.324C56.0899 26.0531 56.5224 25.9263 56.9548 25.9709C57.3871 26.0155 57.7847 26.2279 58.0622 26.5625C58.3397 26.897 58.4748 27.327 58.4387 27.7602C58.4025 28.1933 58.1979 28.595 57.8688 28.8789C56.1858 30.2789 54.527 31.7429 52.937 33.2439C52.6295 33.5356 52.2218 33.6982 51.798 33.698Z" fill="#0055FF"/>
<path opacity="0.3" d="M21.626 106.583C21.1857 106.583 20.7635 106.408 20.4522 106.097C20.1409 105.785 19.966 105.363 19.966 104.923C19.9661 100.485 20.244 96.0506 20.798 91.647C22.4916 78.1319 26.8269 65.0819 33.557 53.24C33.6628 53.0472 33.8059 52.8773 33.9779 52.7403C34.1499 52.6033 34.3474 52.5018 34.559 52.4417C34.7705 52.3817 34.9919 52.3642 35.2102 52.3904C35.4286 52.4167 35.6395 52.486 35.8308 52.5945C36.0222 52.7029 36.1901 52.8483 36.3247 53.0222C36.4594 53.196 36.5581 53.3949 36.6153 53.6073C36.6724 53.8197 36.6868 54.0413 36.6576 54.2592C36.6284 54.4772 36.556 54.6871 36.445 54.877C29.9284 66.3419 25.7307 78.9768 24.091 92.062C23.5542 96.3276 23.2851 100.623 23.2851 104.922C23.2852 105.14 23.2424 105.356 23.1591 105.557C23.0758 105.759 22.9536 105.942 22.7996 106.096C22.6455 106.25 22.4626 106.373 22.2613 106.456C22.0599 106.54 21.844 106.583 21.626 106.583Z" fill="#0055FF"/>
<path opacity="0.3" d="M124.89 209.848C115.576 209.853 106.303 208.622 97.313 206.186C96.9074 206.054 96.5679 205.772 96.365 205.397C96.1621 205.022 96.1116 204.583 96.2234 204.171C96.3353 203.76 96.6012 203.407 96.9661 203.187C97.331 202.966 97.7667 202.894 98.1831 202.986C114 207.26 130.611 207.677 146.622 204.203C147.052 204.109 147.502 204.19 147.873 204.428C148.243 204.666 148.504 205.041 148.598 205.472C148.691 205.902 148.61 206.352 148.373 206.722C148.135 207.092 147.759 207.353 147.329 207.447C139.957 209.047 132.434 209.852 124.89 209.848Z" fill="#0055FF"/>
<path opacity="0.3" d="M175.509 196.611C175.142 196.611 174.786 196.49 174.495 196.266C174.204 196.042 173.996 195.728 173.903 195.373C173.81 195.018 173.837 194.642 173.98 194.304C174.123 193.966 174.374 193.685 174.693 193.505C177.173 192.105 179.627 190.585 181.984 188.981C182.164 188.854 182.368 188.764 182.583 188.716C182.798 188.668 183.021 188.664 183.238 188.703C183.455 188.742 183.662 188.824 183.846 188.944C184.031 189.064 184.19 189.22 184.315 189.402C184.439 189.585 184.525 189.79 184.569 190.006C184.613 190.222 184.613 190.444 184.57 190.661C184.527 190.877 184.441 191.082 184.318 191.265C184.195 191.448 184.037 191.604 183.852 191.725C181.418 193.381 178.885 194.953 176.322 196.397C176.074 196.537 175.794 196.611 175.509 196.611Z" fill="#0055FF"/>
<path opacity="0.3" d="M201.504 175.82C201.183 175.82 200.869 175.727 200.6 175.552C200.33 175.376 200.118 175.127 199.987 174.834C199.857 174.54 199.815 174.215 199.866 173.898C199.916 173.581 200.058 173.285 200.273 173.047C211.608 160.511 219.64 145.347 223.642 128.926C223.689 128.71 223.779 128.506 223.907 128.325C224.034 128.144 224.196 127.991 224.383 127.874C224.571 127.756 224.78 127.678 224.998 127.642C225.216 127.607 225.44 127.616 225.654 127.668C225.869 127.72 226.072 127.814 226.249 127.945C226.427 128.077 226.577 128.242 226.69 128.432C226.803 128.622 226.877 128.833 226.908 129.052C226.938 129.271 226.925 129.493 226.868 129.707C222.736 146.665 214.441 162.326 202.735 175.273C202.58 175.446 202.39 175.583 202.178 175.677C201.966 175.772 201.736 175.82 201.504 175.82Z" fill="#0055FF"/>
<path opacity="0.3" d="M227.116 95.782C226.716 95.7814 226.331 95.6367 226.029 95.3746C225.728 95.1125 225.531 94.7505 225.475 94.355C225.046 91.331 224.475 88.296 223.783 85.335C223.215 82.913 222.551 80.485 221.809 78.12C221.738 77.9105 221.709 77.6887 221.725 77.4679C221.74 77.247 221.8 77.0316 221.9 76.8341C222 76.6367 222.139 76.4613 222.308 76.3183C222.477 76.1752 222.672 76.0674 222.884 76.0012C223.095 75.935 223.317 75.9117 223.538 75.9326C223.758 75.9536 223.972 76.0184 224.167 76.1233C224.362 76.2282 224.534 76.3711 224.673 76.5434C224.812 76.7158 224.915 76.9142 224.976 77.127C225.742 79.57 226.427 82.076 227.014 84.578C227.73 87.635 228.314 90.767 228.762 93.889C228.795 94.1245 228.777 94.3643 228.71 94.5923C228.642 94.8203 228.526 95.0311 228.37 95.2105C228.214 95.39 228.021 95.5338 227.805 95.6324C227.589 95.731 227.354 95.782 227.116 95.782Z" fill="#0055FF"/>
</g>
</g>
</g>
<g opacity="0.8">
<g opacity="0.8">
<g opacity="0.8">
<g opacity="0.8">
<g opacity="0.8">
<path opacity="0.8" d="M133.189 129.603H102.147C101.707 129.603 101.284 129.428 100.973 129.117C100.662 128.805 100.487 128.383 100.487 127.943C100.487 127.503 100.662 127.08 100.973 126.769C101.284 126.458 101.707 126.283 102.147 126.283H133.189C138.561 126.283 142.933 120.483 142.933 113.355C142.933 106.227 138.562 100.427 133.189 100.427H114.86C114.427 100.416 114.015 100.237 113.712 99.9267C113.41 99.6166 113.241 99.2006 113.241 98.7674C113.241 98.3342 113.41 97.9181 113.712 97.608C114.015 97.298 114.427 97.1185 114.86 97.1078H133.189C140.389 97.1078 146.252 104.397 146.252 113.356C146.252 122.315 140.392 129.603 133.189 129.603Z" fill="#0055FF"/>
<path opacity="0.8" d="M133.189 100.428H114.86C114.419 100.428 113.997 100.253 113.686 99.9417C113.375 99.6304 113.2 99.2082 113.2 98.7679C113.2 98.3276 113.375 97.9054 113.686 97.5941C113.997 97.2828 114.419 97.1079 114.86 97.1079H133.189C138.561 97.1079 142.933 91.3079 142.933 84.1799C142.933 77.0519 138.562 71.2519 133.189 71.2519H102.147C101.925 71.2573 101.705 71.2184 101.499 71.1375C101.293 71.0565 101.105 70.9352 100.947 70.7805C100.788 70.6259 100.662 70.4411 100.576 70.2371C100.49 70.033 100.446 69.8138 100.446 69.5924C100.446 69.371 100.49 69.1518 100.576 68.9478C100.662 68.7437 100.788 68.5589 100.947 68.4043C101.105 68.2497 101.293 68.1283 101.499 68.0473C101.705 67.9664 101.925 67.9275 102.147 67.9329H133.189C140.389 67.9329 146.252 75.2219 146.252 84.1799C146.252 93.1379 140.392 100.428 133.189 100.428Z" fill="#0055FF"/>
<path opacity="0.8" d="M116.197 71.2189C115.756 71.2189 115.334 71.044 115.023 70.7327C114.712 70.4214 114.537 69.9992 114.537 69.5589V61.4229C114.537 60.9826 114.712 60.5604 115.023 60.2491C115.334 59.9378 115.756 59.7629 116.197 59.7629C116.637 59.7629 117.059 59.9378 117.37 60.2491C117.682 60.5604 117.857 60.9826 117.857 61.4229V69.5589C117.857 69.9992 117.682 70.4214 117.37 70.7327C117.059 71.044 116.637 71.2189 116.197 71.2189Z" fill="#0055FF"/>
<path opacity="0.8" d="M129.045 71.2189C128.604 71.2189 128.182 71.044 127.871 70.7327C127.559 70.4214 127.385 69.9992 127.385 69.5589V61.4229C127.385 60.9826 127.559 60.5604 127.871 60.2491C128.182 59.9378 128.604 59.7629 129.045 59.7629C129.485 59.7629 129.907 59.9378 130.218 60.2491C130.53 60.5604 130.705 60.9826 130.705 61.4229V69.5589C130.705 69.9992 130.53 70.4214 130.218 70.7327C129.907 71.044 129.485 71.2189 129.045 71.2189Z" fill="#0055FF"/>
<path opacity="0.8" d="M116.197 137.593C115.756 137.593 115.334 137.418 115.023 137.107C114.712 136.795 114.537 136.373 114.537 135.933V128.653C114.537 128.213 114.712 127.79 115.023 127.479C115.334 127.168 115.756 126.993 116.197 126.993C116.637 126.993 117.059 127.168 117.37 127.479C117.682 127.79 117.857 128.213 117.857 128.653V135.933C117.857 136.373 117.682 136.795 117.37 137.107C117.059 137.418 116.637 137.593 116.197 137.593Z" fill="#0055FF"/>
<path opacity="0.8" d="M106.349 129.453C105.908 129.453 105.486 129.278 105.175 128.967C104.864 128.655 104.689 128.233 104.689 127.793V69.5589C104.689 69.1186 104.864 68.6964 105.175 68.3851C105.486 68.0738 105.908 67.8989 106.349 67.8989C106.789 67.8989 107.211 68.0738 107.523 68.3851C107.834 68.6964 108.009 69.1186 108.009 69.5589V127.797C108.008 128.236 107.832 128.658 107.521 128.968C107.21 129.279 106.788 129.453 106.349 129.453Z" fill="#0055FF"/>
<path opacity="0.8" d="M129.045 137.593C128.604 137.593 128.182 137.418 127.871 137.107C127.559 136.795 127.385 136.373 127.385 135.933V128.653C127.385 128.213 127.559 127.79 127.871 127.479C128.182 127.168 128.604 126.993 129.045 126.993C129.485 126.993 129.907 127.168 130.218 127.479C130.53 127.79 130.705 128.213 130.705 128.653V135.933C130.705 136.373 130.53 136.795 130.218 137.107C129.907 137.418 129.485 137.593 129.045 137.593Z" fill="#0055FF"/>
</g>
<path opacity="0.8" d="M127.898 93.2519H114.859C114.418 93.2519 113.996 93.077 113.685 92.7656C113.374 92.4543 113.199 92.0321 113.199 91.5919V77.5169C113.199 77.0766 113.374 76.6543 113.685 76.343C113.996 76.0317 114.418 75.8569 114.859 75.8569H127.898C129.061 75.8239 130.218 76.0244 131.302 76.4466C132.386 76.8688 133.374 77.5041 134.208 78.3149C135.043 79.1257 135.706 80.0955 136.158 81.1671C136.611 82.2386 136.844 83.3901 136.844 84.5534C136.844 85.7166 136.611 86.8681 136.158 87.9396C135.706 89.0111 135.043 89.981 134.208 90.7918C133.374 91.6026 132.386 92.2379 131.302 92.6601C130.218 93.0823 129.061 93.2828 127.898 93.2498V93.2519ZM116.519 89.9318H127.898C128.625 89.9662 129.352 89.8526 130.034 89.5979C130.717 89.3432 131.34 88.9527 131.867 88.45C132.394 87.9473 132.814 87.3429 133.1 86.6734C133.387 86.0039 133.535 85.2832 133.535 84.5549C133.535 83.8266 133.387 83.1058 133.1 82.4363C132.814 81.7668 132.394 81.1624 131.867 80.6597C131.34 80.157 130.717 79.7665 130.034 79.5118C129.352 79.2571 128.625 79.1435 127.898 79.1779H116.519V89.9318Z" fill="#0055FF"/>
<path opacity="0.8" d="M127.898 122.081H114.859C114.418 122.081 113.996 121.906 113.685 121.595C113.374 121.283 113.199 120.861 113.199 120.421V106.348C113.199 105.908 113.374 105.485 113.685 105.174C113.996 104.863 114.418 104.688 114.859 104.688H127.898C129.061 104.655 130.218 104.855 131.302 105.278C132.386 105.7 133.374 106.335 134.208 107.146C135.043 107.957 135.706 108.927 136.158 109.998C136.611 111.07 136.844 112.221 136.844 113.384C136.844 114.548 136.611 115.699 136.158 116.771C135.706 117.842 135.043 118.812 134.208 119.623C133.374 120.434 132.386 121.069 131.302 121.491C130.218 121.913 129.061 122.114 127.898 122.081ZM116.519 118.761H127.898C128.625 118.795 129.352 118.682 130.034 118.427C130.717 118.172 131.34 117.782 131.867 117.279C132.394 116.776 132.814 116.172 133.1 115.502C133.387 114.833 133.535 114.112 133.535 113.384C133.535 112.656 133.387 111.935 133.1 111.265C132.814 110.596 132.394 109.991 131.867 109.489C131.34 108.986 130.717 108.596 130.034 108.341C129.352 108.086 128.625 107.973 127.898 108.007H116.519V118.761Z" fill="#0055FF"/>
</g>
<path opacity="0.8" d="M123.37 154.219C110.52 154.219 98.0685 149.763 88.1358 141.612C78.2031 133.46 71.4042 122.116 68.8975 109.514C66.3908 96.9111 68.3314 83.8293 74.3887 72.4971C80.446 61.1649 90.2451 52.2836 102.116 47.3665C113.988 42.4493 127.197 41.8005 139.493 45.5306C151.789 49.2607 162.412 57.1389 169.55 67.8229C176.689 78.5069 179.902 91.3356 178.643 104.123C177.383 116.911 171.729 128.866 162.643 137.952C157.497 143.125 151.377 147.227 144.636 150.019C137.894 152.811 130.666 154.239 123.37 154.219ZM123.37 46.4579C111.288 46.4568 99.5801 50.6449 90.2403 58.3084C80.9004 65.972 74.5066 76.6369 72.1485 88.486C69.7903 100.335 71.6136 112.635 77.3077 123.291C83.0017 133.946 92.2144 142.298 103.376 146.923C114.537 151.547 126.957 152.159 138.518 148.653C150.08 145.147 160.068 137.741 166.782 127.697C173.495 117.652 176.518 105.59 175.335 93.5669C174.153 81.5434 168.837 70.3019 160.296 61.7579C155.458 56.8926 149.704 53.0352 143.366 50.4089C137.027 47.7826 130.231 46.4397 123.37 46.4579Z" fill="#0055FF"/>
</g>
<path opacity="0.8" d="M26.7487 173.44C26.4289 173.44 26.116 173.347 25.8476 173.173C25.5792 172.999 25.3668 172.752 25.2358 172.46C25.1048 172.168 25.0608 171.845 25.1092 171.529C25.1576 171.212 25.2963 170.917 25.5086 170.678L50.3398 142.743C50.6228 142.425 51.0171 142.228 51.4414 142.192C51.8657 142.156 52.2874 142.285 52.6196 142.551L67.9877 154.875L85.5666 137.028C85.8761 136.717 86.2962 136.541 86.7351 136.539C87.1739 136.537 87.5958 136.708 87.9084 137.016C88.221 137.324 88.3989 137.744 88.4033 138.182C88.4076 138.621 88.238 139.044 87.9316 139.358L69.3007 158.272C69.0123 158.565 68.6256 158.74 68.2153 158.764C67.805 158.788 67.4004 158.659 67.0798 158.402L51.7697 146.13L27.9866 172.886C27.8311 173.06 27.6403 173.2 27.427 173.296C27.2136 173.391 26.9825 173.44 26.7487 173.44Z" fill="#0055FF"/>
<path opacity="0.8" d="M164.431 65.4549C164.106 65.4547 163.788 65.3592 163.517 65.1801C163.246 65.0011 163.033 64.7464 162.905 64.4476C162.777 64.1489 162.74 63.8192 162.798 63.4995C162.856 63.1797 163.006 62.884 163.231 62.6489L180.345 44.7269C180.638 44.4196 181.038 44.2365 181.462 44.2153C181.887 44.1941 182.303 44.3364 182.626 44.6129L196.592 56.5839L233.411 19.7479C233.723 19.4411 234.144 19.2701 234.581 19.2719C235.019 19.2738 235.438 19.4485 235.748 19.7579C236.057 20.0673 236.232 20.4865 236.234 20.9241C236.236 21.3618 236.065 21.7826 235.759 22.0949L197.854 60.0189C197.558 60.3146 197.162 60.4879 196.744 60.504C196.326 60.5202 195.917 60.378 195.6 60.1059L181.66 48.1579L165.632 64.9429C165.477 65.1052 165.29 65.2343 165.084 65.3223C164.877 65.4104 164.655 65.4555 164.431 65.4549Z" fill="#0055FF"/>
<path opacity="0.8" d="M235.191 34.2289C234.75 34.2289 234.328 34.054 234.017 33.7427C233.706 33.4314 233.531 33.0092 233.531 32.5689V22.0249H223.415C222.974 22.0249 222.552 21.85 222.241 21.5387C221.93 21.2274 221.755 20.8052 221.755 20.3649C221.755 19.9247 221.93 19.5024 222.241 19.1911C222.552 18.8798 222.974 18.7049 223.415 18.7049H235.191C235.631 18.7049 236.053 18.8798 236.364 19.1911C236.676 19.5024 236.851 19.9247 236.851 20.3649V32.5649C236.851 32.7832 236.809 32.9996 236.726 33.2014C236.642 33.4033 236.52 33.5867 236.366 33.7413C236.212 33.8958 236.029 34.0185 235.827 34.1022C235.625 34.1858 235.409 34.2289 235.191 34.2289Z" fill="#0055FF"/>
</g>
<g opacity="0.8">
<g opacity="0.8">
<path opacity="0.8" d="M125.578 175.241C116.921 175.266 108.381 173.247 100.652 169.347C93.1884 165.578 86.6623 160.188 81.5518 153.571C81.2876 153.222 81.1721 152.783 81.2303 152.349C81.2884 151.915 81.5158 151.521 81.8626 151.254C82.2094 150.987 82.6477 150.868 83.0821 150.922C83.5164 150.977 83.9118 151.2 84.1819 151.545C88.9867 157.768 95.1225 162.837 102.14 166.382C110.103 170.377 118.955 172.269 127.856 171.878C136.756 171.487 145.408 168.826 152.99 164.148C160.572 159.469 166.831 152.93 171.173 145.15C175.514 137.371 177.794 128.61 177.795 119.701C177.789 119.48 177.828 119.259 177.909 119.053C177.99 118.847 178.112 118.659 178.266 118.501C178.421 118.342 178.606 118.216 178.81 118.13C179.014 118.045 179.233 118 179.454 118C179.676 118 179.895 118.045 180.099 118.13C180.303 118.216 180.488 118.342 180.642 118.501C180.797 118.659 180.918 118.847 180.999 119.053C181.08 119.259 181.119 119.48 181.114 119.701C181.114 126.995 179.677 134.217 176.886 140.955C174.095 147.694 170.004 153.817 164.847 158.974C159.69 164.132 153.567 168.223 146.828 171.014C140.09 173.805 132.867 175.242 125.574 175.242L125.578 175.241Z" fill="#0055FF"/>
</g>
<path opacity="0.8" d="M28.9627 194.464C28.6428 194.464 28.3295 194.371 28.0609 194.197C27.7923 194.023 27.5798 193.775 27.4488 193.484C27.3178 193.192 27.274 192.868 27.3226 192.552C27.3712 192.236 27.5101 191.94 27.7228 191.701L52.5538 163.766C52.8366 163.448 53.2308 163.25 53.6549 163.215C54.079 163.179 54.5006 163.308 54.8326 163.574L70.2018 175.898L87.7806 158.051C88.0901 157.74 88.5103 157.564 88.9491 157.562C89.3879 157.56 89.8098 157.731 90.1224 158.039C90.435 158.347 90.6129 158.766 90.6173 159.205C90.6217 159.644 90.452 160.067 90.1456 160.381L71.5147 179.295C71.2263 179.588 70.8396 179.763 70.4293 179.787C70.019 179.811 69.6144 179.682 69.2938 179.425L53.9837 167.154L30.2008 193.91C30.0452 194.084 29.8543 194.224 29.641 194.319C29.4276 194.415 29.1965 194.464 28.9627 194.464Z" fill="#0055FF"/>
<path opacity="0.8" d="M198.892 81.5269C198.495 81.5271 198.112 81.3852 197.812 81.1269L183.879 69.184L174.879 78.7119C174.73 78.8732 174.55 79.0034 174.35 79.0948C174.151 79.1863 173.935 79.2372 173.716 79.2447C173.496 79.2522 173.278 79.216 173.072 79.1384C172.867 79.0607 172.679 78.943 172.519 78.7922C172.36 78.6414 172.231 78.4605 172.142 78.2598C172.053 78.0592 172.005 77.8428 172 77.6232C171.995 77.4037 172.033 77.1854 172.113 76.9809C172.193 76.7764 172.313 76.5898 172.466 76.4319L182.555 65.7539C182.847 65.444 183.248 65.2587 183.674 65.2364C184.1 65.214 184.518 65.3564 184.842 65.6339L198.809 77.6049L227.329 49.0679C227.481 48.908 227.665 48.7802 227.867 48.6921C228.07 48.6039 228.289 48.5572 228.51 48.5546C228.731 48.552 228.95 48.5937 229.155 48.6771C229.36 48.7604 229.546 48.8839 229.702 49.0402C229.859 49.1965 229.982 49.3825 230.066 49.5872C230.15 49.792 230.191 50.0113 230.189 50.2325C230.187 50.4536 230.14 50.672 230.052 50.8749C229.964 51.0778 229.836 51.2611 229.677 51.4139L200.071 81.0389C199.916 81.1942 199.733 81.3173 199.53 81.4011C199.328 81.4849 199.111 81.5276 198.892 81.5269Z" fill="#0055FF"/>
<path opacity="0.8" d="M229.105 63.5509C228.665 63.5506 228.243 63.3757 227.932 63.0644C227.62 62.7531 227.446 62.331 227.446 61.8909V51.3469H217.33C216.889 51.3469 216.467 51.172 216.156 50.8607C215.845 50.5494 215.67 50.1272 215.67 49.687C215.67 49.2467 215.845 48.8244 216.156 48.5131C216.467 48.2018 216.889 48.0269 217.33 48.0269H229.106C229.546 48.0269 229.968 48.2018 230.279 48.5131C230.591 48.8244 230.766 49.2467 230.766 49.687V61.8869C230.766 62.1053 230.724 62.3217 230.641 62.5236C230.557 62.7255 230.435 62.9091 230.281 63.0637C230.126 63.2182 229.943 63.3409 229.741 63.4245C229.539 63.5081 229.323 63.551 229.105 63.5509Z" fill="#0055FF"/>
</g>
<path opacity="0.3" d="M26.9127 156.863C26.4725 156.863 26.0502 156.688 25.7389 156.377C25.4276 156.065 25.2527 155.643 25.2527 155.203V118.38C25.2527 118.162 25.2956 117.946 25.379 117.745C25.4625 117.543 25.5847 117.36 25.7389 117.206C25.893 117.052 26.0761 116.93 26.2775 116.846C26.4789 116.763 26.6947 116.72 26.9127 116.72C27.1307 116.72 27.3466 116.763 27.548 116.846C27.7494 116.93 27.9324 117.052 28.0865 117.206C28.2407 117.36 28.363 117.543 28.4464 117.745C28.5298 117.946 28.5728 118.162 28.5728 118.38V155.207C28.5717 155.646 28.3963 156.068 28.0851 156.378C27.7739 156.689 27.3523 156.863 26.9127 156.863Z" fill="#0055FF"/>
<path opacity="0.3" d="M39.3308 144.87C38.8906 144.87 38.4683 144.695 38.157 144.384C37.8457 144.072 37.6707 143.65 37.6707 143.21V106.386C37.6707 105.946 37.8457 105.523 38.157 105.212C38.4683 104.901 38.8906 104.726 39.3308 104.726C39.7711 104.726 40.1931 104.901 40.5044 105.212C40.8157 105.523 40.9908 105.946 40.9908 106.386V143.213C40.99 143.653 40.8147 144.074 40.5034 144.385C40.1922 144.695 39.7706 144.87 39.3308 144.87Z" fill="#0055FF"/>
<path opacity="0.3" d="M51.3218 133.311C50.8815 133.311 50.4593 133.136 50.1479 132.825C49.8366 132.513 49.6616 132.091 49.6616 131.651V94.8239C49.6616 94.3837 49.8366 93.9615 50.1479 93.6501C50.4593 93.3388 50.8815 93.1639 51.3218 93.1639C51.762 93.1639 52.1843 93.3388 52.4956 93.6501C52.8069 93.9615 52.9817 94.3837 52.9817 94.8239V131.653C52.9812 132.093 52.8061 132.515 52.4949 132.825C52.1836 133.136 51.7617 133.311 51.3218 133.311Z" fill="#0055FF"/>
<path opacity="0.3" d="M163.944 49.379C163.726 49.3791 163.51 49.3362 163.308 49.2529C163.107 49.1695 162.924 49.0472 162.77 48.893C162.616 48.7388 162.493 48.5558 162.41 48.3544C162.326 48.1529 162.284 47.937 162.284 47.7189V24.595C162.278 24.3736 162.317 24.1534 162.398 23.9473C162.479 23.7412 162.6 23.5534 162.755 23.3949C162.91 23.2364 163.094 23.1105 163.299 23.0245C163.503 22.9385 163.722 22.8942 163.943 22.8942C164.165 22.8942 164.384 22.9385 164.588 23.0245C164.792 23.1105 164.977 23.2364 165.131 23.3949C165.286 23.5534 165.407 23.7412 165.488 23.9473C165.569 24.1534 165.608 24.3736 165.603 24.595V47.7189C165.603 48.159 165.428 48.5811 165.117 48.8924C164.806 49.2037 164.384 49.3787 163.944 49.379Z" fill="#0055FF"/>
<path opacity="0.3" d="M151.098 42.0989C150.658 42.0989 150.235 41.924 149.924 41.6127C149.613 41.3014 149.438 40.8792 149.438 40.4389V29.7339C149.438 29.2936 149.613 28.8714 149.924 28.5601C150.235 28.2488 150.658 28.0739 151.098 28.0739C151.538 28.0739 151.96 28.2488 152.272 28.5601C152.583 28.8714 152.758 29.2936 152.758 29.7339V40.4399C152.757 40.88 152.582 41.3019 152.271 41.613C151.96 41.9241 151.538 42.0989 151.098 42.0989Z" fill="#0055FF"/>
<path opacity="0.3" d="M175.939 39.1019C175.498 39.1019 175.076 38.927 174.765 38.6157C174.454 38.3044 174.279 37.8822 174.279 37.442V11.749C174.279 11.3087 174.454 10.8864 174.765 10.5751C175.076 10.2638 175.498 10.0889 175.939 10.0889C176.379 10.0889 176.801 10.2638 177.112 10.5751C177.424 10.8864 177.599 11.3087 177.599 11.749V37.442C177.599 37.66 177.556 37.8758 177.472 38.0772C177.389 38.2786 177.267 38.4616 177.112 38.6157C176.958 38.7699 176.775 38.8922 176.574 38.9756C176.372 39.059 176.157 39.1019 175.939 39.1019Z" fill="#0055FF"/>
<path opacity="0.3" d="M187.925 39.1019C187.484 39.1019 187.062 38.927 186.751 38.6157C186.44 38.3044 186.265 37.8822 186.265 37.442V4.46893C186.265 4.02867 186.44 3.60648 186.751 3.29517C187.062 2.98386 187.484 2.80896 187.925 2.80896C188.365 2.80896 188.787 2.98386 189.099 3.29517C189.41 3.60648 189.585 4.02867 189.585 4.46893V37.442C189.585 37.8822 189.41 38.3044 189.099 38.6157C188.787 38.927 188.365 39.1019 187.925 39.1019Z" fill="#0055FF"/>
<path opacity="0.3" d="M199.915 42.0989C199.474 42.0989 199.052 41.924 198.741 41.6127C198.43 41.3014 198.255 40.8792 198.255 40.4389V19.4569C198.255 19.0166 198.43 18.5945 198.741 18.2831C199.052 17.9718 199.474 17.7969 199.915 17.7969C200.355 17.7969 200.777 17.9718 201.088 18.2831C201.4 18.5945 201.575 19.0166 201.575 19.4569V40.4399C201.575 40.88 201.399 41.302 201.088 41.6131C200.777 41.9242 200.355 42.0989 199.915 42.0989Z" fill="#0055FF"/>
<path opacity="0.3" d="M63.7397 138.449C63.2995 138.449 62.8772 138.274 62.5659 137.963C62.2546 137.651 62.0798 137.229 62.0798 136.789V118.38C62.0798 117.94 62.2546 117.517 62.5659 117.206C62.8772 116.895 63.2995 116.72 63.7397 116.72C64.18 116.72 64.6023 116.895 64.9136 117.206C65.2249 117.517 65.3997 117.94 65.3997 118.38V136.793C65.3986 137.233 65.2233 137.654 64.9121 137.964C64.6009 138.275 64.1793 138.449 63.7397 138.449Z" fill="#0055FF"/>
</g>
</g>
</g>
<defs>
<clipPath id="clip0_12_67">
<rect width="238.511" height="210.283" fill="white"/>
</clipPath>
</defs>
</svg>
