<svg width="212" height="209" viewBox="0 0 212 209" fill="none" xmlns="http://www.w3.org/2000/svg">
<g clip-path="url(#clip0_15_137)">
<g opacity="0.8">
<g opacity="0.8">
<g opacity="0.3">
<g opacity="0.3">
<path opacity="0.3" d="M5.08102 142.172H1.62103C1.19085 142.172 0.778275 142.001 0.474091 141.697C0.169907 141.393 -0.000976562 140.98 -0.000976562 140.55C-0.000976562 140.12 0.169907 139.707 0.474091 139.403C0.778275 139.099 1.19085 138.928 1.62103 138.928H5.08102C5.51121 138.928 5.92378 139.099 6.22797 139.403C6.53215 139.707 6.70303 140.12 6.70303 140.55C6.70303 140.98 6.53215 141.393 6.22797 141.697C5.92378 142.001 5.51121 142.172 5.08102 142.172Z" fill="#0055FF"/>
<path opacity="0.3" d="M18.488 142.172H14.596C14.1658 142.172 13.7533 142.001 13.4491 141.697C13.1449 141.393 12.974 140.98 12.974 140.55C12.974 140.12 13.1449 139.707 13.4491 139.403C13.7533 139.099 14.1658 138.928 14.596 138.928H18.488C18.9182 138.928 19.3307 139.099 19.6349 139.403C19.9391 139.707 20.11 140.12 20.11 140.55C20.11 140.98 19.9391 141.393 19.6349 141.697C19.3307 142.001 18.9182 142.172 18.488 142.172Z" fill="#0055FF"/>
</g>
<g opacity="0.3">
<path opacity="0.3" d="M9.94708 150.712C9.5169 150.712 9.10432 150.541 8.80014 150.237C8.49596 149.933 8.32507 149.52 8.32507 149.09V145.63C8.33558 145.207 8.51102 144.805 8.81396 144.509C9.11691 144.214 9.52336 144.048 9.94656 144.048C10.3698 144.048 10.7762 144.214 11.0792 144.509C11.3821 144.805 11.5576 145.207 11.5681 145.63V149.09C11.5681 149.52 11.3973 149.933 11.0934 150.237C10.7894 150.541 10.3771 150.712 9.94708 150.712Z" fill="#0055FF"/>
<path opacity="0.3" d="M9.94708 137.738C9.5169 137.738 9.10432 137.567 8.80014 137.263C8.49596 136.959 8.32507 136.546 8.32507 136.116V132.224C8.33558 131.801 8.51102 131.399 8.81396 131.103C9.11691 130.808 9.52336 130.642 9.94656 130.642C10.3698 130.642 10.7762 130.808 11.0792 131.103C11.3821 131.399 11.5576 131.801 11.5681 132.224V136.116C11.5681 136.546 11.3973 136.958 11.0934 137.263C10.7894 137.567 10.3771 137.738 9.94708 137.738Z" fill="#0055FF"/>
</g>
</g>
<g opacity="0.3">
<g opacity="0.3">
<path opacity="0.3" d="M187.579 191.471H184.12C183.904 191.476 183.688 191.438 183.487 191.359C183.286 191.28 183.102 191.162 182.947 191.011C182.792 190.859 182.669 190.679 182.585 190.48C182.501 190.28 182.458 190.066 182.458 189.849C182.458 189.633 182.501 189.419 182.585 189.219C182.669 189.02 182.792 188.839 182.947 188.688C183.102 188.537 183.286 188.419 183.487 188.34C183.688 188.261 183.904 188.223 184.12 188.228H187.579C187.795 188.223 188.011 188.261 188.212 188.34C188.413 188.419 188.597 188.537 188.752 188.688C188.907 188.839 189.03 189.02 189.114 189.219C189.198 189.419 189.241 189.633 189.241 189.849C189.241 190.066 189.198 190.28 189.114 190.48C189.03 190.679 188.907 190.859 188.752 191.011C188.597 191.162 188.413 191.28 188.212 191.359C188.011 191.438 187.795 191.476 187.579 191.471Z" fill="#0055FF"/>
<path opacity="0.3" d="M200.986 191.471H197.094C196.878 191.476 196.662 191.438 196.461 191.359C196.26 191.28 196.076 191.162 195.921 191.011C195.766 190.859 195.643 190.679 195.559 190.48C195.475 190.28 195.432 190.066 195.432 189.849C195.432 189.633 195.475 189.419 195.559 189.219C195.643 189.02 195.766 188.839 195.921 188.688C196.076 188.537 196.26 188.419 196.461 188.34C196.662 188.261 196.878 188.223 197.094 188.228H200.986C201.202 188.223 201.418 188.261 201.619 188.34C201.82 188.419 202.004 188.537 202.159 188.688C202.314 188.839 202.437 189.02 202.521 189.219C202.605 189.419 202.648 189.633 202.648 189.849C202.648 190.066 202.605 190.28 202.521 190.48C202.437 190.679 202.314 190.859 202.159 191.011C202.004 191.162 201.82 191.28 201.619 191.359C201.418 191.438 201.202 191.476 200.986 191.471Z" fill="#0055FF"/>
</g>
<g opacity="0.3">
<path opacity="0.3" d="M192.445 200.012C192.015 200.012 191.602 199.841 191.298 199.537C190.994 199.233 190.823 198.82 190.823 198.39V194.93C190.818 194.714 190.856 194.498 190.935 194.297C191.014 194.096 191.132 193.912 191.283 193.757C191.435 193.602 191.615 193.479 191.814 193.395C192.014 193.311 192.228 193.268 192.444 193.268C192.661 193.268 192.875 193.311 193.074 193.395C193.274 193.479 193.455 193.602 193.606 193.757C193.757 193.912 193.875 194.096 193.954 194.297C194.033 194.498 194.071 194.714 194.066 194.93V198.39C194.066 198.82 193.895 199.232 193.591 199.537C193.287 199.841 192.875 200.012 192.445 200.012Z" fill="#0055FF"/>
<path opacity="0.3" d="M192.445 187.039C192.015 187.039 191.602 186.868 191.298 186.564C190.994 186.26 190.823 185.847 190.823 185.417V181.525C190.818 181.309 190.856 181.093 190.935 180.892C191.014 180.691 191.132 180.507 191.283 180.352C191.435 180.197 191.615 180.074 191.814 179.99C192.014 179.906 192.228 179.863 192.444 179.863C192.661 179.863 192.875 179.906 193.074 179.99C193.274 180.074 193.455 180.197 193.606 180.352C193.757 180.507 193.875 180.691 193.954 180.892C194.033 181.093 194.071 181.309 194.066 181.525V185.417C194.066 185.847 193.895 186.259 193.591 186.564C193.287 186.868 192.875 187.039 192.445 187.039Z" fill="#0055FF"/>
</g>
</g>
<g opacity="0.3">
<g opacity="0.3">
<path opacity="0.3" d="M192.336 11.5681H188.876C188.453 11.5575 188.051 11.3821 187.755 11.0792C187.46 10.7762 187.294 10.3697 187.294 9.94653C187.294 9.52333 187.46 9.11691 187.755 8.81396C188.051 8.51102 188.453 8.33552 188.876 8.32501H192.336C192.759 8.33552 193.161 8.51102 193.457 8.81396C193.752 9.11691 193.918 9.52333 193.918 9.94653C193.918 10.3697 193.752 10.7762 193.457 11.0792C193.161 11.3821 192.759 11.5575 192.336 11.5681Z" fill="#0055FF"/>
<path opacity="0.3" d="M205.743 11.5681H201.851C201.428 11.5575 201.026 11.3821 200.73 11.0792C200.435 10.7762 200.269 10.3697 200.269 9.94653C200.269 9.52333 200.435 9.11691 200.73 8.81396C201.026 8.51102 201.428 8.33552 201.851 8.32501H205.743C206.166 8.33552 206.568 8.51102 206.864 8.81396C207.159 9.11691 207.325 9.52333 207.325 9.94653C207.325 10.3697 207.159 10.7762 206.864 11.0792C206.568 11.3821 206.166 11.5575 205.743 11.5681Z" fill="#0055FF"/>
</g>
<g opacity="0.3">
<path opacity="0.3" d="M197.202 20.109C196.772 20.109 196.359 19.9382 196.055 19.634C195.751 19.3298 195.58 18.9172 195.58 18.4871V15.027C195.59 14.604 195.766 14.2018 196.069 13.9062C196.372 13.6107 196.778 13.4453 197.201 13.4453C197.625 13.4453 198.031 13.6107 198.334 13.9062C198.637 14.2018 198.812 14.604 198.823 15.027V18.4871C198.823 18.9171 198.652 19.3295 198.348 19.6336C198.044 19.9378 197.632 20.1087 197.202 20.109Z" fill="#0055FF"/>
<path opacity="0.3" d="M197.202 7.13605C196.772 7.13605 196.359 6.96513 196.055 6.66095C195.751 6.35677 195.58 5.94422 195.58 5.51404V1.62201C195.59 1.19893 195.766 0.796735 196.069 0.501221C196.372 0.205706 196.778 0.0402832 197.201 0.0402832C197.625 0.0402832 198.031 0.205706 198.334 0.501221C198.637 0.796735 198.812 1.19893 198.823 1.62201V5.51404C198.823 5.94405 198.652 6.35643 198.348 6.66058C198.044 6.96474 197.632 7.13578 197.202 7.13605Z" fill="#0055FF"/>
</g>
</g>
<path opacity="0.3" d="M29.092 179.576C28.0524 179.576 27.0362 179.268 26.1718 178.69C25.3075 178.113 24.6339 177.292 24.2361 176.331C23.8382 175.371 23.7341 174.314 23.9369 173.295C24.1397 172.275 24.6403 171.338 25.3754 170.603C26.1105 169.868 27.047 169.368 28.0666 169.165C29.0861 168.962 30.143 169.066 31.1034 169.464C32.0638 169.862 32.8846 170.536 33.4621 171.4C34.0397 172.264 34.3479 173.28 34.3479 174.32C34.3463 175.713 33.7921 177.049 32.8067 178.035C31.8214 179.02 30.4854 179.574 29.092 179.576ZM29.092 172.307C28.6938 172.307 28.3046 172.425 27.9736 172.646C27.6426 172.867 27.3846 173.182 27.2322 173.55C27.0799 173.918 27.04 174.322 27.1176 174.713C27.1953 175.103 27.387 175.462 27.6686 175.743C27.9501 176.025 28.3088 176.217 28.6993 176.294C29.0897 176.372 29.4944 176.332 29.8623 176.18C30.2301 176.027 30.5445 175.769 30.7657 175.438C30.9869 175.107 31.105 174.718 31.105 174.32C31.1047 173.786 30.8925 173.274 30.5151 172.897C30.1377 172.519 29.6258 172.307 29.092 172.306V172.307Z" fill="#0055FF"/>
<g opacity="0.3">
<path opacity="0.3" d="M77.372 11.6291C76.984 11.629 76.6089 11.4899 76.3147 11.237C76.0205 10.984 75.8267 10.6339 75.7685 10.2503C75.7103 9.86671 75.7916 9.47492 75.9975 9.14608C76.2035 8.81725 76.5205 8.57319 76.891 8.45809C94.5821 2.98662 113.419 2.37486 131.428 6.68704C131.637 6.73488 131.835 6.82376 132.009 6.94845C132.184 7.07314 132.332 7.23118 132.445 7.41348C132.558 7.59578 132.634 7.79869 132.668 8.01046C132.702 8.22223 132.693 8.43869 132.643 8.64724C132.593 8.8558 132.502 9.05233 132.376 9.22549C132.249 9.39864 132.089 9.54494 131.906 9.65597C131.722 9.767 131.519 9.84057 131.306 9.87234C131.094 9.90411 130.878 9.89349 130.67 9.84109C113.229 5.66563 94.9863 6.25795 77.853 11.5561C77.6973 11.6045 77.5351 11.6291 77.372 11.6291Z" fill="#0055FF"/>
<path opacity="0.3" d="M38.1231 34.613C37.7986 34.6128 37.4816 34.5153 37.2131 34.3331C36.9446 34.1508 36.7369 33.8922 36.6169 33.5906C36.497 33.2891 36.4703 32.9586 36.5402 32.6417C36.6101 32.3248 36.7734 32.0361 37.0091 31.813C38.6091 30.298 40.2871 28.813 41.9841 27.413C42.1482 27.2771 42.3375 27.1749 42.5412 27.1121C42.7449 27.0494 42.9589 27.0273 43.1711 27.0473C43.3833 27.0673 43.5894 27.1288 43.7778 27.2284C43.9662 27.3281 44.1332 27.4639 44.2691 27.628C44.405 27.7922 44.5073 27.9815 44.57 28.1852C44.6328 28.3888 44.6548 28.6029 44.6348 28.8151C44.6149 29.0272 44.5533 29.2334 44.4537 29.4218C44.354 29.6102 44.2182 29.7771 44.0541 29.913C42.4101 31.276 40.7881 32.713 39.2351 34.178C38.9335 34.4596 38.5357 34.6152 38.1231 34.613Z" fill="#0055FF"/>
<path opacity="0.3" d="M7.28611 120.82C6.89162 120.82 6.51083 120.675 6.21503 120.414C5.91924 120.153 5.7287 119.793 5.67908 119.402C4.58687 110.767 4.58418 102.03 5.67109 93.3941C7.32588 80.1889 11.562 67.4382 18.1381 55.8681C18.2404 55.6777 18.3797 55.5097 18.5479 55.3739C18.716 55.2381 18.9096 55.1373 19.1173 55.0774C19.3249 55.0175 19.5424 54.9997 19.7571 55.025C19.9717 55.0504 20.1791 55.1183 20.3671 55.2249C20.5551 55.3316 20.7199 55.4747 20.8518 55.6459C20.9837 55.8171 21.08 56.013 21.1352 56.2219C21.1903 56.4309 21.2032 56.6488 21.1729 56.8628C21.1427 57.0768 21.07 57.2826 20.9591 57.4681C14.5933 68.6707 10.4931 81.016 8.89209 93.801C7.8369 102.166 7.8369 110.63 8.89209 118.994C8.92074 119.223 8.90044 119.455 8.83259 119.675C8.76473 119.895 8.65086 120.098 8.49851 120.27C8.34616 120.443 8.15881 120.581 7.94892 120.676C7.73903 120.771 7.51139 120.82 7.2811 120.82H7.28611Z" fill="#0055FF"/>
<path opacity="0.3" d="M56.9812 195.418C56.6967 195.418 56.4173 195.343 56.1712 195.2C52.2219 192.917 48.4286 190.375 44.8162 187.589C44.6426 187.461 44.4963 187.299 44.3859 187.114C44.2756 186.928 44.2034 186.722 44.1735 186.509C44.1437 186.295 44.1568 186.077 44.2121 185.869C44.2674 185.66 44.3639 185.465 44.4957 185.294C44.6275 185.123 44.7921 184.98 44.9799 184.873C45.1676 184.767 45.3748 184.699 45.5891 184.674C45.8035 184.648 46.0207 184.666 46.2282 184.726C46.4356 184.785 46.629 184.886 46.7971 185.021C50.2966 187.718 53.9714 190.181 57.7971 192.391C58.1062 192.57 58.3476 192.846 58.484 193.175C58.6203 193.505 58.644 193.871 58.5514 194.216C58.4588 194.561 58.255 194.865 57.9716 195.082C57.6883 195.3 57.3412 195.417 56.9842 195.417L56.9812 195.418Z" fill="#0055FF"/>
<path opacity="0.3" d="M107.376 208.885C98.276 208.89 89.2154 207.687 80.4321 205.307C80.0246 205.188 79.6802 204.913 79.4728 204.543C79.2654 204.172 79.2115 203.735 79.3228 203.325C79.4341 202.916 79.7016 202.566 80.0679 202.351C80.4343 202.136 80.8701 202.074 81.282 202.177C96.7363 206.353 112.967 206.76 128.611 203.366C129.027 203.285 129.459 203.37 129.813 203.603C130.168 203.836 130.417 204.198 130.507 204.613C130.597 205.027 130.521 205.461 130.296 205.82C130.071 206.179 129.713 206.436 129.301 206.535C122.098 208.099 114.747 208.887 107.376 208.885Z" fill="#0055FF"/>
<path opacity="0.3" d="M156.834 195.952C156.475 195.953 156.126 195.835 155.842 195.616C155.557 195.397 155.354 195.09 155.262 194.744C155.171 194.397 155.197 194.029 155.336 193.699C155.476 193.368 155.721 193.093 156.034 192.917C158.458 191.551 160.855 190.064 163.158 188.496C163.514 188.254 163.951 188.163 164.374 188.244C164.796 188.324 165.169 188.569 165.412 188.925C165.654 189.28 165.744 189.718 165.664 190.14C165.584 190.563 165.339 190.936 164.983 191.178C162.605 192.796 160.13 194.332 157.626 195.743C157.384 195.88 157.112 195.952 156.834 195.952Z" fill="#0055FF"/>
<path opacity="0.3" d="M182.233 175.638C181.92 175.637 181.613 175.546 181.351 175.375C181.088 175.203 180.881 174.96 180.754 174.673C180.627 174.386 180.586 174.069 180.635 173.76C180.685 173.45 180.823 173.162 181.033 172.929C192.108 160.68 199.955 145.864 203.866 129.82C203.976 129.411 204.241 129.061 204.605 128.845C204.969 128.629 205.403 128.564 205.814 128.664C206.226 128.763 206.582 129.02 206.807 129.378C207.032 129.737 207.108 130.169 207.018 130.583C202.98 147.152 194.876 162.454 183.439 175.104C183.287 175.273 183.101 175.408 182.893 175.5C182.685 175.592 182.46 175.639 182.233 175.638Z" fill="#0055FF"/>
<path opacity="0.3" d="M208.272 107.988C208.059 107.988 207.848 107.946 207.651 107.865C207.454 107.783 207.276 107.664 207.125 107.513C206.974 107.363 206.855 107.184 206.773 106.987C206.692 106.79 206.65 106.579 206.65 106.366C206.65 103.38 206.516 100.366 206.25 97.408C206.034 94.989 205.725 92.549 205.332 90.157C205.275 89.7384 205.384 89.3141 205.635 88.9743C205.886 88.6346 206.26 88.4062 206.677 88.3378C207.094 88.2694 207.521 88.3664 207.867 88.6081C208.214 88.8498 208.452 89.2171 208.532 89.632C208.938 92.102 209.257 94.622 209.48 97.12C209.753 100.173 209.892 103.284 209.892 106.367C209.892 106.797 209.721 107.209 209.417 107.513C209.114 107.817 208.702 107.987 208.272 107.988Z" fill="#0055FF"/>
</g>
</g>
<g opacity="0.8">
<g opacity="0.8">
<path opacity="0.8" d="M180.333 157.622L37.9879 157.6C36.1527 157.598 34.3933 156.868 33.0956 155.57C31.798 154.273 31.068 152.513 31.0659 150.678V142.478C31.0764 142.055 31.2519 141.653 31.5548 141.357C31.8578 141.062 32.2642 140.896 32.6874 140.896C33.1106 140.896 33.5171 141.062 33.82 141.357C34.123 141.653 34.2984 142.055 34.3089 142.478V150.678C34.3102 151.653 34.6982 152.588 35.3876 153.277C36.0771 153.967 37.0118 154.355 37.9869 154.356L180.332 154.378C181.307 154.377 182.242 153.989 182.932 153.299C183.621 152.609 184.009 151.674 184.01 150.699V118.543C184.02 118.12 184.196 117.718 184.499 117.422C184.802 117.127 185.208 116.961 185.631 116.961C186.055 116.961 186.461 117.127 186.764 117.422C187.067 117.718 187.242 118.12 187.253 118.543V150.699C187.251 152.534 186.522 154.293 185.224 155.591C183.927 156.889 182.168 157.619 180.333 157.622Z" fill="#0055FF"/>
<path opacity="0.8" d="M32.692 74.26C32.2618 74.26 31.8492 74.0892 31.545 73.785C31.2409 73.4808 31.0699 73.0682 31.0699 72.638V57.716C31.0721 55.8808 31.8021 54.1215 33.0997 52.8238C34.3974 51.5261 36.1568 50.7961 37.9919 50.794L116.336 50.816C116.759 50.8265 117.161 51.002 117.457 51.3049C117.752 51.6079 117.918 52.0143 117.918 52.4375C117.918 52.8607 117.752 53.2672 117.457 53.5701C117.161 53.8731 116.759 54.0485 116.336 54.059L37.993 54.037C37.0177 54.0381 36.0826 54.426 35.3931 55.1158C34.7035 55.8055 34.3157 56.7407 34.3149 57.716V72.638C34.3149 72.8511 34.273 73.0621 34.1914 73.259C34.1098 73.4558 33.9903 73.6346 33.8395 73.7853C33.6888 73.9359 33.5099 74.0554 33.313 74.1368C33.1161 74.2183 32.905 74.2601 32.692 74.26Z" fill="#0055FF"/>
<path opacity="0.8" d="M32.692 117.422C32.2618 117.422 31.8492 117.251 31.545 116.947C31.2409 116.643 31.0699 116.23 31.0699 115.8V99.122C31.0805 98.6989 31.2559 98.2967 31.5588 98.0012C31.8618 97.7057 32.2683 97.5403 32.6915 97.5403C33.1147 97.5403 33.5212 97.7057 33.8241 98.0012C34.127 98.2967 34.3025 98.6989 34.313 99.122V115.805C34.3117 116.234 34.1403 116.645 33.8365 116.948C33.5327 117.251 33.1211 117.422 32.692 117.422Z" fill="#0055FF"/>
<g opacity="0.8">
<path opacity="0.8" d="M38.334 94.0731H27.207C26.7768 94.0731 26.3642 93.9021 26.0601 93.598C25.7559 93.2938 25.585 92.8812 25.585 92.451V73.806C25.585 73.3758 25.7559 72.9633 26.0601 72.6591C26.3642 72.3549 26.7768 72.184 27.207 72.184H38.334C38.7642 72.184 39.1767 72.3549 39.4809 72.6591C39.7851 72.9633 39.956 73.3758 39.956 73.806V92.451C39.956 92.8812 39.7851 93.2938 39.4809 93.598C39.1767 93.9021 38.7642 94.0731 38.334 94.0731ZM28.829 90.83H36.712V75.4301H28.829V90.83Z" fill="#0055FF"/>
<path opacity="0.8" d="M38.334 136.776H27.207C26.7768 136.776 26.3642 136.605 26.0601 136.301C25.7559 135.997 25.585 135.584 25.585 135.154V116.509C25.585 116.079 25.7559 115.666 26.0601 115.362C26.3642 115.058 26.7768 114.887 27.207 114.887H38.334C38.7642 114.887 39.1767 115.058 39.4809 115.362C39.7851 115.666 39.956 116.079 39.956 116.509V135.154C39.956 135.584 39.7851 135.997 39.4809 136.301C39.1767 136.605 38.7642 136.776 38.334 136.776ZM28.829 133.532H36.712V118.132H28.829V133.532Z" fill="#0055FF"/>
</g>
<path opacity="0.8" d="M56.117 163.362H42.533C42.2481 163.362 41.9682 163.287 41.7216 163.144C41.475 163.002 41.2702 162.797 41.128 162.55L38.395 157.807C38.1927 157.435 38.1437 156.999 38.2587 156.591C38.3736 156.184 38.6432 155.838 39.01 155.626C39.3768 155.415 39.8117 155.355 40.2218 155.46C40.6319 155.565 40.9848 155.826 41.205 156.188L43.47 160.119H55.185L57.45 156.188C57.6702 155.826 58.023 155.565 58.4332 155.46C58.8433 155.355 59.2781 155.415 59.6449 155.626C60.0117 155.838 60.2814 156.184 60.3963 156.591C60.5112 156.999 60.4623 157.435 60.26 157.807L57.527 162.55C57.3843 162.797 57.1787 163.003 56.9311 163.145C56.6835 163.288 56.4027 163.363 56.117 163.362Z" fill="#0055FF"/>
<path opacity="0.8" d="M176.874 163.384H163.285C163 163.384 162.72 163.309 162.474 163.166C162.227 163.024 162.022 162.819 161.88 162.572L159.147 157.829C159.036 157.644 158.963 157.439 158.933 157.226C158.902 157.013 158.914 156.796 158.968 156.588C159.022 156.379 159.117 156.184 159.248 156.012C159.378 155.841 159.542 155.697 159.728 155.59C159.915 155.482 160.121 155.413 160.334 155.386C160.548 155.359 160.765 155.375 160.972 155.432C161.18 155.49 161.374 155.588 161.543 155.722C161.712 155.855 161.853 156.021 161.957 156.209L164.222 160.14H175.937L178.202 156.209C178.306 156.021 178.447 155.855 178.616 155.722C178.785 155.588 178.979 155.49 179.187 155.432C179.394 155.375 179.611 155.359 179.825 155.386C180.038 155.413 180.244 155.482 180.431 155.59C180.618 155.697 180.781 155.841 180.911 156.012C181.042 156.184 181.137 156.379 181.191 156.588C181.245 156.796 181.257 157.013 181.226 157.226C181.196 157.439 181.123 157.644 181.012 157.829L178.279 162.572C178.137 162.819 177.932 163.024 177.685 163.166C177.439 163.309 177.159 163.384 176.874 163.384Z" fill="#0055FF"/>
</g>
<path opacity="0.8" d="M85.6371 134.864C79.3589 134.864 73.2217 133.002 68.0016 129.514C62.7814 126.026 58.7129 121.069 56.3103 115.269C53.9078 109.468 53.2792 103.086 54.504 96.9283C55.7288 90.7708 58.752 85.1147 63.1914 80.6754C67.6307 76.236 73.2868 73.2128 79.4443 71.988C85.6018 70.7632 91.9843 71.3918 97.7846 73.7943C103.585 76.1969 108.542 80.2655 112.03 85.4856C115.518 90.7057 117.38 96.8429 117.38 103.121C117.371 111.537 114.023 119.606 108.072 125.557C102.122 131.508 94.053 134.855 85.6371 134.864ZM85.6371 74.622C80.0003 74.622 74.4901 76.2936 69.8033 79.4252C65.1165 82.5568 61.4636 87.0079 59.3065 92.2156C57.1494 97.4233 56.585 103.154 57.6847 108.682C58.7843 114.211 61.4987 119.289 65.4845 123.275C69.4703 127.26 74.5485 129.975 80.077 131.074C85.6055 132.174 91.3359 131.61 96.5435 129.453C101.751 127.296 106.202 123.643 109.334 118.956C112.466 114.269 114.137 108.759 114.137 103.122C114.129 95.5659 111.124 88.3216 105.781 82.9786C100.438 77.6356 93.1932 74.6302 85.6371 74.622Z" fill="#0055FF"/>
<path opacity="0.8" d="M85.637 120.19C82.2613 120.19 78.9613 119.189 76.1545 117.314C73.3477 115.438 71.16 112.772 69.8682 109.654C68.5764 106.535 68.2384 103.103 68.8969 99.7922C69.5555 96.4813 71.1811 93.4401 73.5681 91.0531C75.9551 88.6661 78.9963 87.0406 82.3072 86.382C85.618 85.7234 89.0498 86.0614 92.1686 87.3532C95.2874 88.6451 97.9531 90.8327 99.8285 93.6396C101.704 96.4464 102.705 99.7463 102.705 103.122C102.7 107.647 100.9 111.986 97.7003 115.185C94.5006 118.385 90.1622 120.185 85.637 120.19ZM85.637 89.297C82.9025 89.2962 80.2291 90.1064 77.9551 91.625C75.6811 93.1437 73.9085 95.3025 72.8615 97.8286C71.8145 100.355 71.5402 103.135 72.0731 105.817C72.6061 108.499 73.9225 110.963 75.8558 112.896C77.7891 114.83 80.2525 116.147 82.9344 116.681C85.6162 117.215 88.3962 116.941 90.9226 115.895C93.4491 114.849 95.6085 113.077 97.1278 110.803C98.6471 108.53 99.458 105.857 99.458 103.122C99.454 99.4573 97.9967 95.9438 95.4057 93.3521C92.8148 90.7604 89.3017 89.3021 85.637 89.297Z" fill="#0055FF"/>
<path opacity="0.8" d="M85.525 88.855C85.0948 88.855 84.6822 88.6841 84.3781 88.3799C84.0739 88.0758 83.903 87.6632 83.903 87.233V80.369C83.9135 79.9459 84.0889 79.5437 84.3918 79.2482C84.6948 78.9527 85.1013 78.7873 85.5245 78.7873C85.9477 78.7873 86.3541 78.9527 86.657 79.2482C86.96 79.5437 87.1354 79.9459 87.1459 80.369V87.233C87.1459 87.663 86.9752 88.0754 86.6712 88.3796C86.3672 88.6837 85.955 88.8547 85.525 88.855Z" fill="#0055FF"/>
<path opacity="0.8" d="M85.525 127.496C85.0948 127.496 84.6822 127.325 84.3781 127.021C84.0739 126.717 83.903 126.304 83.903 125.874V119.01C83.9135 118.587 84.0889 118.185 84.3918 117.889C84.6948 117.594 85.1013 117.428 85.5245 117.428C85.9477 117.428 86.3541 117.594 86.657 117.889C86.96 118.185 87.1354 118.587 87.1459 119.01V125.874C87.1459 126.304 86.9752 126.716 86.6712 127.021C86.3672 127.325 85.955 127.496 85.525 127.496Z" fill="#0055FF"/>
<path opacity="0.8" d="M69.6349 104.743H62.7709C62.3408 104.743 61.9282 104.572 61.624 104.268C61.3198 103.964 61.1489 103.551 61.1489 103.121C61.1489 102.691 61.3198 102.278 61.624 101.974C61.9282 101.67 62.3408 101.499 62.7709 101.499H69.6349C70.0651 101.499 70.4777 101.67 70.7819 101.974C71.086 102.278 71.257 102.691 71.257 103.121C71.257 103.551 71.086 103.964 70.7819 104.268C70.4777 104.572 70.0651 104.743 69.6349 104.743Z" fill="#0055FF"/>
<path opacity="0.8" d="M108.278 104.743H101.414C100.984 104.743 100.571 104.572 100.267 104.268C99.9629 103.964 99.792 103.551 99.792 103.121C99.792 102.691 99.9629 102.278 100.267 101.974C100.571 101.67 100.984 101.499 101.414 101.499H108.278C108.708 101.499 109.121 101.67 109.425 101.974C109.729 102.278 109.9 102.691 109.9 103.121C109.9 103.551 109.729 103.964 109.425 104.268C109.121 104.572 108.708 104.743 108.278 104.743Z" fill="#0055FF"/>
<path opacity="0.8" d="M69.435 120.833C69.1144 120.833 68.801 120.738 68.5345 120.56C68.2679 120.381 68.0602 120.128 67.9374 119.832C67.8147 119.536 67.7824 119.21 67.8448 118.895C67.9072 118.581 68.0615 118.292 68.288 118.065L73.142 113.211C73.4479 112.916 73.8575 112.752 74.2828 112.756C74.708 112.759 75.1148 112.93 75.4155 113.231C75.7163 113.531 75.887 113.938 75.8908 114.363C75.8946 114.788 75.7313 115.198 75.436 115.504L70.582 120.358C70.4316 120.509 70.2527 120.628 70.0559 120.71C69.8591 120.791 69.648 120.833 69.435 120.833Z" fill="#0055FF"/>
<path opacity="0.8" d="M96.7599 93.508C96.4393 93.5078 96.1259 93.4127 95.8594 93.2345C95.5928 93.0563 95.3851 92.8032 95.2623 92.507C95.1396 92.2108 95.1074 91.8848 95.1698 91.5703C95.2322 91.2558 95.3864 90.9669 95.6129 90.74L100.467 85.886C100.771 85.5818 101.184 85.4109 101.614 85.4109C102.044 85.4109 102.457 85.5818 102.761 85.886C103.065 86.1902 103.236 86.6028 103.236 87.033C103.236 87.4632 103.065 87.8758 102.761 88.18L97.9069 93.034C97.7564 93.1846 97.5775 93.304 97.3807 93.3854C97.1839 93.4667 96.9729 93.5084 96.7599 93.508Z" fill="#0055FF"/>
<path opacity="0.8" d="M74.289 93.508C74.0759 93.5083 73.8649 93.4665 73.6681 93.385C73.4712 93.3034 73.2925 93.1839 73.142 93.033L68.288 88.179C67.9926 87.8732 67.8291 87.4635 67.8327 87.0383C67.8363 86.613 68.0069 86.2063 68.3075 85.9055C68.6081 85.6048 69.0148 85.4341 69.4401 85.4302C69.8653 85.4264 70.275 85.5897 70.581 85.885L75.435 90.739C75.6615 90.9659 75.8157 91.2549 75.8781 91.5693C75.9405 91.8838 75.9083 92.2097 75.7856 92.5059C75.6628 92.8021 75.4551 93.0553 75.1885 93.2335C74.922 93.4116 74.6086 93.5069 74.288 93.507L74.289 93.508Z" fill="#0055FF"/>
<path opacity="0.8" d="M101.614 120.832C101.401 120.832 101.19 120.79 100.993 120.709C100.796 120.627 100.617 120.508 100.467 120.357L95.6129 115.503C95.3087 115.199 95.1378 114.786 95.1378 114.356C95.1378 113.926 95.3087 113.513 95.6129 113.209C95.9171 112.905 96.3297 112.734 96.7599 112.734C97.1901 112.734 97.6027 112.905 97.9069 113.209L102.761 118.063C102.987 118.29 103.142 118.579 103.204 118.893C103.266 119.208 103.234 119.534 103.112 119.83C102.989 120.126 102.781 120.379 102.514 120.557C102.248 120.736 101.935 120.831 101.614 120.831V120.832Z" fill="#0055FF"/>
</g>
<path opacity="0.8" d="M169.154 120.921C168.861 120.921 168.574 120.842 168.323 120.692C149.459 109.701 135.66 91.7483 129.892 70.692C125.359 54.623 126.522 42.1251 126.574 41.6011C126.609 41.2486 126.758 40.9172 126.999 40.6575C127.24 40.3979 127.559 40.2242 127.908 40.163C145.263 37.123 168.097 23.651 168.326 23.515C168.577 23.366 168.863 23.2874 169.155 23.2874C169.446 23.2874 169.732 23.366 169.983 23.515C170.211 23.651 192.993 37.122 210.347 40.162C210.702 40.2244 211.026 40.4032 211.268 40.6703C211.511 40.9374 211.657 41.2775 211.684 41.637C211.724 42.158 212.597 54.581 207.926 70.606C205.279 79.815 201.161 88.5361 195.733 96.4321C188.925 106.205 180.166 114.461 170.007 120.679C169.751 120.837 169.455 120.921 169.154 120.921ZM129.728 43.121C129.436 52.1761 130.557 61.2212 133.051 69.931C138.519 89.8099 151.447 106.812 169.141 117.395C178.57 111.478 186.708 103.72 193.07 94.585C198.3 86.9756 202.266 78.5714 204.816 69.697C207.361 61.0692 208.605 52.1099 208.506 43.1151C192.506 39.9281 173.394 29.2351 169.156 26.7861C164.905 29.2371 145.736 39.942 129.728 43.121Z" fill="#0055FF"/>
<path opacity="0.8" d="M169.247 118.124C168.817 118.124 168.404 117.953 168.1 117.649C167.796 117.345 167.625 116.932 167.625 116.502V26.844C167.62 26.6277 167.658 26.4125 167.737 26.2111C167.816 26.0096 167.934 25.826 168.085 25.6711C168.237 25.5162 168.417 25.3931 168.617 25.3091C168.816 25.225 169.03 25.1818 169.247 25.1818C169.463 25.1818 169.677 25.225 169.877 25.3091C170.076 25.3931 170.257 25.5162 170.408 25.6711C170.559 25.826 170.677 26.0096 170.756 26.2111C170.835 26.4125 170.873 26.6277 170.868 26.844V116.507C170.867 116.936 170.695 117.347 170.392 117.65C170.088 117.953 169.676 118.124 169.247 118.124Z" fill="#0055FF"/>
</g>
</g>
<defs>
<clipPath id="clip0_15_137">
<rect width="211.773" height="208.885" fill="white"/>
</clipPath>
</defs>
</svg>
