<svg width="212" height="205" viewBox="0 0 212 205" fill="none" xmlns="http://www.w3.org/2000/svg">
<g clip-path="url(#clip0_8_15)">
<g opacity="0.8">
<g opacity="0.8">
<path opacity="0.8" d="M162.986 66.7416C162.711 66.7413 162.442 66.6715 162.202 66.5387C161.962 66.4059 161.76 66.2144 161.614 65.9821C161.468 65.7499 161.383 65.4844 161.368 65.2106C161.353 64.9369 161.407 64.6636 161.526 64.4166L172.272 42.1101C172.965 40.6693 173.057 39.0123 172.528 37.5037C171.999 35.9951 170.892 34.7583 169.452 34.0654L130.064 15.1194C128.623 14.4264 126.966 14.334 125.457 14.8627C123.949 15.3915 122.712 16.498 122.018 17.9387L104.285 54.2793C104.195 54.4762 104.066 54.6531 103.907 54.7995C103.748 54.946 103.561 55.0591 103.357 55.1321C103.153 55.2051 102.937 55.2367 102.721 55.2248C102.505 55.213 102.293 55.158 102.099 55.0631C101.904 54.9682 101.731 54.8354 101.588 54.6724C101.446 54.5094 101.338 54.3195 101.27 54.114C101.202 53.9085 101.176 53.6915 101.193 53.4758C101.211 53.26 101.271 53.05 101.371 52.8579L119.099 16.5173C120.167 14.3037 122.069 12.6044 124.389 11.7928C126.708 10.9811 129.255 11.1235 131.47 12.1887L170.855 31.1405C173.069 32.2082 174.769 34.1107 175.582 36.4304C176.395 38.7501 176.254 41.2977 175.191 43.5139L164.445 65.8214C164.313 66.0966 164.106 66.3289 163.848 66.4917C163.59 66.6545 163.291 66.7411 162.986 66.7416Z" fill="#0055FF"/>
<path opacity="0.8" d="M122.348 140.707C120.961 140.708 119.592 140.395 118.342 139.792L98.5719 130.283C98.38 130.191 98.2081 130.061 98.0661 129.903C97.9242 129.744 97.8148 129.559 97.7443 129.358C97.6739 129.157 97.6437 128.944 97.6556 128.731C97.6674 128.519 97.721 128.311 97.8133 128.119C97.9056 127.927 98.0348 127.755 98.1936 127.613C98.3523 127.471 98.5374 127.362 98.7384 127.291C98.9393 127.221 99.1522 127.191 99.3648 127.202C99.5775 127.214 99.7857 127.268 99.9777 127.36L119.748 136.869C121.189 137.56 122.846 137.652 124.354 137.123C125.862 136.595 127.099 135.489 127.794 134.05L137.172 114.624C137.264 114.432 137.394 114.26 137.553 114.118C137.711 113.975 137.897 113.866 138.098 113.795C138.299 113.725 138.513 113.695 138.725 113.707C138.938 113.719 139.147 113.773 139.339 113.866C139.531 113.958 139.703 114.088 139.845 114.247C139.987 114.406 140.096 114.592 140.166 114.793C140.236 114.995 140.265 115.208 140.253 115.421C140.24 115.634 140.186 115.842 140.093 116.034L130.715 135.458C129.956 137.032 128.768 138.359 127.288 139.288C125.807 140.217 124.095 140.709 122.348 140.707Z" fill="#0055FF"/>
<path opacity="0.8" d="M132.579 127.951C132.336 127.951 132.096 127.896 131.877 127.791L103.043 113.919C102.846 113.83 102.669 113.702 102.523 113.543C102.376 113.385 102.263 113.199 102.189 112.995C102.115 112.792 102.083 112.577 102.093 112.361C102.104 112.145 102.158 111.934 102.252 111.739C102.345 111.544 102.477 111.37 102.639 111.227C102.801 111.084 102.99 110.975 103.194 110.906C103.399 110.836 103.615 110.809 103.831 110.825C104.046 110.84 104.256 110.899 104.449 110.997L133.283 124.869C133.614 125.028 133.882 125.295 134.041 125.626C134.201 125.958 134.243 126.333 134.161 126.691C134.079 127.05 133.878 127.37 133.591 127.599C133.303 127.828 132.946 127.952 132.579 127.952V127.951Z" fill="#0055FF"/>
<path opacity="0.8" d="M172.362 45.7656C172.119 45.7656 171.879 45.7109 171.66 45.6054L120.619 21.0531C120.423 20.9638 120.246 20.8362 120.099 20.6776C119.952 20.519 119.839 20.3327 119.765 20.1296C119.691 19.9266 119.659 19.7109 119.67 19.4951C119.681 19.2793 119.734 19.0679 119.828 18.8732C119.922 18.6785 120.053 18.5046 120.215 18.3615C120.377 18.2184 120.566 18.109 120.771 18.0399C120.975 17.9708 121.192 17.9433 121.407 17.9589C121.623 17.9746 121.833 18.0332 122.025 18.1312L173.07 42.6825C173.401 42.8418 173.669 43.109 173.828 43.4401C173.988 43.7713 174.03 44.1468 173.948 44.5051C173.866 44.8635 173.665 45.1834 173.378 45.4124C173.09 45.6414 172.733 45.766 172.366 45.7656H172.362Z" fill="#0055FF"/>
<path opacity="0.8" d="M108.064 124.553C107.821 124.553 107.582 124.498 107.363 124.392L101.908 121.768C101.716 121.676 101.544 121.547 101.402 121.388C101.26 121.229 101.151 121.044 101.08 120.843C101.01 120.642 100.98 120.429 100.992 120.217C101.004 120.004 101.057 119.796 101.149 119.604C101.242 119.412 101.371 119.24 101.53 119.098C101.688 118.956 101.874 118.847 102.074 118.776C102.275 118.706 102.488 118.676 102.701 118.688C102.914 118.7 103.122 118.753 103.314 118.845L108.769 121.469C109.1 121.629 109.367 121.896 109.527 122.227C109.686 122.558 109.729 122.934 109.647 123.292C109.565 123.65 109.364 123.97 109.076 124.199C108.789 124.428 108.432 124.553 108.064 124.552V124.553Z" fill="#0055FF"/>
<path opacity="0.8" d="M44.5631 156.966C44.289 156.965 44.0195 156.895 43.7798 156.763C43.54 156.63 43.3379 156.438 43.1921 156.206C43.0464 155.974 42.9618 155.709 42.9463 155.435C42.9309 155.161 42.985 154.888 43.1037 154.641L58.5201 122.588L64.7107 88.1035C64.7844 85.1436 65.551 82.2422 66.9487 79.6321C68.3465 77.022 70.3366 74.7759 72.7594 73.0739L105.513 50.3611C107.535 48.955 110.028 48.3994 112.456 48.8139C114.884 49.2285 117.052 50.58 118.493 52.5774C119.934 54.5748 120.532 57.0583 120.16 59.4929C119.788 61.9275 118.474 64.1185 116.502 65.5938L92.8561 83.2552C96.748 87.6656 99.8302 92.7288 101.961 98.2115C104.137 103.74 104.971 109.706 104.392 115.619C103.64 122.776 100.667 129.728 95.5562 136.281C95.4267 136.453 95.2643 136.597 95.0784 136.706C94.8926 136.814 94.687 136.884 94.4737 136.912C94.2604 136.94 94.0437 136.926 93.8361 136.869C93.6285 136.813 93.4342 136.716 93.2646 136.584C93.0949 136.451 92.9532 136.287 92.8478 136.099C92.7424 135.911 92.6755 135.705 92.6507 135.491C92.626 135.277 92.644 135.061 92.7037 134.854C92.7635 134.648 92.8637 134.455 92.9987 134.287C97.7151 128.24 100.461 121.868 101.16 115.347C101.694 109.957 100.944 104.516 98.9705 99.4717C96.7794 93.7985 93.4931 88.6119 89.2992 84.2077C89.1307 84.0443 88.9997 83.8463 88.9152 83.6273C88.8307 83.4084 88.7946 83.1737 88.8095 82.9395C88.8245 82.7053 88.8901 82.4771 89.0018 82.2707C89.1135 82.0643 89.2686 81.8845 89.4565 81.7439L114.563 62.9943C115.809 62.0119 116.628 60.5858 116.848 59.014C117.068 57.4421 116.673 55.846 115.744 54.559C114.815 53.2719 113.425 52.3935 111.864 52.1071C110.303 51.8208 108.691 52.1486 107.366 53.0221L74.6154 75.733C72.5947 77.1536 70.938 79.0312 69.7801 81.2131C68.6222 83.395 67.9958 85.8194 67.952 88.2891C67.9506 88.3763 67.9421 88.4632 67.9266 88.549L61.6745 123.381C61.6485 123.525 61.6032 123.665 61.5396 123.797L46.0285 156.047C45.8958 156.323 45.6878 156.555 45.4285 156.718C45.1692 156.881 44.8692 156.967 44.5631 156.966Z" fill="#0055FF"/>
<path opacity="0.8" d="M154.378 84.6227C152.473 84.6206 150.621 83.9955 149.104 82.8427C147.587 81.69 146.489 80.0727 145.977 78.2377C145.361 76.0101 145.653 73.6291 146.79 71.6169C147.927 69.6048 149.816 68.1258 152.042 67.5045L166.375 63.5217C168.604 62.9026 170.986 63.194 173 64.3318C175.013 65.4696 176.492 67.3606 177.111 69.5887C177.73 71.8169 177.439 74.1998 176.301 76.2131C175.163 78.2264 173.272 79.7053 171.044 80.3244L156.711 84.3072C155.951 84.5176 155.166 84.6238 154.378 84.6227ZM168.717 66.4436C168.219 66.444 167.723 66.512 167.243 66.6459L152.91 70.6287C151.512 71.0188 150.325 71.9475 149.611 73.2112C148.897 74.4749 148.713 75.9702 149.1 77.3693C149.49 78.7674 150.419 79.9537 151.683 80.6679C152.946 81.3822 154.441 81.566 155.841 81.1791L170.174 77.1964C171.449 76.8418 172.552 76.0375 173.28 74.9323C174.008 73.8272 174.311 72.4958 174.133 71.1845C173.955 69.8731 173.309 68.6706 172.313 67.799C171.317 66.9275 170.039 66.446 168.716 66.4436H168.717Z" fill="#0055FF"/>
<path opacity="0.8" d="M151.195 100.444C149.29 100.441 147.438 99.8163 145.922 98.6638C144.405 97.5112 143.307 95.8943 142.794 94.0596C142.175 91.8319 142.467 89.4497 143.604 87.4368C144.742 85.424 146.632 83.9454 148.86 83.3264L163.193 79.3436C164.296 79.037 165.449 78.9508 166.585 79.0898C167.722 79.2288 168.82 79.5903 169.817 80.1537C170.814 80.7171 171.69 81.4713 172.396 82.3732C173.101 83.2752 173.622 84.3073 173.928 85.4106C174.235 86.5139 174.321 87.6667 174.182 88.8033C174.043 89.9399 173.682 91.0381 173.118 92.035C172.555 93.0319 171.801 93.908 170.899 94.6134C169.997 95.3188 168.965 95.8397 167.861 96.1462L153.528 100.13C152.768 100.34 151.984 100.445 151.195 100.444ZM145.92 93.1911C146.31 94.5892 147.239 95.7755 148.503 96.4898C149.766 97.204 151.262 97.3879 152.661 97.001L166.994 93.0172C167.687 92.8248 168.335 92.4978 168.901 92.0549C169.467 91.612 169.941 91.0619 170.295 90.436C170.649 89.8101 170.876 89.1206 170.963 88.4069C171.05 87.6933 170.996 86.9694 170.804 86.2766C170.611 85.5838 170.284 84.9358 169.841 84.3694C169.399 83.8031 168.848 83.3294 168.222 82.9756C167.597 82.6219 166.907 82.3949 166.193 82.3075C165.48 82.2202 164.756 82.2743 164.063 82.4667L149.73 86.4495C148.332 86.8396 147.146 87.7684 146.431 89.0321C145.717 90.2957 145.533 91.7911 145.92 93.1901V93.1911Z" fill="#0055FF"/>
<path opacity="0.8" d="M142.972 117.539C141.067 117.537 139.215 116.912 137.698 115.76C136.181 114.607 135.083 112.99 134.571 111.155C133.952 108.928 134.243 106.545 135.381 104.533C136.518 102.52 138.409 101.041 140.636 100.422L154.969 96.4384C157.197 95.8193 159.58 96.1107 161.594 97.2485C163.607 98.3863 165.086 100.277 165.705 102.505C166.324 104.734 166.033 107.116 164.895 109.13C163.757 111.143 161.866 112.622 159.638 113.241L145.305 117.224C144.545 117.434 143.76 117.54 142.972 117.539ZM137.697 110.287C138.087 111.685 139.015 112.872 140.279 113.586C141.543 114.3 143.038 114.484 144.437 114.097L158.77 110.114C160.169 109.725 161.357 108.797 162.071 107.533C162.786 106.269 162.969 104.772 162.58 103.373C162.192 101.974 161.263 100.787 159.999 100.072C158.735 99.3579 157.239 99.1749 155.84 99.5635L141.506 103.546C140.107 103.936 138.921 104.865 138.207 106.129C137.493 107.392 137.309 108.888 137.696 110.287H137.697Z" fill="#0055FF"/>
<path opacity="0.8" d="M80.7435 181.107C80.4693 181.107 80.1996 181.037 79.9597 180.904C79.7199 180.771 79.5176 180.58 79.3717 180.348C79.2259 180.115 79.1412 179.85 79.1257 179.576C79.1102 179.302 79.1643 179.029 79.283 178.782L93.8192 148.56C93.9537 148.279 94.1666 148.042 94.4324 147.879C94.6981 147.716 95.0052 147.634 95.3168 147.641C110.605 147.989 117.603 137.482 117.671 137.374C117.909 137.023 118.276 136.779 118.691 136.695C119.107 136.61 119.54 136.692 119.896 136.923C120.252 137.154 120.503 137.516 120.596 137.93C120.689 138.344 120.615 138.778 120.392 139.138C118.704 141.5 116.624 143.556 114.242 145.215C109 148.935 102.723 150.92 96.2947 150.892L82.2039 180.188C82.0716 180.463 81.8644 180.695 81.6061 180.858C81.3477 181.02 81.0487 181.107 80.7435 181.107Z" fill="#0055FF"/>
</g>
<path opacity="0.8" d="M108.911 187.577C86.3476 187.577 64.7079 178.614 48.7528 162.658C32.7978 146.703 23.8343 125.064 23.8343 102.5C23.8343 79.9362 32.7978 58.2965 48.7528 42.3414C64.7079 26.3864 86.3476 17.4229 108.911 17.4229C109.341 17.4229 109.754 17.5938 110.058 17.8979C110.362 18.202 110.533 18.6145 110.533 19.0446C110.533 19.4747 110.362 19.8871 110.058 20.1912C109.754 20.4954 109.341 20.6662 108.911 20.6662C90.5324 20.6693 72.6896 26.8602 58.2584 38.2414C43.8272 49.6225 33.6481 65.5309 29.3615 83.4031C25.0749 101.275 26.9304 120.07 34.629 136.759C42.3277 153.448 55.421 167.059 71.7991 175.398C88.1772 183.738 106.886 186.32 124.911 182.729C142.936 179.139 159.227 169.584 171.158 155.604C183.09 141.625 189.968 124.035 190.683 105.67C191.398 87.3053 185.91 69.2341 175.101 54.3692C174.855 54.0213 174.755 53.5903 174.824 53.1695C174.893 52.7487 175.124 52.3719 175.469 52.1208C175.814 51.8697 176.243 51.7644 176.665 51.8278C177.087 51.8912 177.467 52.1181 177.722 52.4594C186.964 65.1493 192.513 80.1493 193.755 95.7984C194.997 111.448 191.883 127.135 184.759 141.124C177.635 155.113 166.778 166.857 153.391 175.056C140.004 183.255 124.609 187.588 108.91 187.577H108.911Z" fill="#0055FF"/>
<g opacity="0.3">
<g opacity="0.3">
<g opacity="0.3">
<path opacity="0.3" d="M5.07988 138.298H1.62165C1.19157 138.298 0.779092 138.128 0.474973 137.823C0.170855 137.519 0 137.107 0 136.677C0 136.247 0.170855 135.834 0.474973 135.53C0.779092 135.226 1.19157 135.055 1.62165 135.055H5.07988C5.50997 135.055 5.92244 135.226 6.22656 135.53C6.53068 135.834 6.7015 136.247 6.7015 136.677C6.7015 137.107 6.53068 137.519 6.22656 137.823C5.92244 138.128 5.50997 138.298 5.07988 138.298Z" fill="#0055FF"/>
<path opacity="0.3" d="M18.4839 138.298H14.5929C14.1628 138.298 13.7503 138.128 13.4462 137.823C13.1421 137.519 12.9712 137.107 12.9712 136.677C12.9712 136.247 13.1421 135.834 13.4462 135.53C13.7503 135.226 14.1628 135.055 14.5929 135.055H18.4839C18.914 135.055 19.3264 135.226 19.6306 135.53C19.9347 135.834 20.1055 136.247 20.1055 136.677C20.1055 137.107 19.9347 137.519 19.6306 137.823C19.3264 138.128 18.914 138.298 18.4839 138.298Z" fill="#0055FF"/>
</g>
<g opacity="0.3">
<path opacity="0.3" d="M9.94482 146.837C9.51473 146.837 9.10226 146.666 8.79814 146.362C8.49402 146.058 8.32317 145.646 8.32317 145.216V141.756C8.32317 141.326 8.49402 140.914 8.79814 140.61C9.10226 140.306 9.51473 140.135 9.94482 140.135C10.3749 140.135 10.7874 140.306 11.0915 140.61C11.3956 140.914 11.5665 141.326 11.5665 141.756V145.216C11.5665 145.646 11.3956 146.058 11.0915 146.362C10.7874 146.666 10.3749 146.837 9.94482 146.837Z" fill="#0055FF"/>
<path opacity="0.3" d="M9.94482 133.863C9.51473 133.863 9.10226 133.693 8.79814 133.388C8.49402 133.084 8.32317 132.672 8.32317 132.242V128.35C8.32317 127.92 8.49402 127.507 8.79814 127.203C9.10226 126.899 9.51473 126.728 9.94482 126.728C10.3749 126.728 10.7874 126.899 11.0915 127.203C11.3956 127.507 11.5665 127.92 11.5665 128.35V132.242C11.5665 132.672 11.3956 133.084 11.0915 133.388C10.7874 133.693 10.3749 133.863 9.94482 133.863Z" fill="#0055FF"/>
</g>
</g>
<g opacity="0.3">
<g opacity="0.3">
<path opacity="0.3" d="M141.929 156.891H138.47C138.04 156.891 137.628 156.72 137.324 156.416C137.02 156.112 136.849 155.699 136.849 155.269C136.849 154.839 137.02 154.427 137.324 154.122C137.628 153.818 138.04 153.647 138.47 153.647H141.929C142.36 153.647 142.772 153.818 143.076 154.122C143.38 154.427 143.551 154.839 143.551 155.269C143.551 155.699 143.38 156.112 143.076 156.416C142.772 156.72 142.36 156.891 141.929 156.891Z" fill="#0055FF"/>
<path opacity="0.3" d="M155.333 156.891H151.442C151.012 156.891 150.599 156.72 150.295 156.416C149.991 156.112 149.82 155.699 149.82 155.269C149.82 154.839 149.991 154.427 150.295 154.122C150.599 153.818 151.012 153.647 151.442 153.647H155.333C155.764 153.647 156.176 153.818 156.48 154.122C156.784 154.427 156.955 154.839 156.955 155.269C156.955 155.699 156.784 156.112 156.48 156.416C156.176 156.72 155.764 156.891 155.333 156.891Z" fill="#0055FF"/>
</g>
<g opacity="0.3">
<path opacity="0.3" d="M146.795 165.43C146.364 165.43 145.952 165.259 145.648 164.955C145.344 164.651 145.173 164.238 145.173 163.808V160.349C145.173 159.919 145.344 159.506 145.648 159.202C145.952 158.898 146.364 158.727 146.795 158.727C147.225 158.727 147.637 158.898 147.941 159.202C148.245 159.506 148.416 159.919 148.416 160.349V163.808C148.416 164.238 148.245 164.651 147.941 164.955C147.637 165.259 147.225 165.43 146.795 165.43Z" fill="#0055FF"/>
<path opacity="0.3" d="M146.795 152.456C146.364 152.456 145.952 152.285 145.648 151.981C145.344 151.677 145.173 151.264 145.173 150.834V146.942C145.173 146.512 145.344 146.099 145.648 145.795C145.952 145.491 146.364 145.32 146.795 145.32C147.225 145.32 147.637 145.491 147.941 145.795C148.245 146.099 148.416 146.512 148.416 146.942V150.834C148.416 151.264 148.245 151.677 147.941 151.981C147.637 152.285 147.225 152.456 146.795 152.456Z" fill="#0055FF"/>
</g>
</g>
<g opacity="0.3">
<g opacity="0.3">
<path opacity="0.3" d="M192.518 28.9055H189.059C188.629 28.9055 188.216 28.7346 187.912 28.4305C187.608 28.1264 187.437 27.7139 187.437 27.2838C187.437 26.8537 187.608 26.4413 187.912 26.1371C188.216 25.833 188.629 25.6622 189.059 25.6622H192.518C192.948 25.6622 193.361 25.833 193.665 26.1371C193.969 26.4413 194.14 26.8537 194.14 27.2838C194.14 27.7139 193.969 28.1264 193.665 28.4305C193.361 28.7346 192.948 28.9055 192.518 28.9055Z" fill="#0055FF"/>
<path opacity="0.3" d="M205.922 28.9055H202.03C201.6 28.9055 201.188 28.7346 200.884 28.4305C200.579 28.1264 200.409 27.7139 200.409 27.2838C200.409 26.8537 200.579 26.4413 200.884 26.1371C201.188 25.833 201.6 25.6622 202.03 25.6622H205.922C206.352 25.6622 206.765 25.833 207.069 26.1371C207.373 26.4413 207.544 26.8537 207.544 27.2838C207.544 27.7139 207.373 28.1264 207.069 28.4305C206.765 28.7346 206.352 28.9055 205.922 28.9055Z" fill="#0055FF"/>
</g>
<g opacity="0.3">
<path opacity="0.3" d="M197.383 37.4444C196.953 37.4444 196.541 37.2736 196.236 36.9694C195.932 36.6653 195.761 36.2529 195.761 35.8228V32.3645C195.761 32.1516 195.803 31.9407 195.885 31.744C195.966 31.5472 196.086 31.3685 196.236 31.2179C196.387 31.0673 196.566 30.9478 196.763 30.8663C196.959 30.7848 197.17 30.7429 197.383 30.7429C197.596 30.7429 197.807 30.7848 198.004 30.8663C198.2 30.9478 198.379 31.0673 198.53 31.2179C198.68 31.3685 198.8 31.5472 198.881 31.744C198.963 31.9407 199.005 32.1516 199.005 32.3645V35.8228C199.005 36.2529 198.834 36.6653 198.53 36.9694C198.226 37.2736 197.813 37.4444 197.383 37.4444Z" fill="#0055FF"/>
<path opacity="0.3" d="M197.383 24.4703C196.953 24.4703 196.541 24.2995 196.236 23.9954C195.932 23.6912 195.761 23.2788 195.761 22.8487V18.9606C195.761 18.7477 195.803 18.5368 195.885 18.34C195.966 18.1433 196.086 17.9645 196.236 17.814C196.387 17.6634 196.566 17.5439 196.763 17.4624C196.959 17.3809 197.17 17.339 197.383 17.339C197.596 17.339 197.807 17.3809 198.004 17.4624C198.2 17.5439 198.379 17.6634 198.53 17.814C198.68 17.9645 198.8 18.1433 198.881 18.34C198.963 18.5368 199.005 18.7477 199.005 18.9606V22.8516C199.004 23.2812 198.833 23.6929 198.529 23.9964C198.225 24.2999 197.813 24.4703 197.383 24.4703Z" fill="#0055FF"/>
</g>
</g>
<path opacity="0.3" d="M29.09 175.696C28.0505 175.696 27.0343 175.388 26.1699 174.811C25.3055 174.233 24.6316 173.413 24.2337 172.452C23.8357 171.492 23.7316 170.435 23.9342 169.416C24.1369 168.396 24.6374 167.459 25.3724 166.724C26.1074 165.989 27.0439 165.489 28.0634 165.286C29.0829 165.083 30.1397 165.187 31.1001 165.585C32.0605 165.982 32.8814 166.656 33.459 167.52C34.0365 168.385 34.3448 169.401 34.3448 170.44C34.3435 171.834 33.7895 173.17 32.8043 174.155C31.8192 175.14 30.4834 175.695 29.09 175.696ZM29.09 168.428C28.692 168.428 28.3029 168.546 27.972 168.767C27.6411 168.988 27.3831 169.303 27.2308 169.67C27.0785 170.038 27.0387 170.443 27.1163 170.833C27.194 171.223 27.3856 171.582 27.6671 171.863C27.9485 172.145 28.3071 172.337 28.6975 172.414C29.0878 172.492 29.4924 172.452 29.8601 172.3C30.2279 172.147 30.5422 171.889 30.7633 171.558C30.9844 171.227 31.1024 170.838 31.1024 170.44C31.1017 169.907 30.8894 169.396 30.5121 169.019C30.1349 168.642 29.6234 168.429 29.09 168.429V168.428Z" fill="#0055FF"/>
<path opacity="0.3" d="M202.031 74.0088C200.992 74.0088 199.976 73.7006 199.111 73.1231C198.247 72.5456 197.573 71.7248 197.176 70.7644C196.778 69.8041 196.674 68.7473 196.877 67.7278C197.079 66.7083 197.58 65.7718 198.315 65.0368C199.05 64.3017 199.986 63.8012 201.006 63.5984C202.025 63.3956 203.082 63.4997 204.043 63.8974C205.003 64.2952 205.824 64.9689 206.401 65.8332C206.979 66.6975 207.287 67.7137 207.287 68.7531C207.285 70.1466 206.731 71.4824 205.746 72.4677C204.761 73.453 203.425 74.0072 202.031 74.0088ZM202.031 66.7407C201.633 66.7407 201.244 66.8587 200.913 67.0799C200.582 67.301 200.324 67.6153 200.172 67.983C200.02 68.3507 199.98 68.7553 200.057 69.1457C200.135 69.5361 200.327 69.8946 200.608 70.1761C200.89 70.4575 201.248 70.6492 201.639 70.7268C202.029 70.8045 202.434 70.7646 202.801 70.6123C203.169 70.46 203.483 70.2021 203.704 69.8712C203.926 69.5402 204.044 69.1511 204.044 68.7531C204.043 68.2197 203.831 67.7084 203.453 67.3313C203.076 66.9542 202.565 66.7422 202.031 66.7417V66.7407Z" fill="#0055FF"/>
</g>
<path opacity="0.8" d="M120.692 87.6532C120.479 87.6535 120.268 87.6117 120.071 87.5303C119.874 87.4488 119.695 87.3293 119.545 87.1785L110.842 78.4753C110.549 78.169 110.388 77.7602 110.392 77.3365C110.397 76.9127 110.568 76.5076 110.867 76.208C111.167 75.9083 111.572 75.7379 111.996 75.7331C112.419 75.7284 112.828 75.8896 113.134 76.1825L120.691 83.7388L147.839 56.5908C148.145 56.298 148.554 56.1367 148.978 56.1415C149.401 56.1462 149.806 56.3167 150.106 56.6163C150.406 56.916 150.576 57.321 150.581 57.7448C150.586 58.1685 150.424 58.5772 150.132 58.8836L121.837 87.1785C121.686 87.3291 121.508 87.4485 121.312 87.53C121.115 87.6114 120.904 87.6533 120.692 87.6532Z" fill="#0055FF"/>
<g opacity="0.3">
<path opacity="0.3" d="M168.24 22.5264C167.898 22.5267 167.564 22.4179 167.287 22.2157C164.169 19.9453 160.923 17.8578 157.564 15.9636C157.375 15.8606 157.209 15.7212 157.075 15.5535C156.941 15.3858 156.842 15.1931 156.783 14.9867C156.724 14.7803 156.706 14.5642 156.731 14.3509C156.756 14.1377 156.824 13.9315 156.929 13.7445C157.034 13.5574 157.176 13.3932 157.345 13.2613C157.515 13.1294 157.709 13.0324 157.916 12.976C158.123 12.9196 158.339 12.9049 158.552 12.9328C158.765 12.9607 158.97 13.0306 159.156 13.1384C162.625 15.0943 165.978 17.2497 169.197 19.5938C169.473 19.7956 169.678 20.0796 169.783 20.405C169.888 20.7305 169.887 21.0808 169.781 21.4059C169.675 21.731 169.469 22.0142 169.192 22.2151C168.915 22.416 168.582 22.5243 168.24 22.5245V22.5264Z" fill="#0055FF"/>
<path opacity="0.3" d="M78.9128 7.77917C78.5251 7.77886 78.1503 7.63962 77.8564 7.38671C77.5625 7.13381 77.3689 6.78399 77.3108 6.40063C77.2527 6.01728 77.3338 5.62575 77.5395 5.29709C77.7452 4.96843 78.0619 4.72437 78.4322 4.60914C96.1206 -0.863748 114.956 -1.47718 132.963 2.83315C133.174 2.87852 133.374 2.96575 133.552 3.08971C133.729 3.21367 133.88 3.37183 133.995 3.55491C134.11 3.73799 134.188 3.94229 134.223 4.15575C134.258 4.36921 134.25 4.58753 134.199 4.79785C134.149 5.00818 134.056 5.20628 133.928 5.38045C133.8 5.55462 133.638 5.70134 133.452 5.81202C133.266 5.92269 133.06 5.99507 132.846 6.02488C132.632 6.05468 132.414 6.04133 132.205 5.98558C114.767 1.81066 96.5274 2.40283 79.3974 7.70004C79.2408 7.75078 79.0774 7.77746 78.9128 7.77917Z" fill="#0055FF"/>
<path opacity="0.3" d="M39.6698 30.7578C39.3451 30.7579 39.0278 30.6604 38.7591 30.4781C38.4904 30.2959 38.2825 30.0371 38.1625 29.7353C38.0426 29.4336 38.0159 29.1027 38.0861 28.7857C38.1563 28.4686 38.32 28.18 38.5561 27.957C40.1612 26.4419 41.8346 24.9609 43.5305 23.5541C43.8626 23.2895 44.2852 23.1657 44.7075 23.2093C45.1299 23.2529 45.5183 23.4603 45.7894 23.7871C46.0604 24.114 46.1925 24.5341 46.1572 24.9572C46.1219 25.3803 45.922 25.7728 45.6005 26.0501C43.9574 27.4129 42.3368 28.847 40.7825 30.3143C40.4822 30.5992 40.0838 30.758 39.6698 30.7578Z" fill="#0055FF"/>
<path opacity="0.3" d="M8.83895 116.951C8.4452 116.95 8.06542 116.805 7.77044 116.545C7.47546 116.284 7.28544 115.924 7.23587 115.534C6.14399 106.901 6.14137 98.1646 7.22806 89.5308C8.88233 76.3279 13.1175 63.5793 19.6923 52.0111C19.7957 51.8227 19.9354 51.6568 20.1034 51.523C20.2714 51.3891 20.4644 51.2899 20.6711 51.2312C20.8777 51.1726 21.094 51.1556 21.3073 51.1812C21.5206 51.2068 21.7267 51.2745 21.9136 51.3805C22.1005 51.4864 22.2645 51.6285 22.396 51.7983C22.5276 51.9682 22.6241 52.1624 22.6799 52.3699C22.7357 52.5773 22.7497 52.7939 22.7212 53.0068C22.6926 53.2197 22.6221 53.4248 22.5136 53.6103C16.148 64.8105 12.0476 77.1534 10.446 89.9362C9.39359 98.2995 9.39622 106.762 10.4538 115.125C10.4806 115.336 10.4655 115.55 10.4095 115.756C10.3534 115.961 10.2574 116.154 10.127 116.322C9.99652 116.49 9.83415 116.631 9.6492 116.737C9.46424 116.843 9.26028 116.911 9.04898 116.938C8.97933 116.947 8.90918 116.951 8.83895 116.951Z" fill="#0055FF"/>
<path opacity="0.3" d="M58.5249 191.539C58.2405 191.539 57.9612 191.464 57.7151 191.321C53.7664 189.039 49.9735 186.497 46.3616 183.711C46.0335 183.445 45.8226 183.06 45.7739 182.64C45.7251 182.22 45.8424 181.798 46.1006 181.463C46.3589 181.128 46.7378 180.907 47.1564 180.848C47.5751 180.788 48.0004 180.894 48.3418 181.144C51.8396 183.841 55.5126 186.303 59.3367 188.513C59.6472 188.691 59.8901 188.967 60.0274 189.297C60.1648 189.628 60.189 189.994 60.0962 190.34C60.0035 190.686 59.7989 190.991 59.5145 191.208C59.2302 191.425 58.8819 191.543 58.524 191.541L58.5249 191.539Z" fill="#0055FF"/>
<path opacity="0.3" d="M108.911 205C99.8126 205.006 90.7535 203.803 81.9715 201.423C81.7571 201.375 81.5546 201.285 81.3762 201.157C81.1978 201.029 81.0472 200.866 80.9336 200.679C80.82 200.491 80.7457 200.282 80.7152 200.064C80.6847 199.847 80.6987 199.626 80.7563 199.414C80.8139 199.202 80.9139 199.004 81.0503 198.832C81.1866 198.66 81.3565 198.517 81.5496 198.413C81.7427 198.308 81.9549 198.244 82.1736 198.224C82.3922 198.204 82.6126 198.229 82.8214 198.297C98.2728 202.471 114.5 202.878 130.141 199.485C130.562 199.393 131.001 199.472 131.363 199.705C131.725 199.937 131.98 200.304 132.071 200.724C132.163 201.144 132.084 201.583 131.851 201.945C131.619 202.307 131.252 202.562 130.832 202.654C123.63 204.217 116.281 205.003 108.911 205Z" fill="#0055FF"/>
<path opacity="0.3" d="M158.362 192.07C158.003 192.07 157.655 191.952 157.371 191.733C157.087 191.514 156.883 191.207 156.792 190.861C156.701 190.514 156.727 190.147 156.867 189.817C157.006 189.486 157.251 189.212 157.564 189.036C159.987 187.668 162.384 186.183 164.686 184.616C165.042 184.383 165.475 184.299 165.892 184.382C166.309 184.465 166.676 184.708 166.916 185.06C167.155 185.411 167.247 185.843 167.171 186.261C167.095 186.679 166.858 187.051 166.511 187.297C164.133 188.914 161.659 190.45 159.156 191.861C158.914 191.998 158.64 192.07 158.362 192.07Z" fill="#0055FF"/>
<path opacity="0.3" d="M183.756 171.758C183.443 171.758 183.136 171.667 182.873 171.496C182.61 171.325 182.402 171.081 182.275 170.795C182.147 170.508 182.106 170.19 182.156 169.881C182.205 169.571 182.343 169.282 182.554 169.049C193.627 156.802 201.473 141.989 205.383 125.948C205.492 125.538 205.757 125.187 206.121 124.97C206.485 124.754 206.92 124.688 207.332 124.788C207.744 124.888 208.1 125.145 208.325 125.504C208.55 125.863 208.625 126.297 208.534 126.711C204.497 143.277 196.394 158.576 184.959 171.224C184.807 171.392 184.622 171.527 184.414 171.619C184.207 171.711 183.983 171.759 183.756 171.758Z" fill="#0055FF"/>
<path opacity="0.3" d="M209.79 104.122C209.577 104.122 209.366 104.08 209.169 103.998C208.972 103.917 208.794 103.797 208.643 103.647C208.492 103.496 208.373 103.317 208.291 103.121C208.21 102.924 208.168 102.713 208.168 102.5C208.168 99.5148 208.034 96.501 207.769 93.5439C207.553 91.1242 207.244 88.6859 206.852 86.2944C206.786 85.8718 206.89 85.4403 207.141 85.0939C207.392 84.7474 207.77 84.5142 208.192 84.4448C208.614 84.3755 209.046 84.4758 209.395 84.7238C209.743 84.9717 209.98 85.3473 210.052 85.7688C210.458 88.2384 210.776 90.7569 211 93.2558C211.274 96.3086 211.411 99.42 211.411 102.501C211.411 102.931 211.24 103.343 210.936 103.647C210.632 103.951 210.22 104.122 209.79 104.122Z" fill="#0055FF"/>
</g>
</g>
</g>
<defs>
<clipPath id="clip0_8_15">
<rect width="211.411" height="205" fill="white"/>
</clipPath>
</defs>
</svg>
