<svg width="226" height="243" viewBox="0 0 226 243" fill="none" xmlns="http://www.w3.org/2000/svg">
<g clip-path="url(#clip0_12_219)">
<g opacity="0.8">
<g opacity="0.8">
<g opacity="0.8">
<path opacity="0.8" d="M171.739 98.361C171.458 98.361 171.181 98.2897 170.934 98.1536C170.688 98.0175 170.48 97.8211 170.33 97.5829C170.18 97.3446 170.093 97.0722 170.077 96.7912C170.062 96.5101 170.117 96.2297 170.239 95.976L181.26 73.094C181.969 71.6155 182.062 69.9163 181.52 68.369C180.977 66.8218 179.843 65.553 178.366 64.841L137.966 45.409C136.488 44.6982 134.788 44.6037 133.241 45.1463C131.693 45.6888 130.424 46.8239 129.713 48.302L111.521 85.585C111.328 85.9814 110.985 86.2846 110.567 86.4281C110.15 86.5715 109.694 86.5435 109.297 86.35C108.901 86.1565 108.597 85.8135 108.454 85.3964C108.31 84.9793 108.339 84.5224 108.532 84.126L126.72 46.851C127.815 44.5803 129.766 42.8372 132.146 42.0046C134.525 41.1721 137.137 41.3182 139.409 42.411L179.809 61.844C182.08 62.9393 183.824 64.8909 184.659 67.2705C185.493 69.6501 185.349 72.2634 184.258 74.537L173.239 97.419C173.103 97.7013 172.89 97.9395 172.625 98.1062C172.359 98.2728 172.052 98.3611 171.739 98.361Z" fill="#0055FF"/>
<path opacity="0.8" d="M130.054 174.237C128.632 174.237 127.228 173.916 125.946 173.298L105.666 163.543C105.469 163.448 105.293 163.316 105.147 163.153C105.001 162.99 104.889 162.8 104.817 162.594C104.744 162.388 104.713 162.169 104.725 161.951C104.737 161.733 104.793 161.519 104.887 161.322C104.982 161.125 105.114 160.948 105.277 160.803C105.44 160.657 105.63 160.545 105.836 160.472C106.043 160.4 106.261 160.369 106.479 160.381C106.697 160.393 106.911 160.448 107.108 160.543L127.389 170.298C128.867 171.007 130.566 171.101 132.114 170.558C133.661 170.016 134.93 168.882 135.642 167.406L145.26 147.479C145.452 147.081 145.794 146.776 146.211 146.63C146.628 146.484 147.085 146.51 147.483 146.702C147.881 146.894 148.186 147.236 148.332 147.652C148.478 148.069 148.452 148.527 148.26 148.925L138.643 168.85C137.864 170.466 136.645 171.829 135.125 172.782C133.606 173.735 131.848 174.239 130.054 174.237Z" fill="#0055FF"/>
<path opacity="0.8" d="M140.549 161.151C140.3 161.151 140.054 161.094 139.83 160.986L110.251 146.759C110.054 146.664 109.878 146.532 109.732 146.369C109.586 146.206 109.474 146.016 109.402 145.81C109.329 145.604 109.298 145.385 109.311 145.167C109.323 144.949 109.377 144.735 109.472 144.538C109.567 144.341 109.699 144.165 109.862 144.019C110.025 143.873 110.215 143.761 110.421 143.688C110.628 143.616 110.846 143.585 111.064 143.597C111.282 143.609 111.496 143.664 111.693 143.759L141.272 157.986C141.612 158.15 141.886 158.424 142.049 158.763C142.213 159.103 142.256 159.488 142.172 159.855C142.088 160.223 141.882 160.551 141.587 160.786C141.293 161.021 140.927 161.149 140.55 161.149L140.549 161.151Z" fill="#0055FF"/>
<path opacity="0.8" d="M181.359 76.8429C181.11 76.8427 180.864 76.7863 180.64 76.6779L128.28 51.4929C128.083 51.3982 127.907 51.2657 127.761 51.1028C127.615 50.94 127.503 50.75 127.431 50.5437C127.358 50.3375 127.327 50.119 127.339 49.9008C127.351 49.6826 127.406 49.4689 127.501 49.2719C127.596 49.0749 127.728 48.8985 127.891 48.7528C128.054 48.607 128.244 48.4947 128.45 48.4224C128.656 48.3501 128.875 48.3191 129.093 48.3312C129.311 48.3433 129.525 48.3982 129.722 48.4929L182.085 73.6779C182.425 73.8416 182.699 74.1157 182.862 74.4554C183.026 74.7951 183.069 75.1802 182.985 75.5477C182.901 75.9152 182.695 76.2433 182.4 76.4782C182.105 76.7131 181.739 76.8411 181.362 76.8409L181.359 76.8429Z" fill="#0055FF"/>
<path opacity="0.8" d="M115.401 157.669C115.152 157.669 114.905 157.613 114.681 157.504L109.081 154.812C108.683 154.621 108.378 154.279 108.232 153.863C108.085 153.446 108.111 152.989 108.302 152.591C108.493 152.193 108.835 151.887 109.251 151.741C109.668 151.595 110.125 151.621 110.523 151.812L116.123 154.504C116.463 154.667 116.737 154.941 116.9 155.281C117.063 155.621 117.107 156.006 117.023 156.373C116.939 156.741 116.733 157.069 116.438 157.304C116.144 157.539 115.778 157.667 115.401 157.667V157.669Z" fill="#0055FF"/>
<path opacity="0.8" d="M50.263 190.914C49.9816 190.914 49.705 190.842 49.4588 190.706C49.2125 190.57 49.0048 190.374 48.855 190.135C48.7052 189.897 48.6181 189.625 48.6021 189.344C48.586 189.063 48.6413 188.783 48.763 188.529L64.5782 155.648L70.928 120.269C71.0037 117.232 71.79 114.256 73.2239 111.578C74.6579 108.901 76.6996 106.597 79.1851 104.851L112.785 81.5509C114.859 80.1006 117.421 79.5246 119.916 79.9473C122.411 80.3699 124.64 81.7574 126.12 83.8098C127.601 85.8622 128.215 88.4149 127.829 90.9161C127.443 93.4173 126.089 95.6662 124.058 97.1769L99.8011 115.295C103.793 119.819 106.955 125.014 109.141 130.638C111.373 136.309 112.228 142.429 111.635 148.495C110.863 155.837 107.813 162.968 102.57 169.695C102.299 170.043 101.9 170.269 101.463 170.323C101.025 170.377 100.583 170.255 100.236 169.983C99.8878 169.712 99.662 169.314 99.6079 168.876C99.5538 168.438 99.6757 167.997 99.9471 167.649C104.802 161.424 107.621 154.864 108.327 148.149C108.864 142.602 108.078 137.007 106.032 131.824C103.791 126.044 100.435 120.761 96.156 116.276C95.9827 116.108 95.8478 115.905 95.7608 115.681C95.6737 115.456 95.6366 115.215 95.6519 114.974C95.6672 114.734 95.7345 114.499 95.8494 114.287C95.9643 114.075 96.124 113.891 96.3172 113.747L122.067 94.5129C123.39 93.5212 124.271 92.0497 124.52 90.4151C124.769 88.7805 124.366 87.1135 123.399 85.7728C122.431 84.432 120.976 83.5247 119.346 83.2461C117.716 82.9675 116.042 83.3398 114.684 84.283L81.084 107.583C79.0112 109.04 77.3118 110.966 76.1241 113.204C74.9363 115.443 74.294 117.93 74.2491 120.463C74.2479 120.553 74.2393 120.642 74.2232 120.73L67.8101 156.462C67.7837 156.61 67.7373 156.754 67.6722 156.889L51.7591 189.974C51.6231 190.255 51.4106 190.493 51.146 190.659C50.8815 190.825 50.5754 190.914 50.263 190.914Z" fill="#0055FF"/>
<path opacity="0.8" d="M162.896 116.706C160.945 116.7 159.049 116.057 157.496 114.874C155.944 113.691 154.82 112.034 154.296 110.154C153.664 107.869 153.964 105.426 155.131 103.362C156.298 101.298 158.235 99.7803 160.519 99.1429L175.219 95.0569C176.355 94.7289 177.544 94.6293 178.718 94.7638C179.893 94.8984 181.029 95.2643 182.061 95.8406C183.093 96.4169 184.001 97.1921 184.731 98.1213C185.462 99.0505 186.001 100.115 186.317 101.254C186.634 102.393 186.721 103.583 186.575 104.756C186.429 105.929 186.051 107.061 185.465 108.088C184.878 109.114 184.093 110.013 183.157 110.734C182.22 111.456 181.15 111.984 180.008 112.289L165.308 116.375C164.523 116.594 163.711 116.706 162.896 116.706ZM157.496 109.263C157.694 109.974 158.029 110.638 158.483 111.219C158.937 111.8 159.502 112.286 160.144 112.649C160.786 113.012 161.493 113.245 162.225 113.334C162.957 113.423 163.7 113.368 164.41 113.17L179.11 109.084C179.821 108.886 180.486 108.551 181.067 108.096C181.648 107.642 182.133 107.078 182.496 106.436C182.859 105.793 183.091 105.086 183.181 104.354C183.27 103.622 183.215 102.88 183.017 102.169C182.82 101.458 182.484 100.794 182.03 100.213C181.576 99.6318 181.011 99.1461 180.369 98.7833C179.727 98.4205 179.019 98.1877 178.287 98.0983C177.555 98.0088 176.813 98.0644 176.102 98.262L161.402 102.348C159.968 102.748 158.751 103.701 158.019 104.997C157.286 106.294 157.098 107.828 157.495 109.263H157.496Z" fill="#0055FF"/>
<path opacity="0.8" d="M159.647 132.935C157.483 132.937 155.393 132.154 153.762 130.733C152.132 129.311 151.072 127.346 150.779 125.203C150.486 123.06 150.98 120.883 152.169 119.076C153.358 117.268 155.162 115.954 157.247 115.375L171.947 111.289C173.083 110.961 174.272 110.861 175.446 110.996C176.62 111.13 177.756 111.496 178.788 112.073C179.82 112.649 180.728 113.424 181.459 114.353C182.189 115.282 182.728 116.347 183.045 117.486C183.361 118.625 183.449 119.815 183.303 120.988C183.156 122.161 182.779 123.293 182.192 124.32C181.605 125.346 180.821 126.245 179.885 126.966C178.948 127.688 177.878 128.216 176.736 128.521L162.036 132.607C161.258 132.824 160.454 132.934 159.647 132.935ZM174.347 114.289C173.84 114.289 173.335 114.359 172.847 114.495L158.147 118.581C156.713 118.981 155.496 119.933 154.764 121.23C154.033 122.526 153.845 124.06 154.244 125.494C154.642 126.928 155.594 128.146 156.89 128.879C158.186 129.612 159.719 129.8 161.154 129.403L175.854 125.317C177.162 124.953 178.294 124.127 179.04 122.992C179.786 121.858 180.096 120.491 179.912 119.146C179.728 117.801 179.063 116.567 178.04 115.674C177.017 114.781 175.706 114.289 174.348 114.289H174.347Z" fill="#0055FF"/>
<path opacity="0.8" d="M151.192 150.473C149.03 150.469 146.944 149.683 145.317 148.259C143.69 146.836 142.634 144.872 142.343 142.73C142.053 140.588 142.548 138.413 143.737 136.608C144.926 134.803 146.729 133.489 148.811 132.91L163.511 128.824C164.643 128.51 165.825 128.421 166.991 128.564C168.157 128.706 169.283 129.077 170.305 129.655C171.328 130.232 172.226 131.006 172.95 131.931C173.673 132.856 174.208 133.914 174.522 135.046C174.836 136.177 174.925 137.36 174.782 138.526C174.64 139.691 174.269 140.818 173.691 141.84C173.114 142.863 172.34 143.761 171.415 144.485C170.49 145.208 169.431 145.743 168.3 146.057L153.6 150.143C152.816 150.361 152.006 150.472 151.192 150.473ZM165.917 131.821C165.406 131.822 164.897 131.892 164.405 132.029L149.705 136.115C148.994 136.312 148.33 136.648 147.749 137.102C147.168 137.557 146.682 138.121 146.319 138.763C145.956 139.405 145.723 140.113 145.634 140.845C145.544 141.577 145.6 142.319 145.798 143.03C145.995 143.74 146.331 144.405 146.786 144.986C147.24 145.567 147.804 146.053 148.446 146.416C149.088 146.778 149.796 147.011 150.528 147.101C151.26 147.19 152.002 147.135 152.713 146.937L167.413 142.851C168.721 142.487 169.852 141.661 170.599 140.527C171.345 139.393 171.655 138.027 171.472 136.682C171.289 135.337 170.626 134.103 169.604 133.21C168.582 132.316 167.271 131.823 165.913 131.821H165.917Z" fill="#0055FF"/>
<path opacity="0.8" d="M87.376 215.68C87.0945 215.68 86.8177 215.609 86.5713 215.473C86.3249 215.337 86.1169 215.14 85.967 214.902C85.8172 214.664 85.7303 214.391 85.7143 214.11C85.6984 213.829 85.754 213.549 85.876 213.295L100.788 182.295C100.927 182.008 101.146 181.766 101.418 181.599C101.69 181.432 102.005 181.347 102.324 181.353C102.577 181.359 102.831 181.361 103.079 181.361C118.245 181.361 125.187 170.928 125.256 170.82C125.496 170.45 125.873 170.19 126.305 170.098C126.736 170.006 127.187 170.089 127.557 170.329C127.927 170.569 128.186 170.947 128.278 171.378C128.37 171.81 128.287 172.26 128.047 172.63C126.316 175.053 124.182 177.161 121.739 178.863C116.361 182.679 109.923 184.716 103.328 184.686L88.874 214.738C88.7381 215.02 88.5254 215.258 88.2605 215.424C87.9955 215.591 87.689 215.68 87.376 215.68Z" fill="#0055FF"/>
</g>
<path opacity="0.3" d="M18.356 159.815C17.9812 159.815 17.6176 159.688 17.324 159.455C17.0303 159.222 16.8238 158.897 16.738 158.532C13.9475 146.596 13.304 134.259 14.8379 122.097C14.8932 121.659 15.1202 121.262 15.4687 120.991C15.8173 120.721 16.2589 120.6 16.6965 120.655C17.1341 120.711 17.5319 120.938 17.8022 121.286C18.0726 121.635 18.1932 122.076 18.1379 122.514C16.6541 134.282 17.2766 146.221 19.9761 157.771C20.0332 158.015 20.0343 158.269 19.9795 158.514C19.9247 158.759 19.8154 158.988 19.6597 159.184C19.5039 159.381 19.3058 159.539 19.0801 159.649C18.8544 159.758 18.6067 159.815 18.356 159.815Z" fill="#0055FF"/>
<path opacity="0.3" d="M116.271 237.286C100.263 237.334 84.4717 233.582 70.1952 226.34C56.4092 219.34 44.3721 209.332 34.974 197.055C34.7063 196.704 34.589 196.262 34.6476 195.825C34.7062 195.387 34.9359 194.991 35.2865 194.723C35.6371 194.456 36.0797 194.338 36.517 194.397C36.9542 194.455 37.3503 194.685 37.618 195.036C46.7114 206.915 58.3581 216.599 71.6971 223.372C85.5085 230.378 100.785 234.008 116.272 233.961C122.259 233.962 128.234 233.424 134.125 232.354C134.559 232.274 135.007 232.371 135.37 232.621C135.733 232.872 135.982 233.257 136.062 233.691C136.141 234.125 136.045 234.572 135.794 234.936C135.544 235.299 135.159 235.547 134.725 235.627C128.636 236.732 122.46 237.288 116.271 237.286Z" fill="#0055FF"/>
<path opacity="0.3" d="M212.597 166.092C212.342 166.091 212.09 166.031 211.862 165.917C211.634 165.804 211.435 165.639 211.28 165.436C211.125 165.233 211.019 164.997 210.97 164.747C210.921 164.497 210.93 164.238 210.997 163.992C211.822 160.992 212.511 157.92 213.046 154.856C213.081 154.638 213.158 154.429 213.274 154.241C213.39 154.054 213.542 153.891 213.721 153.762C213.901 153.634 214.104 153.543 214.32 153.494C214.535 153.445 214.757 153.439 214.975 153.477C215.192 153.515 215.4 153.596 215.586 153.715C215.771 153.834 215.931 153.989 216.057 154.17C216.182 154.352 216.271 154.557 216.316 154.772C216.362 154.988 216.363 155.211 216.322 155.428C215.769 158.596 215.056 161.774 214.204 164.873C214.106 165.224 213.896 165.533 213.606 165.753C213.316 165.974 212.961 166.093 212.597 166.092Z" fill="#0055FF"/>
<path opacity="0.3" d="M214.647 115.669C214.266 115.669 213.897 115.538 213.601 115.298C213.305 115.058 213.1 114.724 213.021 114.352C210.153 100.812 204.447 88.0348 196.278 76.863C196.143 76.6869 196.044 76.4854 195.987 76.2706C195.931 76.0557 195.919 75.8318 195.95 75.612C195.982 75.3922 196.057 75.1809 196.172 74.9907C196.287 74.8004 196.438 74.635 196.617 74.5043C196.797 74.3735 197.001 74.28 197.217 74.2292C197.433 74.1785 197.658 74.1715 197.877 74.2087C198.096 74.246 198.305 74.3267 198.492 74.4461C198.679 74.5655 198.841 74.7211 198.967 74.9039C207.411 86.4534 213.31 99.6623 216.275 113.659C216.327 113.901 216.323 114.152 216.265 114.393C216.207 114.634 216.096 114.86 215.94 115.052C215.784 115.245 215.587 115.4 215.363 115.507C215.14 115.614 214.895 115.669 214.647 115.669Z" fill="#0055FF"/>
<g opacity="0.8">
<g opacity="0.3">
<path opacity="0.3" d="M21.2909 178.418H17.7421C17.3009 178.418 16.8778 178.243 16.5658 177.931C16.2538 177.619 16.0785 177.196 16.0785 176.754C16.0785 176.313 16.2538 175.89 16.5658 175.578C16.8778 175.266 17.3009 175.091 17.7421 175.091H21.2909C21.7321 175.091 22.1552 175.266 22.4672 175.578C22.7791 175.89 22.9545 176.313 22.9545 176.754C22.9545 177.196 22.7791 177.619 22.4672 177.931C22.1552 178.243 21.7321 178.418 21.2909 178.418Z" fill="#0055FF"/>
<path opacity="0.3" d="M35.04 178.418H31.0481C30.6069 178.418 30.1838 178.243 29.8718 177.931C29.5599 177.619 29.3845 177.196 29.3845 176.754C29.3845 176.313 29.5599 175.89 29.8718 175.578C30.1838 175.266 30.6069 175.091 31.0481 175.091H35.04C35.4812 175.091 35.9043 175.266 36.2163 175.578C36.5283 175.89 36.7036 176.313 36.7036 176.754C36.7036 177.196 36.5283 177.619 36.2163 177.931C35.9043 178.243 35.4812 178.418 35.04 178.418Z" fill="#0055FF"/>
</g>
<g opacity="0.8">
<path opacity="0.3" d="M26.2801 187.178C25.8391 187.178 25.4161 187.002 25.1043 186.691C24.7925 186.379 24.6173 185.956 24.617 185.515V181.967C24.6276 181.533 24.8077 181.12 25.1185 180.817C25.4293 180.513 25.8463 180.344 26.2806 180.344C26.7148 180.344 27.1319 180.513 27.4427 180.817C27.7535 181.12 27.9333 181.533 27.9439 181.967V185.515C27.9436 185.956 27.7684 186.379 27.4564 186.691C27.1443 187.003 26.7212 187.178 26.2801 187.178Z" fill="#0055FF"/>
<path opacity="0.3" d="M26.2801 173.872C25.839 173.872 25.4159 173.697 25.1041 173.385C24.7922 173.073 24.617 172.65 24.617 172.209V168.217C24.6276 167.783 24.8077 167.37 25.1185 167.067C25.4293 166.763 25.8463 166.594 26.2806 166.594C26.7148 166.594 27.1319 166.763 27.4427 167.067C27.7535 167.37 27.9333 167.783 27.9439 168.217V172.209C27.9436 172.65 27.7684 173.073 27.4564 173.385C27.1443 173.697 26.7212 173.872 26.2801 173.872Z" fill="#0055FF"/>
</g>
</g>
<g opacity="0.3">
<g opacity="0.3">
<path opacity="0.3" d="M210.242 135.615H206.694C206.253 135.615 205.83 135.44 205.518 135.128C205.206 134.816 205.031 134.393 205.031 133.951C205.031 133.51 205.206 133.087 205.518 132.775C205.83 132.463 206.253 132.288 206.694 132.288H210.242C210.683 132.288 211.106 132.463 211.418 132.775C211.73 133.087 211.906 133.51 211.906 133.951C211.906 134.393 211.73 134.816 211.418 135.128C211.106 135.44 210.683 135.615 210.242 135.615Z" fill="#0055FF"/>
<path opacity="0.3" d="M223.992 135.615H220.001C219.56 135.615 219.137 135.44 218.825 135.128C218.513 134.816 218.338 134.393 218.338 133.951C218.338 133.51 218.513 133.087 218.825 132.775C219.137 132.463 219.56 132.288 220.001 132.288H223.992C224.433 132.288 224.856 132.463 225.168 132.775C225.48 133.087 225.655 133.51 225.655 133.951C225.655 134.393 225.48 134.816 225.168 135.128C224.856 135.44 224.433 135.615 223.992 135.615Z" fill="#0055FF"/>
</g>
<g opacity="0.3">
<path opacity="0.3" d="M215.233 144.375C214.792 144.375 214.368 144.2 214.056 143.888C213.744 143.576 213.569 143.152 213.569 142.711V139.163C213.569 138.722 213.744 138.299 214.056 137.987C214.368 137.675 214.791 137.5 215.233 137.5C215.674 137.5 216.097 137.675 216.409 137.987C216.721 138.299 216.896 138.722 216.896 139.163V142.711C216.896 142.93 216.853 143.146 216.77 143.348C216.686 143.55 216.564 143.733 216.409 143.888C216.255 144.042 216.072 144.165 215.87 144.248C215.668 144.332 215.452 144.375 215.233 144.375Z" fill="#0055FF"/>
<path opacity="0.3" d="M215.233 131.069C214.792 131.069 214.369 130.894 214.057 130.582C213.745 130.27 213.569 129.847 213.569 129.406V125.414C213.569 124.973 213.744 124.55 214.056 124.238C214.368 123.926 214.791 123.75 215.233 123.75C215.674 123.75 216.097 123.926 216.409 124.238C216.721 124.55 216.896 124.973 216.896 125.414V129.406C216.896 129.847 216.721 130.27 216.409 130.582C216.097 130.894 215.674 131.069 215.233 131.069Z" fill="#0055FF"/>
</g>
</g>
<g opacity="0.3">
<g opacity="0.3">
<path opacity="0.3" d="M88.9329 11.865H85.3851C84.9439 11.865 84.5208 11.6897 84.2088 11.3777C83.8968 11.0658 83.7215 10.6427 83.7215 10.2015C83.7215 9.76029 83.8968 9.33714 84.2088 9.02518C84.5208 8.71321 84.9439 8.53796 85.3851 8.53796H88.9329C89.3741 8.53796 89.7972 8.71321 90.1092 9.02518C90.4212 9.33714 90.5965 9.76029 90.5965 10.2015C90.5965 10.6427 90.4212 11.0658 90.1092 11.3777C89.7972 11.6897 89.3741 11.865 88.9329 11.865Z" fill="#0055FF"/>
<path opacity="0.3" d="M102.683 11.865H98.6911C98.2499 11.865 97.8268 11.6897 97.5148 11.3777C97.2029 11.0658 97.0275 10.6427 97.0275 10.2015C97.0275 9.76029 97.2029 9.33714 97.5148 9.02518C97.8268 8.71321 98.2499 8.53796 98.6911 8.53796H102.683C103.124 8.53796 103.547 8.71321 103.859 9.02518C104.171 9.33714 104.347 9.76029 104.347 10.2015C104.347 10.6427 104.171 11.0658 103.859 11.3777C103.547 11.6897 103.124 11.865 102.683 11.865Z" fill="#0055FF"/>
</g>
<g opacity="0.3">
<path opacity="0.3" d="M93.9221 20.625C93.4811 20.625 93.058 20.4498 92.7461 20.1379C92.4342 19.826 92.259 19.403 92.259 18.962V15.414C92.259 14.9729 92.4342 14.5499 92.7461 14.238C93.058 13.9262 93.4811 13.751 93.9221 13.751C94.3632 13.751 94.786 13.9262 95.0979 14.238C95.4098 14.5499 95.585 14.9729 95.585 15.414V18.962C95.585 19.403 95.4098 19.826 95.0979 20.1379C94.786 20.4498 94.3632 20.625 93.9221 20.625Z" fill="#0055FF"/>
<path opacity="0.3" d="M93.9221 7.31897C93.7037 7.31897 93.4874 7.27596 93.2856 7.19238C93.0839 7.10881 92.9005 6.9863 92.7461 6.83188C92.5917 6.67745 92.4693 6.49412 92.3857 6.29236C92.3022 6.09059 92.259 5.87436 92.259 5.65598V1.66397C92.259 1.22292 92.4342 0.79991 92.7461 0.488037C93.058 0.176164 93.4811 0.000976562 93.9221 0.000976562C94.3632 0.000976562 94.786 0.176164 95.0979 0.488037C95.4098 0.79991 95.585 1.22292 95.585 1.66397V5.65598C95.585 5.87436 95.5421 6.09059 95.4585 6.29236C95.3749 6.49412 95.2523 6.67745 95.0979 6.83188C94.9435 6.9863 94.7601 7.10881 94.5583 7.19238C94.3566 7.27596 94.1405 7.31897 93.9221 7.31897Z" fill="#0055FF"/>
</g>
</g>
<g opacity="0.3">
<g opacity="0.3">
<path opacity="0.3" d="M205.142 191.059H201.594C201.153 191.059 200.73 190.884 200.418 190.572C200.106 190.26 199.931 189.837 199.931 189.395C199.931 188.954 200.106 188.531 200.418 188.219C200.73 187.907 201.153 187.732 201.594 187.732H205.142C205.583 187.732 206.006 187.907 206.318 188.219C206.63 188.531 206.806 188.954 206.806 189.395C206.806 189.837 206.63 190.26 206.318 190.572C206.006 190.884 205.583 191.059 205.142 191.059Z" fill="#0055FF"/>
<path opacity="0.3" d="M218.891 191.059H214.901C214.46 191.059 214.037 190.884 213.725 190.572C213.413 190.26 213.238 189.837 213.238 189.395C213.238 188.954 213.413 188.531 213.725 188.219C214.037 187.907 214.46 187.732 214.901 187.732H218.891C219.332 187.732 219.755 187.907 220.067 188.219C220.379 188.531 220.554 188.954 220.554 189.395C220.554 189.837 220.379 190.26 220.067 190.572C219.755 190.884 219.332 191.059 218.891 191.059Z" fill="#0055FF"/>
</g>
<g opacity="0.3">
<path opacity="0.3" d="M210.133 199.819C209.915 199.819 209.698 199.776 209.496 199.693C209.294 199.609 209.111 199.487 208.956 199.332C208.802 199.178 208.679 198.994 208.595 198.793C208.512 198.591 208.469 198.374 208.469 198.156V194.608C208.469 194.167 208.644 193.744 208.956 193.432C209.268 193.12 209.691 192.945 210.132 192.945C210.573 192.945 210.996 193.12 211.308 193.432C211.62 193.744 211.795 194.167 211.795 194.608V198.156C211.795 198.597 211.62 199.02 211.308 199.332C210.997 199.643 210.574 199.819 210.133 199.819Z" fill="#0055FF"/>
<path opacity="0.3" d="M210.133 186.513C209.915 186.513 209.698 186.47 209.496 186.387C209.294 186.303 209.111 186.18 208.956 186.026C208.802 185.871 208.679 185.688 208.595 185.486C208.512 185.284 208.469 185.068 208.469 184.849V180.857C208.469 180.416 208.644 179.993 208.956 179.681C209.268 179.369 209.691 179.194 210.132 179.194C210.573 179.194 210.996 179.369 211.308 179.681C211.62 179.993 211.795 180.416 211.795 180.857V184.849C211.795 185.067 211.752 185.284 211.669 185.485C211.585 185.687 211.463 185.871 211.309 186.025C211.155 186.18 210.971 186.302 210.769 186.386C210.568 186.47 210.351 186.513 210.133 186.513Z" fill="#0055FF"/>
</g>
</g>
<path opacity="0.3" d="M41.9181 146.772C40.8519 146.772 39.8096 146.456 38.923 145.863C38.0365 145.271 37.3455 144.429 36.9374 143.444C36.5294 142.459 36.4225 141.375 36.6305 140.329C36.8386 139.283 37.3522 138.323 38.1061 137.569C38.8601 136.815 39.8206 136.301 40.8664 136.093C41.9121 135.885 42.996 135.992 43.9811 136.4C44.9662 136.808 45.8082 137.499 46.4006 138.386C46.9929 139.272 47.309 140.315 47.309 141.381C47.3066 142.81 46.738 144.18 45.7275 145.19C44.717 146.201 43.3472 146.77 41.9181 146.772ZM41.9181 139.316C41.5097 139.316 41.1102 139.437 40.7704 139.663C40.4307 139.89 40.1659 140.213 40.0094 140.59C39.853 140.967 39.812 141.383 39.8915 141.783C39.9711 142.184 40.1677 142.552 40.4565 142.841C40.7452 143.13 41.1132 143.326 41.5138 143.406C41.9144 143.486 42.3298 143.445 42.7072 143.289C43.0846 143.133 43.407 142.868 43.634 142.528C43.8609 142.189 43.9821 141.789 43.9821 141.381C43.9816 140.834 43.7641 140.309 43.3771 139.922C42.9902 139.535 42.4655 139.317 41.9181 139.316Z" fill="#0055FF"/>
<path opacity="0.3" d="M112.06 38.877C110.994 38.8768 109.952 38.5604 109.065 37.968C108.179 37.3755 107.488 36.5334 107.08 35.5483C106.672 34.5632 106.566 33.4793 106.774 32.4336C106.982 31.3879 107.495 30.4274 108.249 29.6736C109.003 28.9197 109.964 28.4064 111.01 28.1985C112.055 27.9906 113.139 28.0974 114.124 28.5054C115.109 28.9135 115.951 29.6044 116.544 30.491C117.136 31.3775 117.452 32.4198 117.452 33.486C117.45 34.9152 116.881 36.2852 115.87 37.2957C114.859 38.3062 113.489 38.8748 112.06 38.877ZM112.06 31.421C111.652 31.4212 111.253 31.5424 110.914 31.7693C110.574 31.9962 110.31 32.3186 110.154 32.6958C109.998 33.073 109.957 33.4879 110.037 33.8882C110.116 34.2886 110.313 34.6562 110.602 34.9448C110.891 35.2333 111.258 35.4298 111.659 35.5094C112.059 35.589 112.474 35.548 112.851 35.3918C113.228 35.2355 113.55 34.9709 113.777 34.6315C114.004 34.2921 114.125 33.8932 114.125 33.485C114.124 32.9377 113.906 32.4131 113.519 32.0264C113.132 31.6396 112.607 31.4222 112.06 31.4219V31.421Z" fill="#0055FF"/>
<path opacity="0.3" d="M188.794 178.595C187.728 178.595 186.686 178.279 185.799 177.686C184.913 177.094 184.221 176.252 183.813 175.267C183.405 174.282 183.299 173.198 183.507 172.152C183.715 171.106 184.228 170.146 184.982 169.392C185.736 168.638 186.697 168.125 187.743 167.917C188.788 167.709 189.872 167.815 190.857 168.223C191.842 168.631 192.684 169.322 193.277 170.209C193.869 171.095 194.185 172.138 194.185 173.204C194.183 174.633 193.614 176.003 192.603 177.013C191.593 178.024 190.223 178.593 188.794 178.595ZM188.794 171.139C188.386 171.139 187.987 171.26 187.647 171.486C187.307 171.713 187.042 172.036 186.886 172.413C186.729 172.79 186.688 173.206 186.768 173.606C186.847 174.007 187.044 174.375 187.333 174.664C187.622 174.953 187.989 175.149 188.39 175.229C188.791 175.309 189.206 175.268 189.583 175.112C189.961 174.956 190.283 174.691 190.51 174.351C190.737 174.012 190.858 173.612 190.858 173.204C190.857 172.657 190.64 172.132 190.253 171.745C189.866 171.358 189.341 171.141 188.794 171.14V171.139Z" fill="#0055FF"/>
</g>
<path opacity="0.8" d="M167.875 242.996C162.574 242.996 157.393 241.424 152.985 238.479C148.578 235.535 145.143 231.349 143.115 226.452C141.086 221.555 140.556 216.166 141.59 210.967C142.624 205.769 145.176 200.993 148.924 197.245C152.672 193.497 157.448 190.945 162.647 189.911C167.845 188.877 173.233 189.408 178.13 191.436C183.028 193.464 187.214 196.899 190.158 201.307C193.103 205.714 194.675 210.895 194.675 216.196C194.668 223.302 191.841 230.114 186.817 235.138C181.793 240.163 174.98 242.989 167.875 242.996ZM167.875 192.727C163.233 192.727 158.695 194.104 154.835 196.683C150.975 199.262 147.967 202.927 146.191 207.216C144.414 211.505 143.949 216.224 144.855 220.777C145.76 225.33 147.996 229.512 151.278 232.795C154.561 236.077 158.743 238.312 163.296 239.218C167.849 240.124 172.568 239.659 176.857 237.882C181.145 236.106 184.811 233.098 187.39 229.238C189.969 225.378 191.346 220.84 191.346 216.198C191.339 209.975 188.865 204.008 184.464 199.607C180.064 195.207 174.098 192.731 167.875 192.723V192.727Z" fill="#0055FF"/>
<g opacity="0.8">
<path opacity="0.8" d="M167.875 227.84H167.65C163.262 227.84 159.692 224.818 159.692 221.104C159.692 220.663 159.867 220.24 160.179 219.928C160.491 219.616 160.914 219.44 161.355 219.44C161.797 219.44 162.22 219.616 162.532 219.928C162.844 220.24 163.019 220.663 163.019 221.104C163.019 222.952 165.14 224.513 167.65 224.513H167.875C170.385 224.513 172.506 222.952 172.506 221.104C172.506 219.256 170.385 217.694 167.875 217.694C163.487 217.694 159.917 214.672 159.917 210.958V210.922C159.917 207.208 163.487 204.186 167.875 204.186H168.1C172.488 204.186 176.058 207.207 176.058 210.922C176.058 211.363 175.883 211.786 175.571 212.098C175.259 212.41 174.836 212.585 174.395 212.585C173.954 212.585 173.531 212.41 173.219 212.098C172.907 211.786 172.732 211.363 172.732 210.922C172.732 209.074 170.611 207.513 168.1 207.513H167.875C165.365 207.513 163.244 209.074 163.244 210.922V210.958C163.244 212.806 165.366 214.367 167.875 214.367C172.263 214.367 175.833 217.389 175.833 221.103C175.833 224.817 172.262 227.84 167.875 227.84Z" fill="#0055FF"/>
<path opacity="0.8" d="M167.96 207.031C167.519 207.031 167.096 206.856 166.784 206.544C166.472 206.232 166.297 205.809 166.297 205.368V199.859C166.297 199.418 166.472 198.995 166.784 198.683C167.096 198.371 167.519 198.196 167.96 198.196C168.401 198.196 168.824 198.371 169.136 198.683C169.448 198.995 169.623 199.418 169.623 199.859V205.368C169.623 205.809 169.448 206.232 169.136 206.544C168.824 206.856 168.401 207.031 167.96 207.031Z" fill="#0055FF"/>
<path opacity="0.8" d="M167.96 234.116C167.741 234.116 167.525 234.073 167.323 233.99C167.121 233.906 166.938 233.783 166.783 233.629C166.629 233.474 166.507 233.291 166.423 233.089C166.34 232.887 166.297 232.67 166.297 232.452V226.943C166.297 226.502 166.472 226.079 166.784 225.767C167.096 225.455 167.519 225.28 167.96 225.28C168.401 225.28 168.824 225.455 169.136 225.767C169.448 226.079 169.623 226.502 169.623 226.943V232.452C169.623 232.67 169.58 232.887 169.497 233.089C169.413 233.291 169.29 233.474 169.136 233.628C168.982 233.783 168.798 233.905 168.596 233.989C168.395 234.073 168.178 234.116 167.96 234.116Z" fill="#0055FF"/>
</g>
<path opacity="0.8" d="M87.3941 73.447C87.1452 73.447 86.8996 73.3911 86.6751 73.2835C86.4506 73.1759 86.2532 73.0193 86.0972 72.8253C85.9413 72.6313 85.8307 72.4048 85.774 72.1624C85.7172 71.9201 85.7155 71.6681 85.7691 71.425L91.521 45.3829L31.1131 32.0389L25.0242 60.449C24.9783 60.6626 24.8906 60.865 24.7664 61.0447C24.6422 61.2245 24.4839 61.3781 24.3003 61.4966C24.1168 61.6151 23.9118 61.6963 23.6968 61.7356C23.4819 61.7749 23.2613 61.7714 23.0477 61.7255C22.8341 61.6795 22.6317 61.5919 22.452 61.4677C22.2722 61.3435 22.1186 61.1851 22.0001 61.0016C21.8815 60.8181 21.8003 60.6129 21.761 60.398C21.7218 60.1831 21.7251 59.9626 21.7711 59.749L28.2103 29.702C28.2563 29.4874 28.3442 29.2842 28.469 29.1038C28.5939 28.9234 28.7532 28.7694 28.9378 28.6508C29.1224 28.5322 29.3285 28.4513 29.5445 28.4127C29.7605 28.3741 29.9819 28.3786 30.1961 28.426L93.8631 42.49C94.2937 42.5854 94.6689 42.8478 94.9061 43.2197C95.1433 43.5915 95.2232 44.0423 95.1282 44.473L89.0171 72.139C88.9361 72.5093 88.731 72.8408 88.4358 73.0786C88.1407 73.3165 87.7731 73.4464 87.3941 73.447Z" fill="#0055FF"/>
<path opacity="0.8" d="M82.634 67.411C82.3851 67.4109 82.1393 67.355 81.9148 67.2475C81.6903 67.1399 81.4927 66.9833 81.3367 66.7893C81.1807 66.5953 81.0703 66.3688 81.0134 66.1265C80.9565 65.8841 80.9547 65.6321 81.008 65.3889L83.408 54.5219C82.3683 53.9809 81.491 53.1734 80.8657 52.1821C80.2404 51.1909 79.8896 50.0513 79.8491 48.88L41.103 40.3209C40.5625 41.3874 39.739 42.2848 38.7229 42.9149C37.7147 43.5447 36.5562 43.8928 35.3679 43.9229L33.2991 53.289C34.3617 53.8119 35.2654 54.609 35.917 55.598C36.4004 56.3289 36.7308 57.1501 36.8884 58.0122C37.046 58.8742 37.0275 59.7593 36.834 60.614C36.7868 60.8272 36.6982 61.0291 36.573 61.2081C36.4478 61.3871 36.2886 61.5397 36.1045 61.6571C35.9203 61.7746 35.7148 61.8547 35.4997 61.8927C35.2847 61.9308 35.0643 61.9261 34.8511 61.8789C34.6378 61.8318 34.4358 61.7431 34.2568 61.6179C34.0778 61.4928 33.9253 61.3336 33.8079 61.1494C33.6904 60.9653 33.6103 60.7598 33.5723 60.5448C33.5342 60.3297 33.5388 60.1092 33.5859 59.896C33.6817 59.4759 33.6916 59.0407 33.6147 58.6168C33.5379 58.1928 33.376 57.7888 33.1389 57.429C32.6428 56.6859 31.8753 56.1668 31.001 55.9829C30.7877 55.9358 30.5857 55.8472 30.4067 55.722C30.2277 55.5968 30.0752 55.4376 29.9578 55.2535C29.8403 55.0694 29.7602 54.8638 29.7222 54.6488C29.6841 54.4337 29.6889 54.2132 29.7361 54L32.436 41.7789C32.4831 41.5657 32.5719 41.3638 32.697 41.1848C32.8222 41.0058 32.9814 40.8531 33.1655 40.7357C33.3497 40.6182 33.5552 40.5382 33.7703 40.5001C33.9853 40.4621 34.2057 40.4668 34.4189 40.5139C35.29 40.7136 36.2047 40.5624 36.9651 40.093C37.3336 39.8633 37.652 39.5619 37.9016 39.2066C38.1512 38.8513 38.3268 38.4495 38.418 38.025C38.4651 37.8117 38.5538 37.6097 38.6789 37.4307C38.8041 37.2517 38.9633 37.0992 39.1475 36.9817C39.3316 36.8642 39.5371 36.7842 39.7522 36.7461C39.9673 36.7081 40.1878 36.7128 40.4011 36.76L81.9871 45.9459C82.2003 45.9931 82.4023 46.0818 82.5813 46.2069C82.7603 46.3321 82.9128 46.4913 83.0303 46.6754C83.1477 46.8596 83.2278 47.065 83.2659 47.2801C83.3039 47.4952 83.2991 47.7157 83.2519 47.929C83.07 48.7724 83.2247 49.6535 83.6829 50.3846C84.141 51.1157 84.8667 51.639 85.7051 51.843C85.9184 51.8901 86.1203 51.9787 86.2993 52.1039C86.4783 52.2291 86.6308 52.3883 86.7483 52.5724C86.8658 52.7566 86.9458 52.9621 86.9839 53.1771C87.0219 53.3922 87.0171 53.6127 86.97 53.8259L84.2571 66.106C84.1754 66.4757 83.9699 66.8065 83.6748 67.0437C83.3797 67.281 83.0127 67.4106 82.634 67.411Z" fill="#0055FF"/>
<path opacity="0.8" d="M57.9503 59.2699C56.845 59.2702 55.7667 58.9274 54.8646 58.2889C53.9625 57.6503 53.281 56.7474 52.9139 55.7049C52.5468 54.6624 52.5123 53.5316 52.8153 52.4687C53.1183 51.4057 53.7437 50.4631 54.6053 49.7708C55.4669 49.0785 56.5221 48.6707 57.6253 48.6037C58.7286 48.5368 59.8255 48.8139 60.7645 49.397C61.7035 49.98 62.4382 50.8401 62.8675 51.8586C63.2968 52.877 63.3996 54.0037 63.1612 55.0829C62.8971 56.2688 62.2372 57.3295 61.2901 58.0905C60.343 58.8515 59.1652 59.2674 57.9503 59.2699ZM57.9452 51.9209C57.4288 51.921 56.9321 52.119 56.5572 52.4741C56.1823 52.8292 55.9577 53.3144 55.9295 53.83C55.9014 54.3456 56.072 54.8524 56.4061 55.2461C56.7402 55.6399 57.2124 55.8907 57.7257 55.9469C58.239 56.0032 58.7542 55.8606 59.1656 55.5486C59.577 55.2365 59.8534 54.7787 59.9376 54.2692C60.0218 53.7597 59.9076 53.2374 59.6185 52.8096C59.3294 52.3817 58.8873 52.0809 58.3832 51.969C58.2389 51.9384 58.0917 51.9236 57.9442 51.925L57.9452 51.9209Z" fill="#0055FF"/>
<g opacity="0.8">
<path opacity="0.8" d="M22.154 83.738H22.1172C20.5998 83.7334 19.1465 83.1261 18.0769 82.05C17.0073 80.9738 16.4089 79.5168 16.4135 77.9995C16.4182 76.4822 17.0254 75.0289 18.1015 73.9593C19.1777 72.8896 20.6348 72.2913 22.1521 72.296H22.1892C23.7065 72.3006 25.1596 72.9078 26.2292 73.984C27.2988 75.0602 27.8972 76.5171 27.8925 78.0345C27.8879 79.5518 27.2807 81.0051 26.2046 82.0747C25.1284 83.1443 23.6713 83.7426 22.154 83.738ZM22.154 75.623C21.5218 75.6232 20.9152 75.8735 20.4668 76.3191C20.0183 76.7648 19.7642 77.3697 19.76 78.002C19.758 78.3164 19.818 78.6281 19.9365 78.9193C20.055 79.2105 20.2297 79.4755 20.4506 79.6992C20.6716 79.9229 20.9344 80.1009 21.2241 80.223C21.5138 80.3451 21.8247 80.409 22.1391 80.411C22.4543 80.416 22.7672 80.3575 23.0593 80.239C23.3514 80.1204 23.6166 79.9443 23.8391 79.721C24.1769 79.3884 24.4083 78.9631 24.5041 78.4989C24.5999 78.0346 24.5557 77.5524 24.3772 77.1132C24.1986 76.6741 23.8938 76.2979 23.5012 76.0323C23.1086 75.7666 22.6461 75.6235 22.1721 75.621L22.154 75.623Z" fill="#0055FF"/>
<path opacity="0.8" d="M14.038 83.687H14.0011C12.4844 83.6756 11.0341 83.0631 9.9684 81.9838C8.90264 80.9046 8.30833 79.4467 8.31605 77.9299C8.32739 76.4196 8.93474 74.9749 10.006 73.9102C11.0772 72.8455 12.5257 72.247 14.036 72.2449H14.0731C15.5775 72.269 17.0119 72.8847 18.0656 73.9587C19.1192 75.0328 19.7073 76.4786 19.7025 77.9832C19.6978 79.4878 19.1006 80.9299 18.0402 81.9973C16.9798 83.0647 15.5415 83.6713 14.037 83.6859L14.038 83.687ZM11.643 77.9509C11.6406 78.5854 11.8895 79.195 12.3353 79.6464C12.7812 80.0979 13.3877 80.3544 14.0221 80.3599H14.037C14.3514 80.3609 14.6629 80.3 14.9537 80.1806C15.2446 80.0612 15.5091 79.8857 15.7321 79.6641C15.9551 79.4425 16.1323 79.1791 16.2536 78.889C16.3748 78.599 16.4376 78.2878 16.4386 77.9734C16.4396 77.6591 16.3786 77.3475 16.2592 77.0567C16.1398 76.7659 15.9644 76.5014 15.7428 76.2784C15.5212 76.0554 15.2577 75.8782 14.9677 75.757C14.6776 75.6358 14.3665 75.5729 14.0521 75.572H14.037C13.4051 75.5735 12.7994 75.8241 12.3512 76.2695C11.903 76.7149 11.6485 77.3191 11.643 77.9509Z" fill="#0055FF"/>
<path opacity="0.8" d="M31.7351 96.0569H31.7241L9.91401 95.9189C9.47282 95.9176 9.05023 95.7411 8.7392 95.4282C8.42818 95.1153 8.25424 94.6916 8.25556 94.2504C8.25689 93.8092 8.43338 93.3867 8.74628 93.0756C9.05919 92.7646 9.48283 92.5906 9.92402 92.5919H9.93501L31.7441 92.7299C32.1853 92.7313 32.6079 92.9078 32.9189 93.2207C33.2299 93.5336 33.4039 93.9573 33.4025 94.3984C33.4012 94.8396 33.2247 95.2622 32.9118 95.5732C32.5989 95.8843 32.1753 96.0582 31.7341 96.0569H31.7351Z" fill="#0055FF"/>
<path opacity="0.8" d="M31.692 102.944H31.682L9.87198 102.806C9.43079 102.803 9.00888 102.625 8.69889 102.311C8.38889 101.997 8.21636 101.573 8.21915 101.132C8.22193 100.691 8.39984 100.269 8.71378 99.9587C9.02771 99.6487 9.45179 99.4761 9.89298 99.4789L31.7021 99.6169C31.9205 99.6176 32.1367 99.6613 32.3383 99.7455C32.5399 99.8297 32.7229 99.9527 32.8769 100.108C33.0309 100.263 33.1528 100.446 33.2358 100.648C33.3187 100.85 33.3612 101.067 33.3605 101.285C33.3598 101.504 33.3163 101.72 33.2321 101.922C33.1479 102.123 33.0247 102.306 32.8698 102.46C32.7148 102.614 32.5311 102.736 32.329 102.819C32.1269 102.902 31.9105 102.945 31.692 102.944Z" fill="#0055FF"/>
<path opacity="0.8" d="M53.226 103.067H53.215L38.415 102.973C37.9738 102.972 37.5512 102.795 37.2402 102.482C36.9292 102.169 36.7552 101.746 36.7565 101.304C36.7579 100.863 36.9344 100.441 37.2473 100.13C37.5602 99.8186 37.9838 99.6446 38.425 99.6459H38.436L53.236 99.7399C53.6772 99.7413 54.0998 99.9178 54.4108 100.231C54.7219 100.544 54.8958 100.967 54.8945 101.408C54.8932 101.85 54.7167 102.272 54.4038 102.583C54.0909 102.894 53.6672 103.068 53.226 103.067Z" fill="#0055FF"/>
<path opacity="0.8" d="M59.4319 111.442H5.98999C4.40181 111.44 2.87936 110.808 1.75635 109.685C0.633333 108.562 0.00140393 107.039 -0.000976562 105.451V69.973C0.00140393 68.3848 0.633333 66.8623 1.75635 65.7393C2.87936 64.6162 4.40181 63.9843 5.98999 63.9819H59.4319C61.0201 63.9843 62.5425 64.6162 63.6655 65.7393C64.7885 66.8623 65.4207 68.3848 65.4231 69.973V105.451C65.4207 107.039 64.7885 108.562 63.6655 109.685C62.5425 110.808 61.0201 111.44 59.4319 111.442ZM5.98999 67.309C5.2837 67.3098 4.6066 67.5907 4.10718 68.0901C3.60775 68.5895 3.32672 69.2667 3.32593 69.973V105.451C3.32672 106.157 3.60775 106.834 4.10718 107.334C4.6066 107.833 5.2837 108.114 5.98999 108.115H59.4319C60.1382 108.114 60.8155 107.833 61.3149 107.334C61.8144 106.834 62.0952 106.157 62.0959 105.451V69.973C62.0952 69.2667 61.8144 68.5895 61.3149 68.0901C60.8155 67.5907 60.1382 67.3098 59.4319 67.309H5.98999Z" fill="#0055FF"/>
</g>
</g>
</g>
<defs>
<clipPath id="clip0_12_219">
<rect width="225.655" height="242.991" fill="white"/>
</clipPath>
</defs>
</svg>
